G04 #@! TF.GenerationSoftware,KiCad,Pcbnew,7.0.11*
G04 #@! TF.CreationDate,2025-02-11T16:17:04+07:00*
G04 #@! TF.ProjectId,travaulta,74726176-6175-46c7-9461-2e6b69636164,rev?*
G04 #@! TF.SameCoordinates,Original*
G04 #@! TF.FileFunction,Legend,Bot*
G04 #@! TF.FilePolarity,Positive*
%FSLAX46Y46*%
G04 Gerber Fmt 4.6, Leading zero omitted, Abs format (unit mm)*
G04 Created by KiCad (PCBNEW 7.0.11) date 2025-02-11 16:17:04*
%MOMM*%
%LPD*%
G01*
G04 APERTURE LIST*
G04 Aperture macros list*
%AMRoundRect*
0 Rectangle with rounded corners*
0 $1 Rounding radius*
0 $2 $3 $4 $5 $6 $7 $8 $9 X,Y pos of 4 corners*
0 Add a 4 corners polygon primitive as box body*
4,1,4,$2,$3,$4,$5,$6,$7,$8,$9,$2,$3,0*
0 Add four circle primitives for the rounded corners*
1,1,$1+$1,$2,$3*
1,1,$1+$1,$4,$5*
1,1,$1+$1,$6,$7*
1,1,$1+$1,$8,$9*
0 Add four rect primitives between the rounded corners*
20,1,$1+$1,$2,$3,$4,$5,0*
20,1,$1+$1,$4,$5,$6,$7,0*
20,1,$1+$1,$6,$7,$8,$9,0*
20,1,$1+$1,$8,$9,$2,$3,0*%
G04 Aperture macros list end*
%ADD10C,0.150000*%
%ADD11C,0.120000*%
%ADD12C,0.170180*%
%ADD13C,0.002540*%
%ADD14C,0.254000*%
%ADD15C,2.200000*%
%ADD16R,0.400000X1.900000*%
%ADD17RoundRect,0.140000X0.140000X0.170000X-0.140000X0.170000X-0.140000X-0.170000X0.140000X-0.170000X0*%
%ADD18RoundRect,0.140000X-0.140000X-0.170000X0.140000X-0.170000X0.140000X0.170000X-0.140000X0.170000X0*%
%ADD19RoundRect,0.140000X-0.170000X0.140000X-0.170000X-0.140000X0.170000X-0.140000X0.170000X0.140000X0*%
%ADD20RoundRect,0.150000X-0.825000X-0.150000X0.825000X-0.150000X0.825000X0.150000X-0.825000X0.150000X0*%
%ADD21RoundRect,0.135000X-0.185000X0.135000X-0.185000X-0.135000X0.185000X-0.135000X0.185000X0.135000X0*%
%ADD22RoundRect,0.135000X0.185000X-0.135000X0.185000X0.135000X-0.185000X0.135000X-0.185000X-0.135000X0*%
%ADD23RoundRect,0.135000X-0.135000X-0.185000X0.135000X-0.185000X0.135000X0.185000X-0.135000X0.185000X0*%
%ADD24RoundRect,0.062500X0.062500X-0.375000X0.062500X0.375000X-0.062500X0.375000X-0.062500X-0.375000X0*%
%ADD25RoundRect,0.062500X0.375000X-0.062500X0.375000X0.062500X-0.375000X0.062500X-0.375000X-0.062500X0*%
%ADD26R,5.600000X5.600000*%
%ADD27RoundRect,0.135000X0.135000X0.185000X-0.135000X0.185000X-0.135000X-0.185000X0.135000X-0.185000X0*%
%ADD28R,1.778000X0.419100*%
%ADD29RoundRect,0.140000X0.170000X-0.140000X0.170000X0.140000X-0.170000X0.140000X-0.170000X-0.140000X0*%
%ADD30RoundRect,0.250000X-0.375000X-0.625000X0.375000X-0.625000X0.375000X0.625000X-0.375000X0.625000X0*%
%ADD31RoundRect,0.150000X0.625000X-0.150000X0.625000X0.150000X-0.625000X0.150000X-0.625000X-0.150000X0*%
%ADD32RoundRect,0.250000X0.650000X-0.350000X0.650000X0.350000X-0.650000X0.350000X-0.650000X-0.350000X0*%
%ADD33R,0.700000X1.000000*%
%ADD34R,0.700000X0.600000*%
%ADD35R,1.700000X1.700000*%
%ADD36O,1.700000X1.700000*%
%ADD37RoundRect,0.150000X0.587500X0.150000X-0.587500X0.150000X-0.587500X-0.150000X0.587500X-0.150000X0*%
%ADD38RoundRect,0.237500X0.250000X0.237500X-0.250000X0.237500X-0.250000X-0.237500X0.250000X-0.237500X0*%
%ADD39C,0.820000*%
%ADD40RoundRect,0.010000X-0.300000X-0.650000X0.300000X-0.650000X0.300000X0.650000X-0.300000X0.650000X0*%
%ADD41RoundRect,0.010000X-0.150000X-0.650000X0.150000X-0.650000X0.150000X0.650000X-0.150000X0.650000X0*%
%ADD42RoundRect,0.010000X-1.000000X-1.000000X1.000000X-1.000000X1.000000X1.000000X-1.000000X1.000000X0*%
G04 APERTURE END LIST*
D10*
X19193451Y-19298569D02*
X19193451Y-20012854D01*
X19193451Y-20012854D02*
X19145832Y-20155711D01*
X19145832Y-20155711D02*
X19050594Y-20250950D01*
X19050594Y-20250950D02*
X18907737Y-20298569D01*
X18907737Y-20298569D02*
X18812499Y-20298569D01*
X20145832Y-20298569D02*
X19669642Y-20298569D01*
X19669642Y-20298569D02*
X19669642Y-19298569D01*
X21050594Y-20203330D02*
X21002975Y-20250950D01*
X21002975Y-20250950D02*
X20860118Y-20298569D01*
X20860118Y-20298569D02*
X20764880Y-20298569D01*
X20764880Y-20298569D02*
X20622023Y-20250950D01*
X20622023Y-20250950D02*
X20526785Y-20155711D01*
X20526785Y-20155711D02*
X20479166Y-20060473D01*
X20479166Y-20060473D02*
X20431547Y-19869997D01*
X20431547Y-19869997D02*
X20431547Y-19727140D01*
X20431547Y-19727140D02*
X20479166Y-19536664D01*
X20479166Y-19536664D02*
X20526785Y-19441426D01*
X20526785Y-19441426D02*
X20622023Y-19346188D01*
X20622023Y-19346188D02*
X20764880Y-19298569D01*
X20764880Y-19298569D02*
X20860118Y-19298569D01*
X20860118Y-19298569D02*
X21002975Y-19346188D01*
X21002975Y-19346188D02*
X21050594Y-19393807D01*
X21764880Y-19298569D02*
X21764880Y-20012854D01*
X21764880Y-20012854D02*
X21717261Y-20155711D01*
X21717261Y-20155711D02*
X21622023Y-20250950D01*
X21622023Y-20250950D02*
X21479166Y-20298569D01*
X21479166Y-20298569D02*
X21383928Y-20298569D01*
X22717261Y-20298569D02*
X22241071Y-20298569D01*
X22241071Y-20298569D02*
X22241071Y-19298569D01*
X23622023Y-20203330D02*
X23574404Y-20250950D01*
X23574404Y-20250950D02*
X23431547Y-20298569D01*
X23431547Y-20298569D02*
X23336309Y-20298569D01*
X23336309Y-20298569D02*
X23193452Y-20250950D01*
X23193452Y-20250950D02*
X23098214Y-20155711D01*
X23098214Y-20155711D02*
X23050595Y-20060473D01*
X23050595Y-20060473D02*
X23002976Y-19869997D01*
X23002976Y-19869997D02*
X23002976Y-19727140D01*
X23002976Y-19727140D02*
X23050595Y-19536664D01*
X23050595Y-19536664D02*
X23098214Y-19441426D01*
X23098214Y-19441426D02*
X23193452Y-19346188D01*
X23193452Y-19346188D02*
X23336309Y-19298569D01*
X23336309Y-19298569D02*
X23431547Y-19298569D01*
X23431547Y-19298569D02*
X23574404Y-19346188D01*
X23574404Y-19346188D02*
X23622023Y-19393807D01*
X24336309Y-19298569D02*
X24336309Y-20012854D01*
X24336309Y-20012854D02*
X24288690Y-20155711D01*
X24288690Y-20155711D02*
X24193452Y-20250950D01*
X24193452Y-20250950D02*
X24050595Y-20298569D01*
X24050595Y-20298569D02*
X23955357Y-20298569D01*
X25288690Y-20298569D02*
X24812500Y-20298569D01*
X24812500Y-20298569D02*
X24812500Y-19298569D01*
X26193452Y-20203330D02*
X26145833Y-20250950D01*
X26145833Y-20250950D02*
X26002976Y-20298569D01*
X26002976Y-20298569D02*
X25907738Y-20298569D01*
X25907738Y-20298569D02*
X25764881Y-20250950D01*
X25764881Y-20250950D02*
X25669643Y-20155711D01*
X25669643Y-20155711D02*
X25622024Y-20060473D01*
X25622024Y-20060473D02*
X25574405Y-19869997D01*
X25574405Y-19869997D02*
X25574405Y-19727140D01*
X25574405Y-19727140D02*
X25622024Y-19536664D01*
X25622024Y-19536664D02*
X25669643Y-19441426D01*
X25669643Y-19441426D02*
X25764881Y-19346188D01*
X25764881Y-19346188D02*
X25907738Y-19298569D01*
X25907738Y-19298569D02*
X26002976Y-19298569D01*
X26002976Y-19298569D02*
X26145833Y-19346188D01*
X26145833Y-19346188D02*
X26193452Y-19393807D01*
X26907738Y-19298569D02*
X26907738Y-20012854D01*
X26907738Y-20012854D02*
X26860119Y-20155711D01*
X26860119Y-20155711D02*
X26764881Y-20250950D01*
X26764881Y-20250950D02*
X26622024Y-20298569D01*
X26622024Y-20298569D02*
X26526786Y-20298569D01*
X27860119Y-20298569D02*
X27383929Y-20298569D01*
X27383929Y-20298569D02*
X27383929Y-19298569D01*
X28764881Y-20203330D02*
X28717262Y-20250950D01*
X28717262Y-20250950D02*
X28574405Y-20298569D01*
X28574405Y-20298569D02*
X28479167Y-20298569D01*
X28479167Y-20298569D02*
X28336310Y-20250950D01*
X28336310Y-20250950D02*
X28241072Y-20155711D01*
X28241072Y-20155711D02*
X28193453Y-20060473D01*
X28193453Y-20060473D02*
X28145834Y-19869997D01*
X28145834Y-19869997D02*
X28145834Y-19727140D01*
X28145834Y-19727140D02*
X28193453Y-19536664D01*
X28193453Y-19536664D02*
X28241072Y-19441426D01*
X28241072Y-19441426D02*
X28336310Y-19346188D01*
X28336310Y-19346188D02*
X28479167Y-19298569D01*
X28479167Y-19298569D02*
X28574405Y-19298569D01*
X28574405Y-19298569D02*
X28717262Y-19346188D01*
X28717262Y-19346188D02*
X28764881Y-19393807D01*
X248297180Y-81366666D02*
X249297180Y-81366666D01*
X248916228Y-81366666D02*
X248963847Y-81271428D01*
X248963847Y-81271428D02*
X248963847Y-81080952D01*
X248963847Y-81080952D02*
X248916228Y-80985714D01*
X248916228Y-80985714D02*
X248868609Y-80938095D01*
X248868609Y-80938095D02*
X248773371Y-80890476D01*
X248773371Y-80890476D02*
X248487657Y-80890476D01*
X248487657Y-80890476D02*
X248392419Y-80938095D01*
X248392419Y-80938095D02*
X248344800Y-80985714D01*
X248344800Y-80985714D02*
X248297180Y-81080952D01*
X248297180Y-81080952D02*
X248297180Y-81271428D01*
X248297180Y-81271428D02*
X248344800Y-81366666D01*
X248963847Y-80557142D02*
X248297180Y-80319047D01*
X248963847Y-80080952D02*
X248297180Y-80319047D01*
X248297180Y-80319047D02*
X248059085Y-80414285D01*
X248059085Y-80414285D02*
X248011466Y-80461904D01*
X248011466Y-80461904D02*
X247963847Y-80557142D01*
X248392419Y-78366666D02*
X248344800Y-78414285D01*
X248344800Y-78414285D02*
X248297180Y-78557142D01*
X248297180Y-78557142D02*
X248297180Y-78652380D01*
X248297180Y-78652380D02*
X248344800Y-78795237D01*
X248344800Y-78795237D02*
X248440038Y-78890475D01*
X248440038Y-78890475D02*
X248535276Y-78938094D01*
X248535276Y-78938094D02*
X248725752Y-78985713D01*
X248725752Y-78985713D02*
X248868609Y-78985713D01*
X248868609Y-78985713D02*
X249059085Y-78938094D01*
X249059085Y-78938094D02*
X249154323Y-78890475D01*
X249154323Y-78890475D02*
X249249561Y-78795237D01*
X249249561Y-78795237D02*
X249297180Y-78652380D01*
X249297180Y-78652380D02*
X249297180Y-78557142D01*
X249297180Y-78557142D02*
X249249561Y-78414285D01*
X249249561Y-78414285D02*
X249201942Y-78366666D01*
X248297180Y-77509523D02*
X248820990Y-77509523D01*
X248820990Y-77509523D02*
X248916228Y-77557142D01*
X248916228Y-77557142D02*
X248963847Y-77652380D01*
X248963847Y-77652380D02*
X248963847Y-77842856D01*
X248963847Y-77842856D02*
X248916228Y-77938094D01*
X248344800Y-77509523D02*
X248297180Y-77604761D01*
X248297180Y-77604761D02*
X248297180Y-77842856D01*
X248297180Y-77842856D02*
X248344800Y-77938094D01*
X248344800Y-77938094D02*
X248440038Y-77985713D01*
X248440038Y-77985713D02*
X248535276Y-77985713D01*
X248535276Y-77985713D02*
X248630514Y-77938094D01*
X248630514Y-77938094D02*
X248678133Y-77842856D01*
X248678133Y-77842856D02*
X248678133Y-77604761D01*
X248678133Y-77604761D02*
X248725752Y-77509523D01*
X248297180Y-76890475D02*
X248344800Y-76985713D01*
X248344800Y-76985713D02*
X248440038Y-77033332D01*
X248440038Y-77033332D02*
X249297180Y-77033332D01*
X248963847Y-76604760D02*
X248297180Y-76366665D01*
X248297180Y-76366665D02*
X248963847Y-76128570D01*
X248297180Y-75747617D02*
X248963847Y-75747617D01*
X249297180Y-75747617D02*
X249249561Y-75795236D01*
X249249561Y-75795236D02*
X249201942Y-75747617D01*
X249201942Y-75747617D02*
X249249561Y-75699998D01*
X249249561Y-75699998D02*
X249297180Y-75747617D01*
X249297180Y-75747617D02*
X249201942Y-75747617D01*
X248963847Y-75271427D02*
X248297180Y-75271427D01*
X248868609Y-75271427D02*
X248916228Y-75223808D01*
X248916228Y-75223808D02*
X248963847Y-75128570D01*
X248963847Y-75128570D02*
X248963847Y-74985713D01*
X248963847Y-74985713D02*
X248916228Y-74890475D01*
X248916228Y-74890475D02*
X248820990Y-74842856D01*
X248820990Y-74842856D02*
X248297180Y-74842856D01*
X249297180Y-74176189D02*
X249297180Y-74080951D01*
X249297180Y-74080951D02*
X249249561Y-73985713D01*
X249249561Y-73985713D02*
X249201942Y-73938094D01*
X249201942Y-73938094D02*
X249106704Y-73890475D01*
X249106704Y-73890475D02*
X248916228Y-73842856D01*
X248916228Y-73842856D02*
X248678133Y-73842856D01*
X248678133Y-73842856D02*
X248487657Y-73890475D01*
X248487657Y-73890475D02*
X248392419Y-73938094D01*
X248392419Y-73938094D02*
X248344800Y-73985713D01*
X248344800Y-73985713D02*
X248297180Y-74080951D01*
X248297180Y-74080951D02*
X248297180Y-74176189D01*
X248297180Y-74176189D02*
X248344800Y-74271427D01*
X248344800Y-74271427D02*
X248392419Y-74319046D01*
X248392419Y-74319046D02*
X248487657Y-74366665D01*
X248487657Y-74366665D02*
X248678133Y-74414284D01*
X248678133Y-74414284D02*
X248916228Y-74414284D01*
X248916228Y-74414284D02*
X249106704Y-74366665D01*
X249106704Y-74366665D02*
X249201942Y-74319046D01*
X249201942Y-74319046D02*
X249249561Y-74271427D01*
X249249561Y-74271427D02*
X249297180Y-74176189D01*
X249297180Y-72938094D02*
X249297180Y-73414284D01*
X249297180Y-73414284D02*
X248820990Y-73461903D01*
X248820990Y-73461903D02*
X248868609Y-73414284D01*
X248868609Y-73414284D02*
X248916228Y-73319046D01*
X248916228Y-73319046D02*
X248916228Y-73080951D01*
X248916228Y-73080951D02*
X248868609Y-72985713D01*
X248868609Y-72985713D02*
X248820990Y-72938094D01*
X248820990Y-72938094D02*
X248725752Y-72890475D01*
X248725752Y-72890475D02*
X248487657Y-72890475D01*
X248487657Y-72890475D02*
X248392419Y-72938094D01*
X248392419Y-72938094D02*
X248344800Y-72985713D01*
X248344800Y-72985713D02*
X248297180Y-73080951D01*
X248297180Y-73080951D02*
X248297180Y-73319046D01*
X248297180Y-73319046D02*
X248344800Y-73414284D01*
X248344800Y-73414284D02*
X248392419Y-73461903D01*
X249297180Y-72033332D02*
X249297180Y-72223808D01*
X249297180Y-72223808D02*
X249249561Y-72319046D01*
X249249561Y-72319046D02*
X249201942Y-72366665D01*
X249201942Y-72366665D02*
X249059085Y-72461903D01*
X249059085Y-72461903D02*
X248868609Y-72509522D01*
X248868609Y-72509522D02*
X248487657Y-72509522D01*
X248487657Y-72509522D02*
X248392419Y-72461903D01*
X248392419Y-72461903D02*
X248344800Y-72414284D01*
X248344800Y-72414284D02*
X248297180Y-72319046D01*
X248297180Y-72319046D02*
X248297180Y-72128570D01*
X248297180Y-72128570D02*
X248344800Y-72033332D01*
X248344800Y-72033332D02*
X248392419Y-71985713D01*
X248392419Y-71985713D02*
X248487657Y-71938094D01*
X248487657Y-71938094D02*
X248725752Y-71938094D01*
X248725752Y-71938094D02*
X248820990Y-71985713D01*
X248820990Y-71985713D02*
X248868609Y-72033332D01*
X248868609Y-72033332D02*
X248916228Y-72128570D01*
X248916228Y-72128570D02*
X248916228Y-72319046D01*
X248916228Y-72319046D02*
X248868609Y-72414284D01*
X248868609Y-72414284D02*
X248820990Y-72461903D01*
X248820990Y-72461903D02*
X248725752Y-72509522D01*
X249297180Y-71604760D02*
X249297180Y-70985713D01*
X249297180Y-70985713D02*
X248916228Y-71319046D01*
X248916228Y-71319046D02*
X248916228Y-71176189D01*
X248916228Y-71176189D02*
X248868609Y-71080951D01*
X248868609Y-71080951D02*
X248820990Y-71033332D01*
X248820990Y-71033332D02*
X248725752Y-70985713D01*
X248725752Y-70985713D02*
X248487657Y-70985713D01*
X248487657Y-70985713D02*
X248392419Y-71033332D01*
X248392419Y-71033332D02*
X248344800Y-71080951D01*
X248344800Y-71080951D02*
X248297180Y-71176189D01*
X248297180Y-71176189D02*
X248297180Y-71461903D01*
X248297180Y-71461903D02*
X248344800Y-71557141D01*
X248344800Y-71557141D02*
X248392419Y-71604760D01*
X247353847Y-85152382D02*
X247353847Y-84771430D01*
X246687180Y-85009525D02*
X247544323Y-85009525D01*
X247544323Y-85009525D02*
X247639561Y-84961906D01*
X247639561Y-84961906D02*
X247687180Y-84866668D01*
X247687180Y-84866668D02*
X247687180Y-84771430D01*
X246687180Y-84295239D02*
X246734800Y-84390477D01*
X246734800Y-84390477D02*
X246782419Y-84438096D01*
X246782419Y-84438096D02*
X246877657Y-84485715D01*
X246877657Y-84485715D02*
X247163371Y-84485715D01*
X247163371Y-84485715D02*
X247258609Y-84438096D01*
X247258609Y-84438096D02*
X247306228Y-84390477D01*
X247306228Y-84390477D02*
X247353847Y-84295239D01*
X247353847Y-84295239D02*
X247353847Y-84152382D01*
X247353847Y-84152382D02*
X247306228Y-84057144D01*
X247306228Y-84057144D02*
X247258609Y-84009525D01*
X247258609Y-84009525D02*
X247163371Y-83961906D01*
X247163371Y-83961906D02*
X246877657Y-83961906D01*
X246877657Y-83961906D02*
X246782419Y-84009525D01*
X246782419Y-84009525D02*
X246734800Y-84057144D01*
X246734800Y-84057144D02*
X246687180Y-84152382D01*
X246687180Y-84152382D02*
X246687180Y-84295239D01*
X246687180Y-83533334D02*
X247353847Y-83533334D01*
X247163371Y-83533334D02*
X247258609Y-83485715D01*
X247258609Y-83485715D02*
X247306228Y-83438096D01*
X247306228Y-83438096D02*
X247353847Y-83342858D01*
X247353847Y-83342858D02*
X247353847Y-83247620D01*
X246687180Y-82152381D02*
X247353847Y-82152381D01*
X247258609Y-82152381D02*
X247306228Y-82104762D01*
X247306228Y-82104762D02*
X247353847Y-82009524D01*
X247353847Y-82009524D02*
X247353847Y-81866667D01*
X247353847Y-81866667D02*
X247306228Y-81771429D01*
X247306228Y-81771429D02*
X247210990Y-81723810D01*
X247210990Y-81723810D02*
X246687180Y-81723810D01*
X247210990Y-81723810D02*
X247306228Y-81676191D01*
X247306228Y-81676191D02*
X247353847Y-81580953D01*
X247353847Y-81580953D02*
X247353847Y-81438096D01*
X247353847Y-81438096D02*
X247306228Y-81342857D01*
X247306228Y-81342857D02*
X247210990Y-81295238D01*
X247210990Y-81295238D02*
X246687180Y-81295238D01*
X246734800Y-80438096D02*
X246687180Y-80533334D01*
X246687180Y-80533334D02*
X246687180Y-80723810D01*
X246687180Y-80723810D02*
X246734800Y-80819048D01*
X246734800Y-80819048D02*
X246830038Y-80866667D01*
X246830038Y-80866667D02*
X247210990Y-80866667D01*
X247210990Y-80866667D02*
X247306228Y-80819048D01*
X247306228Y-80819048D02*
X247353847Y-80723810D01*
X247353847Y-80723810D02*
X247353847Y-80533334D01*
X247353847Y-80533334D02*
X247306228Y-80438096D01*
X247306228Y-80438096D02*
X247210990Y-80390477D01*
X247210990Y-80390477D02*
X247115752Y-80390477D01*
X247115752Y-80390477D02*
X247020514Y-80866667D01*
X246734800Y-79533334D02*
X246687180Y-79628572D01*
X246687180Y-79628572D02*
X246687180Y-79819048D01*
X246687180Y-79819048D02*
X246734800Y-79914286D01*
X246734800Y-79914286D02*
X246782419Y-79961905D01*
X246782419Y-79961905D02*
X246877657Y-80009524D01*
X246877657Y-80009524D02*
X247163371Y-80009524D01*
X247163371Y-80009524D02*
X247258609Y-79961905D01*
X247258609Y-79961905D02*
X247306228Y-79914286D01*
X247306228Y-79914286D02*
X247353847Y-79819048D01*
X247353847Y-79819048D02*
X247353847Y-79628572D01*
X247353847Y-79628572D02*
X247306228Y-79533334D01*
X246687180Y-79104762D02*
X247687180Y-79104762D01*
X246687180Y-78676191D02*
X247210990Y-78676191D01*
X247210990Y-78676191D02*
X247306228Y-78723810D01*
X247306228Y-78723810D02*
X247353847Y-78819048D01*
X247353847Y-78819048D02*
X247353847Y-78961905D01*
X247353847Y-78961905D02*
X247306228Y-79057143D01*
X247306228Y-79057143D02*
X247258609Y-79104762D01*
X247353847Y-78295238D02*
X246687180Y-78057143D01*
X246687180Y-78057143D02*
X247353847Y-77819048D01*
X246687180Y-77009524D02*
X247210990Y-77009524D01*
X247210990Y-77009524D02*
X247306228Y-77057143D01*
X247306228Y-77057143D02*
X247353847Y-77152381D01*
X247353847Y-77152381D02*
X247353847Y-77342857D01*
X247353847Y-77342857D02*
X247306228Y-77438095D01*
X246734800Y-77009524D02*
X246687180Y-77104762D01*
X246687180Y-77104762D02*
X246687180Y-77342857D01*
X246687180Y-77342857D02*
X246734800Y-77438095D01*
X246734800Y-77438095D02*
X246830038Y-77485714D01*
X246830038Y-77485714D02*
X246925276Y-77485714D01*
X246925276Y-77485714D02*
X247020514Y-77438095D01*
X247020514Y-77438095D02*
X247068133Y-77342857D01*
X247068133Y-77342857D02*
X247068133Y-77104762D01*
X247068133Y-77104762D02*
X247115752Y-77009524D01*
X247353847Y-76104762D02*
X246687180Y-76104762D01*
X247353847Y-76533333D02*
X246830038Y-76533333D01*
X246830038Y-76533333D02*
X246734800Y-76485714D01*
X246734800Y-76485714D02*
X246687180Y-76390476D01*
X246687180Y-76390476D02*
X246687180Y-76247619D01*
X246687180Y-76247619D02*
X246734800Y-76152381D01*
X246734800Y-76152381D02*
X246782419Y-76104762D01*
X246687180Y-75485714D02*
X246734800Y-75580952D01*
X246734800Y-75580952D02*
X246830038Y-75628571D01*
X246830038Y-75628571D02*
X247687180Y-75628571D01*
X247353847Y-75247618D02*
X247353847Y-74866666D01*
X247687180Y-75104761D02*
X246830038Y-75104761D01*
X246830038Y-75104761D02*
X246734800Y-75057142D01*
X246734800Y-75057142D02*
X246687180Y-74961904D01*
X246687180Y-74961904D02*
X246687180Y-74866666D01*
X247687180Y-74485713D02*
X247496704Y-74580951D01*
X246734800Y-74104761D02*
X246687180Y-74009523D01*
X246687180Y-74009523D02*
X246687180Y-73819047D01*
X246687180Y-73819047D02*
X246734800Y-73723809D01*
X246734800Y-73723809D02*
X246830038Y-73676190D01*
X246830038Y-73676190D02*
X246877657Y-73676190D01*
X246877657Y-73676190D02*
X246972895Y-73723809D01*
X246972895Y-73723809D02*
X247020514Y-73819047D01*
X247020514Y-73819047D02*
X247020514Y-73961904D01*
X247020514Y-73961904D02*
X247068133Y-74057142D01*
X247068133Y-74057142D02*
X247163371Y-74104761D01*
X247163371Y-74104761D02*
X247210990Y-74104761D01*
X247210990Y-74104761D02*
X247306228Y-74057142D01*
X247306228Y-74057142D02*
X247353847Y-73961904D01*
X247353847Y-73961904D02*
X247353847Y-73819047D01*
X247353847Y-73819047D02*
X247306228Y-73723809D01*
X247353847Y-72580951D02*
X246687180Y-72342856D01*
X246687180Y-72342856D02*
X247353847Y-72104761D01*
X246687180Y-71295237D02*
X247210990Y-71295237D01*
X247210990Y-71295237D02*
X247306228Y-71342856D01*
X247306228Y-71342856D02*
X247353847Y-71438094D01*
X247353847Y-71438094D02*
X247353847Y-71628570D01*
X247353847Y-71628570D02*
X247306228Y-71723808D01*
X246734800Y-71295237D02*
X246687180Y-71390475D01*
X246687180Y-71390475D02*
X246687180Y-71628570D01*
X246687180Y-71628570D02*
X246734800Y-71723808D01*
X246734800Y-71723808D02*
X246830038Y-71771427D01*
X246830038Y-71771427D02*
X246925276Y-71771427D01*
X246925276Y-71771427D02*
X247020514Y-71723808D01*
X247020514Y-71723808D02*
X247068133Y-71628570D01*
X247068133Y-71628570D02*
X247068133Y-71390475D01*
X247068133Y-71390475D02*
X247115752Y-71295237D01*
X247353847Y-70390475D02*
X246687180Y-70390475D01*
X247353847Y-70819046D02*
X246830038Y-70819046D01*
X246830038Y-70819046D02*
X246734800Y-70771427D01*
X246734800Y-70771427D02*
X246687180Y-70676189D01*
X246687180Y-70676189D02*
X246687180Y-70533332D01*
X246687180Y-70533332D02*
X246734800Y-70438094D01*
X246734800Y-70438094D02*
X246782419Y-70390475D01*
X246687180Y-69771427D02*
X246734800Y-69866665D01*
X246734800Y-69866665D02*
X246830038Y-69914284D01*
X246830038Y-69914284D02*
X247687180Y-69914284D01*
X247353847Y-69533331D02*
X247353847Y-69152379D01*
X247687180Y-69390474D02*
X246830038Y-69390474D01*
X246830038Y-69390474D02*
X246734800Y-69342855D01*
X246734800Y-69342855D02*
X246687180Y-69247617D01*
X246687180Y-69247617D02*
X246687180Y-69152379D01*
X247687180Y-68914283D02*
X247687180Y-68295236D01*
X247687180Y-68295236D02*
X247306228Y-68628569D01*
X247306228Y-68628569D02*
X247306228Y-68485712D01*
X247306228Y-68485712D02*
X247258609Y-68390474D01*
X247258609Y-68390474D02*
X247210990Y-68342855D01*
X247210990Y-68342855D02*
X247115752Y-68295236D01*
X247115752Y-68295236D02*
X246877657Y-68295236D01*
X246877657Y-68295236D02*
X246782419Y-68342855D01*
X246782419Y-68342855D02*
X246734800Y-68390474D01*
X246734800Y-68390474D02*
X246687180Y-68485712D01*
X246687180Y-68485712D02*
X246687180Y-68771426D01*
X246687180Y-68771426D02*
X246734800Y-68866664D01*
X246734800Y-68866664D02*
X246782419Y-68914283D01*
X247687180Y-67390474D02*
X247687180Y-67866664D01*
X247687180Y-67866664D02*
X247210990Y-67914283D01*
X247210990Y-67914283D02*
X247258609Y-67866664D01*
X247258609Y-67866664D02*
X247306228Y-67771426D01*
X247306228Y-67771426D02*
X247306228Y-67533331D01*
X247306228Y-67533331D02*
X247258609Y-67438093D01*
X247258609Y-67438093D02*
X247210990Y-67390474D01*
X247210990Y-67390474D02*
X247115752Y-67342855D01*
X247115752Y-67342855D02*
X246877657Y-67342855D01*
X246877657Y-67342855D02*
X246782419Y-67390474D01*
X246782419Y-67390474D02*
X246734800Y-67438093D01*
X246734800Y-67438093D02*
X246687180Y-67533331D01*
X246687180Y-67533331D02*
X246687180Y-67771426D01*
X246687180Y-67771426D02*
X246734800Y-67866664D01*
X246734800Y-67866664D02*
X246782419Y-67914283D01*
X245077180Y-84176190D02*
X245743847Y-84176190D01*
X245648609Y-84176190D02*
X245696228Y-84128571D01*
X245696228Y-84128571D02*
X245743847Y-84033333D01*
X245743847Y-84033333D02*
X245743847Y-83890476D01*
X245743847Y-83890476D02*
X245696228Y-83795238D01*
X245696228Y-83795238D02*
X245600990Y-83747619D01*
X245600990Y-83747619D02*
X245077180Y-83747619D01*
X245600990Y-83747619D02*
X245696228Y-83700000D01*
X245696228Y-83700000D02*
X245743847Y-83604762D01*
X245743847Y-83604762D02*
X245743847Y-83461905D01*
X245743847Y-83461905D02*
X245696228Y-83366666D01*
X245696228Y-83366666D02*
X245600990Y-83319047D01*
X245600990Y-83319047D02*
X245077180Y-83319047D01*
X245077180Y-82700000D02*
X245124800Y-82795238D01*
X245124800Y-82795238D02*
X245172419Y-82842857D01*
X245172419Y-82842857D02*
X245267657Y-82890476D01*
X245267657Y-82890476D02*
X245553371Y-82890476D01*
X245553371Y-82890476D02*
X245648609Y-82842857D01*
X245648609Y-82842857D02*
X245696228Y-82795238D01*
X245696228Y-82795238D02*
X245743847Y-82700000D01*
X245743847Y-82700000D02*
X245743847Y-82557143D01*
X245743847Y-82557143D02*
X245696228Y-82461905D01*
X245696228Y-82461905D02*
X245648609Y-82414286D01*
X245648609Y-82414286D02*
X245553371Y-82366667D01*
X245553371Y-82366667D02*
X245267657Y-82366667D01*
X245267657Y-82366667D02*
X245172419Y-82414286D01*
X245172419Y-82414286D02*
X245124800Y-82461905D01*
X245124800Y-82461905D02*
X245077180Y-82557143D01*
X245077180Y-82557143D02*
X245077180Y-82700000D01*
X245077180Y-81509524D02*
X246077180Y-81509524D01*
X245124800Y-81509524D02*
X245077180Y-81604762D01*
X245077180Y-81604762D02*
X245077180Y-81795238D01*
X245077180Y-81795238D02*
X245124800Y-81890476D01*
X245124800Y-81890476D02*
X245172419Y-81938095D01*
X245172419Y-81938095D02*
X245267657Y-81985714D01*
X245267657Y-81985714D02*
X245553371Y-81985714D01*
X245553371Y-81985714D02*
X245648609Y-81938095D01*
X245648609Y-81938095D02*
X245696228Y-81890476D01*
X245696228Y-81890476D02*
X245743847Y-81795238D01*
X245743847Y-81795238D02*
X245743847Y-81604762D01*
X245743847Y-81604762D02*
X245696228Y-81509524D01*
X245077180Y-81033333D02*
X245743847Y-81033333D01*
X246077180Y-81033333D02*
X246029561Y-81080952D01*
X246029561Y-81080952D02*
X245981942Y-81033333D01*
X245981942Y-81033333D02*
X246029561Y-80985714D01*
X246029561Y-80985714D02*
X246077180Y-81033333D01*
X246077180Y-81033333D02*
X245981942Y-81033333D01*
X245743847Y-80700000D02*
X245743847Y-80319048D01*
X245077180Y-80557143D02*
X245934323Y-80557143D01*
X245934323Y-80557143D02*
X246029561Y-80509524D01*
X246029561Y-80509524D02*
X246077180Y-80414286D01*
X246077180Y-80414286D02*
X246077180Y-80319048D01*
X245077180Y-79985714D02*
X245743847Y-79985714D01*
X246077180Y-79985714D02*
X246029561Y-80033333D01*
X246029561Y-80033333D02*
X245981942Y-79985714D01*
X245981942Y-79985714D02*
X246029561Y-79938095D01*
X246029561Y-79938095D02*
X246077180Y-79985714D01*
X246077180Y-79985714D02*
X245981942Y-79985714D01*
X245124800Y-79128572D02*
X245077180Y-79223810D01*
X245077180Y-79223810D02*
X245077180Y-79414286D01*
X245077180Y-79414286D02*
X245124800Y-79509524D01*
X245124800Y-79509524D02*
X245220038Y-79557143D01*
X245220038Y-79557143D02*
X245600990Y-79557143D01*
X245600990Y-79557143D02*
X245696228Y-79509524D01*
X245696228Y-79509524D02*
X245743847Y-79414286D01*
X245743847Y-79414286D02*
X245743847Y-79223810D01*
X245743847Y-79223810D02*
X245696228Y-79128572D01*
X245696228Y-79128572D02*
X245600990Y-79080953D01*
X245600990Y-79080953D02*
X245505752Y-79080953D01*
X245505752Y-79080953D02*
X245410514Y-79557143D01*
X245077180Y-78223810D02*
X246077180Y-78223810D01*
X245124800Y-78223810D02*
X245077180Y-78319048D01*
X245077180Y-78319048D02*
X245077180Y-78509524D01*
X245077180Y-78509524D02*
X245124800Y-78604762D01*
X245124800Y-78604762D02*
X245172419Y-78652381D01*
X245172419Y-78652381D02*
X245267657Y-78700000D01*
X245267657Y-78700000D02*
X245553371Y-78700000D01*
X245553371Y-78700000D02*
X245648609Y-78652381D01*
X245648609Y-78652381D02*
X245696228Y-78604762D01*
X245696228Y-78604762D02*
X245743847Y-78509524D01*
X245743847Y-78509524D02*
X245743847Y-78319048D01*
X245743847Y-78319048D02*
X245696228Y-78223810D01*
X245077180Y-76985714D02*
X246077180Y-76985714D01*
X245696228Y-76985714D02*
X245743847Y-76890476D01*
X245743847Y-76890476D02*
X245743847Y-76700000D01*
X245743847Y-76700000D02*
X245696228Y-76604762D01*
X245696228Y-76604762D02*
X245648609Y-76557143D01*
X245648609Y-76557143D02*
X245553371Y-76509524D01*
X245553371Y-76509524D02*
X245267657Y-76509524D01*
X245267657Y-76509524D02*
X245172419Y-76557143D01*
X245172419Y-76557143D02*
X245124800Y-76604762D01*
X245124800Y-76604762D02*
X245077180Y-76700000D01*
X245077180Y-76700000D02*
X245077180Y-76890476D01*
X245077180Y-76890476D02*
X245124800Y-76985714D01*
X245743847Y-76176190D02*
X245077180Y-75938095D01*
X245743847Y-75700000D02*
X245077180Y-75938095D01*
X245077180Y-75938095D02*
X244839085Y-76033333D01*
X244839085Y-76033333D02*
X244791466Y-76080952D01*
X244791466Y-76080952D02*
X244743847Y-76176190D01*
X245077180Y-74557142D02*
X245743847Y-74557142D01*
X245648609Y-74557142D02*
X245696228Y-74509523D01*
X245696228Y-74509523D02*
X245743847Y-74414285D01*
X245743847Y-74414285D02*
X245743847Y-74271428D01*
X245743847Y-74271428D02*
X245696228Y-74176190D01*
X245696228Y-74176190D02*
X245600990Y-74128571D01*
X245600990Y-74128571D02*
X245077180Y-74128571D01*
X245600990Y-74128571D02*
X245696228Y-74080952D01*
X245696228Y-74080952D02*
X245743847Y-73985714D01*
X245743847Y-73985714D02*
X245743847Y-73842857D01*
X245743847Y-73842857D02*
X245696228Y-73747618D01*
X245696228Y-73747618D02*
X245600990Y-73699999D01*
X245600990Y-73699999D02*
X245077180Y-73699999D01*
X245077180Y-73223809D02*
X245743847Y-73223809D01*
X245553371Y-73223809D02*
X245648609Y-73176190D01*
X245648609Y-73176190D02*
X245696228Y-73128571D01*
X245696228Y-73128571D02*
X245743847Y-73033333D01*
X245743847Y-73033333D02*
X245743847Y-72938095D01*
X245743847Y-72604761D02*
X245077180Y-72604761D01*
X245648609Y-72604761D02*
X245696228Y-72557142D01*
X245696228Y-72557142D02*
X245743847Y-72461904D01*
X245743847Y-72461904D02*
X245743847Y-72319047D01*
X245743847Y-72319047D02*
X245696228Y-72223809D01*
X245696228Y-72223809D02*
X245600990Y-72176190D01*
X245600990Y-72176190D02*
X245077180Y-72176190D01*
X245077180Y-71699999D02*
X245743847Y-71699999D01*
X246077180Y-71699999D02*
X246029561Y-71747618D01*
X246029561Y-71747618D02*
X245981942Y-71699999D01*
X245981942Y-71699999D02*
X246029561Y-71652380D01*
X246029561Y-71652380D02*
X246077180Y-71699999D01*
X246077180Y-71699999D02*
X245981942Y-71699999D01*
X245743847Y-71223809D02*
X245077180Y-71223809D01*
X245648609Y-71223809D02*
X245696228Y-71176190D01*
X245696228Y-71176190D02*
X245743847Y-71080952D01*
X245743847Y-71080952D02*
X245743847Y-70938095D01*
X245743847Y-70938095D02*
X245696228Y-70842857D01*
X245696228Y-70842857D02*
X245600990Y-70795238D01*
X245600990Y-70795238D02*
X245077180Y-70795238D01*
X245077180Y-70319047D02*
X246077180Y-70319047D01*
X245077180Y-69890476D02*
X245600990Y-69890476D01*
X245600990Y-69890476D02*
X245696228Y-69938095D01*
X245696228Y-69938095D02*
X245743847Y-70033333D01*
X245743847Y-70033333D02*
X245743847Y-70176190D01*
X245743847Y-70176190D02*
X245696228Y-70271428D01*
X245696228Y-70271428D02*
X245648609Y-70319047D01*
X245743847Y-69509523D02*
X245077180Y-69271428D01*
X245077180Y-69271428D02*
X245743847Y-69033333D01*
X245743847Y-68652380D02*
X245077180Y-68652380D01*
X245648609Y-68652380D02*
X245696228Y-68604761D01*
X245696228Y-68604761D02*
X245743847Y-68509523D01*
X245743847Y-68509523D02*
X245743847Y-68366666D01*
X245743847Y-68366666D02*
X245696228Y-68271428D01*
X245696228Y-68271428D02*
X245600990Y-68223809D01*
X245600990Y-68223809D02*
X245077180Y-68223809D01*
X182594047Y-118723569D02*
X182594047Y-118056902D01*
X182594047Y-118247378D02*
X182546428Y-118152140D01*
X182546428Y-118152140D02*
X182498809Y-118104521D01*
X182498809Y-118104521D02*
X182403571Y-118056902D01*
X182403571Y-118056902D02*
X182308333Y-118056902D01*
X181594047Y-118675950D02*
X181689285Y-118723569D01*
X181689285Y-118723569D02*
X181879761Y-118723569D01*
X181879761Y-118723569D02*
X181974999Y-118675950D01*
X181974999Y-118675950D02*
X182022618Y-118580711D01*
X182022618Y-118580711D02*
X182022618Y-118199759D01*
X182022618Y-118199759D02*
X181974999Y-118104521D01*
X181974999Y-118104521D02*
X181879761Y-118056902D01*
X181879761Y-118056902D02*
X181689285Y-118056902D01*
X181689285Y-118056902D02*
X181594047Y-118104521D01*
X181594047Y-118104521D02*
X181546428Y-118199759D01*
X181546428Y-118199759D02*
X181546428Y-118294997D01*
X181546428Y-118294997D02*
X182022618Y-118390235D01*
X181165475Y-118675950D02*
X181070237Y-118723569D01*
X181070237Y-118723569D02*
X180879761Y-118723569D01*
X180879761Y-118723569D02*
X180784523Y-118675950D01*
X180784523Y-118675950D02*
X180736904Y-118580711D01*
X180736904Y-118580711D02*
X180736904Y-118533092D01*
X180736904Y-118533092D02*
X180784523Y-118437854D01*
X180784523Y-118437854D02*
X180879761Y-118390235D01*
X180879761Y-118390235D02*
X181022618Y-118390235D01*
X181022618Y-118390235D02*
X181117856Y-118342616D01*
X181117856Y-118342616D02*
X181165475Y-118247378D01*
X181165475Y-118247378D02*
X181165475Y-118199759D01*
X181165475Y-118199759D02*
X181117856Y-118104521D01*
X181117856Y-118104521D02*
X181022618Y-118056902D01*
X181022618Y-118056902D02*
X180879761Y-118056902D01*
X180879761Y-118056902D02*
X180784523Y-118104521D01*
X179927380Y-118675950D02*
X180022618Y-118723569D01*
X180022618Y-118723569D02*
X180213094Y-118723569D01*
X180213094Y-118723569D02*
X180308332Y-118675950D01*
X180308332Y-118675950D02*
X180355951Y-118580711D01*
X180355951Y-118580711D02*
X180355951Y-118199759D01*
X180355951Y-118199759D02*
X180308332Y-118104521D01*
X180308332Y-118104521D02*
X180213094Y-118056902D01*
X180213094Y-118056902D02*
X180022618Y-118056902D01*
X180022618Y-118056902D02*
X179927380Y-118104521D01*
X179927380Y-118104521D02*
X179879761Y-118199759D01*
X179879761Y-118199759D02*
X179879761Y-118294997D01*
X179879761Y-118294997D02*
X180355951Y-118390235D01*
X179594046Y-118056902D02*
X179213094Y-118056902D01*
X179451189Y-117723569D02*
X179451189Y-118580711D01*
X179451189Y-118580711D02*
X179403570Y-118675950D01*
X179403570Y-118675950D02*
X179308332Y-118723569D01*
X179308332Y-118723569D02*
X179213094Y-118723569D01*
D11*
G04 #@! TO.C,Y1*
X152616000Y-117945000D02*
X152616000Y-117545000D01*
X152616000Y-119945000D02*
X152616000Y-117945000D01*
X152816000Y-117945000D02*
X152816000Y-117545000D01*
X152816000Y-117945000D02*
X152816000Y-119945000D01*
X152816000Y-119945000D02*
X153816000Y-119945000D01*
X153816000Y-117545000D02*
X152816000Y-117545000D01*
X153816000Y-117545000D02*
X153816000Y-117145000D01*
X155616000Y-119945000D02*
X156416000Y-119945000D01*
X156416000Y-117545000D02*
X155616000Y-117545000D01*
X156416000Y-117945000D02*
X156416000Y-117545000D01*
X156416000Y-119945000D02*
X156416000Y-117945000D01*
G04 #@! TO.C,C7*
X147611836Y-108691000D02*
X147396164Y-108691000D01*
X147611836Y-107971000D02*
X147396164Y-107971000D01*
G04 #@! TO.C,C12*
X202981600Y-104174305D02*
X203197272Y-104174305D01*
X202981600Y-104894305D02*
X203197272Y-104894305D01*
G04 #@! TO.C,C15*
X149391000Y-117912164D02*
X149391000Y-118127836D01*
X148671000Y-117912164D02*
X148671000Y-118127836D01*
G04 #@! TO.C,U5*
X144374097Y-113655501D02*
X142424097Y-113655501D01*
X144374097Y-113655501D02*
X146324097Y-113655501D01*
X144374097Y-118775501D02*
X140924097Y-118775501D01*
X144374097Y-118775501D02*
X146324097Y-118775501D01*
G04 #@! TO.C,R7*
X147122000Y-110463359D02*
X147122000Y-110770641D01*
X146362000Y-110463359D02*
X146362000Y-110770641D01*
G04 #@! TO.C,R11*
X98045000Y-101753641D02*
X98045000Y-101446359D01*
X98805000Y-101753641D02*
X98805000Y-101446359D01*
G04 #@! TO.C,R2*
X151891000Y-106233359D02*
X151891000Y-106540641D01*
X151131000Y-106233359D02*
X151131000Y-106540641D01*
G04 #@! TO.C,C9*
X157683164Y-115303994D02*
X157898836Y-115303994D01*
X157683164Y-116023994D02*
X157898836Y-116023994D01*
G04 #@! TO.C,R4*
X152881359Y-105538000D02*
X153188641Y-105538000D01*
X152881359Y-106298000D02*
X153188641Y-106298000D01*
G04 #@! TO.C,U1*
X149044000Y-116513000D02*
X149519000Y-116513000D01*
X149044000Y-116038000D02*
X149044000Y-116513000D01*
X156264000Y-116038000D02*
X156264000Y-116513000D01*
X149044000Y-109768000D02*
X149044000Y-109293000D01*
X156264000Y-109768000D02*
X156264000Y-109293000D01*
X149044000Y-109293000D02*
X149519000Y-109293000D01*
X156264000Y-109293000D02*
X155789000Y-109293000D01*
G04 #@! TO.C,R12*
X157576250Y-101753641D02*
X157576250Y-101446359D01*
X158336250Y-101753641D02*
X158336250Y-101446359D01*
G04 #@! TO.C,R15*
X68708000Y-100166141D02*
X68708000Y-99858859D01*
X69468000Y-100166141D02*
X69468000Y-99858859D01*
G04 #@! TO.C,C11*
X151423000Y-117912164D02*
X151423000Y-118127836D01*
X150703000Y-117912164D02*
X150703000Y-118127836D01*
G04 #@! TO.C,R13*
X75948789Y-107536250D02*
X75641507Y-107536250D01*
X75948789Y-106776250D02*
X75641507Y-106776250D01*
G04 #@! TO.C,C8*
X157683164Y-109114000D02*
X157898836Y-109114000D01*
X157683164Y-109834000D02*
X157898836Y-109834000D01*
G04 #@! TO.C,R10*
X174245000Y-101753641D02*
X174245000Y-101446359D01*
X175005000Y-101753641D02*
X175005000Y-101446359D01*
D12*
G04 #@! TO.C,U3*
X209611610Y-105280000D02*
X207781250Y-105280000D01*
X207781250Y-105280000D02*
X207781250Y-110620000D01*
X203381970Y-105280000D02*
X207781250Y-105280000D01*
X209611610Y-105678780D02*
X209611610Y-105280000D01*
D13*
X203381610Y-110434120D02*
X203381610Y-110449360D01*
D12*
X207781250Y-110620000D02*
X203381970Y-110620000D01*
X203381970Y-110620000D02*
X203381970Y-105280000D01*
D11*
G04 #@! TO.C,R1*
X148083000Y-106540641D02*
X148083000Y-106233359D01*
X148843000Y-106540641D02*
X148843000Y-106233359D01*
G04 #@! TO.C,R16*
X234536250Y-99733746D02*
X234536250Y-100041028D01*
X233776250Y-99733746D02*
X233776250Y-100041028D01*
G04 #@! TO.C,G\u002A\u002A\u002A*
G36*
X250795012Y-66056162D02*
G01*
X250947127Y-66154395D01*
X251040532Y-66294819D01*
X251048991Y-66452437D01*
X250964929Y-66616284D01*
X250888103Y-66688060D01*
X250738916Y-66743494D01*
X250581692Y-66728483D01*
X250442871Y-66647760D01*
X250348898Y-66506055D01*
X250324319Y-66420106D01*
X250333034Y-66341124D01*
X250384019Y-66229755D01*
X250487751Y-66103160D01*
X250634361Y-66040091D01*
X250795012Y-66056162D01*
G37*
G36*
X250656505Y-75596865D02*
G01*
X250789218Y-75617725D01*
X250868020Y-75652385D01*
X250885797Y-75663170D01*
X250965264Y-75682151D01*
X251108699Y-75697395D01*
X251323408Y-75709377D01*
X251616697Y-75718569D01*
X251995873Y-75725444D01*
X253065559Y-75740246D01*
X253065559Y-76133242D01*
X253065559Y-76526239D01*
X252835282Y-76526239D01*
X252755873Y-76523491D01*
X252635928Y-76506674D01*
X252576202Y-76479633D01*
X252555847Y-76469784D01*
X252452113Y-76454507D01*
X252270616Y-76442931D01*
X252021273Y-76435593D01*
X251714000Y-76433028D01*
X251537385Y-76433826D01*
X251260945Y-76439099D01*
X251047923Y-76448848D01*
X250908235Y-76462538D01*
X250851798Y-76479633D01*
X250828503Y-76495361D01*
X250731708Y-76517533D01*
X250592717Y-76526239D01*
X250362440Y-76526239D01*
X250362440Y-76060184D01*
X250362440Y-75594129D01*
X250586146Y-75594129D01*
X250656505Y-75596865D01*
G37*
G36*
X250717853Y-67162292D02*
G01*
X250839237Y-67179213D01*
X250898403Y-67205138D01*
X250899435Y-67206391D01*
X250961984Y-67221912D01*
X251110068Y-67234510D01*
X251336572Y-67243883D01*
X251634382Y-67249728D01*
X251996383Y-67251743D01*
X253065559Y-67251743D01*
X253065559Y-67717798D01*
X253065559Y-68183853D01*
X252835282Y-68183853D01*
X252755873Y-68181106D01*
X252635928Y-68164289D01*
X252576202Y-68137248D01*
X252559028Y-68128245D01*
X252459917Y-68112652D01*
X252283064Y-68100805D01*
X252038763Y-68093278D01*
X251737302Y-68090642D01*
X251580411Y-68091310D01*
X251306179Y-68096458D01*
X251094240Y-68106211D01*
X250954884Y-68119998D01*
X250898403Y-68137248D01*
X250866643Y-68155537D01*
X250761977Y-68175924D01*
X250616020Y-68183853D01*
X250362440Y-68183853D01*
X250362440Y-67671193D01*
X250362440Y-67158532D01*
X250616020Y-67158532D01*
X250717853Y-67162292D01*
G37*
G36*
X252164545Y-84915556D02*
G01*
X252302628Y-84920353D01*
X252377035Y-84935627D01*
X252407331Y-84967320D01*
X252413082Y-85021373D01*
X252393256Y-85119940D01*
X252334415Y-85239830D01*
X252331617Y-85243849D01*
X252286937Y-85331242D01*
X252311113Y-85370597D01*
X252338098Y-85410423D01*
X252359340Y-85541793D01*
X252366477Y-85762152D01*
X252366477Y-86135252D01*
X252075192Y-86104635D01*
X252042437Y-86101433D01*
X251839912Y-86087503D01*
X251598817Y-86077714D01*
X251364458Y-86074018D01*
X251319001Y-86074185D01*
X251079555Y-86079295D01*
X250842694Y-86090095D01*
X250653724Y-86104635D01*
X250362440Y-86135252D01*
X250362440Y-85688360D01*
X250362440Y-85241468D01*
X250565004Y-85241468D01*
X250599115Y-85242425D01*
X250771208Y-85267773D01*
X250918598Y-85316811D01*
X251090655Y-85368537D01*
X251322754Y-85371163D01*
X251429286Y-85357639D01*
X251592167Y-85301204D01*
X251683095Y-85199384D01*
X251712517Y-85043395D01*
X251714000Y-84915229D01*
X252063541Y-84915229D01*
X252164545Y-84915556D01*
G37*
G36*
X253112165Y-87525138D02*
G01*
X253112165Y-88690275D01*
X252506293Y-88690275D01*
X251900422Y-88690275D01*
X251900422Y-88387340D01*
X251900422Y-88084404D01*
X252203357Y-88084404D01*
X252272109Y-88083892D01*
X252413804Y-88075503D01*
X252486069Y-88053708D01*
X252506293Y-88014496D01*
X252495212Y-87989419D01*
X252452296Y-87970383D01*
X252365260Y-87957468D01*
X252221836Y-87949588D01*
X252009756Y-87945656D01*
X251716750Y-87944587D01*
X251577050Y-87945146D01*
X251304886Y-87950174D01*
X251093962Y-87959928D01*
X250954921Y-87973803D01*
X250898403Y-87991193D01*
X250866643Y-88009482D01*
X250761977Y-88029869D01*
X250616020Y-88037798D01*
X250362440Y-88037798D01*
X250362440Y-87525138D01*
X250362440Y-87012477D01*
X250616020Y-87012477D01*
X250717853Y-87016237D01*
X250839237Y-87033158D01*
X250898403Y-87059083D01*
X250901447Y-87062319D01*
X250968355Y-87080900D01*
X251103669Y-87094671D01*
X251289438Y-87103764D01*
X251507714Y-87108310D01*
X251740546Y-87108439D01*
X251969986Y-87104284D01*
X252178083Y-87095975D01*
X252346889Y-87083642D01*
X252458453Y-87067417D01*
X252494827Y-87047431D01*
X252470184Y-87023867D01*
X252363630Y-86992974D01*
X252188007Y-86975299D01*
X251900422Y-86961424D01*
X251900422Y-86660712D01*
X251900422Y-86360000D01*
X252506293Y-86360000D01*
X253112165Y-86360000D01*
X253112165Y-87525138D01*
G37*
G36*
X252366477Y-81326606D02*
G01*
X252366477Y-81746055D01*
X252142770Y-81746055D01*
X252072013Y-81743474D01*
X251941149Y-81724114D01*
X251865029Y-81692020D01*
X251857843Y-81685707D01*
X251795405Y-81666690D01*
X251683319Y-81678076D01*
X251502904Y-81721382D01*
X251491271Y-81724562D01*
X251347163Y-81770191D01*
X251254558Y-81811176D01*
X251233031Y-81838988D01*
X251266696Y-81861305D01*
X251401278Y-81906856D01*
X251591053Y-81938745D01*
X251809515Y-81953377D01*
X252030160Y-81947154D01*
X252366477Y-81918958D01*
X252366477Y-82368470D01*
X252366477Y-82817982D01*
X252142770Y-82817982D01*
X252071120Y-82815945D01*
X251944615Y-82801222D01*
X251874789Y-82776946D01*
X251852786Y-82765150D01*
X251752150Y-82727442D01*
X251587335Y-82673278D01*
X251374907Y-82608005D01*
X251131431Y-82536970D01*
X250992461Y-82497242D01*
X250765970Y-82431650D01*
X250580465Y-82376850D01*
X250452192Y-82337667D01*
X250397394Y-82318925D01*
X250389230Y-82302533D01*
X250375475Y-82211205D01*
X250365981Y-82059615D01*
X250362440Y-81869525D01*
X250362440Y-81439229D01*
X251049871Y-81238261D01*
X251168345Y-81203116D01*
X251405993Y-81129485D01*
X251609622Y-81062293D01*
X251760658Y-81007789D01*
X251840525Y-80972224D01*
X251870277Y-80957118D01*
X252000777Y-80921425D01*
X252155112Y-80907156D01*
X252366477Y-80907156D01*
X252366477Y-81326606D01*
G37*
G36*
X252366477Y-68836330D02*
G01*
X252366477Y-69255780D01*
X252142770Y-69255780D01*
X252072013Y-69253199D01*
X251941149Y-69233838D01*
X251865029Y-69201745D01*
X251857843Y-69195432D01*
X251795405Y-69176415D01*
X251683319Y-69187801D01*
X251502904Y-69231106D01*
X251491271Y-69234287D01*
X251347163Y-69279916D01*
X251254558Y-69320901D01*
X251233031Y-69348713D01*
X251266696Y-69371030D01*
X251401278Y-69416581D01*
X251591053Y-69448470D01*
X251809515Y-69463101D01*
X252030160Y-69456878D01*
X252366477Y-69428683D01*
X252366477Y-69878195D01*
X252366477Y-70327707D01*
X252142770Y-70327707D01*
X252071120Y-70325670D01*
X251944615Y-70310946D01*
X251874789Y-70286671D01*
X251852786Y-70274874D01*
X251752150Y-70237167D01*
X251587335Y-70183003D01*
X251374907Y-70117730D01*
X251131431Y-70046695D01*
X250992461Y-70006967D01*
X250765970Y-69941375D01*
X250580465Y-69886575D01*
X250452192Y-69847391D01*
X250397394Y-69828650D01*
X250389230Y-69812258D01*
X250375475Y-69720930D01*
X250365981Y-69569340D01*
X250362440Y-69379249D01*
X250362440Y-68948954D01*
X251049871Y-68747986D01*
X251168345Y-68712841D01*
X251405993Y-68639210D01*
X251609622Y-68572017D01*
X251760658Y-68517514D01*
X251840525Y-68481949D01*
X251870277Y-68466843D01*
X252000777Y-68431150D01*
X252155112Y-68416881D01*
X252366477Y-68416881D01*
X252366477Y-68836330D01*
G37*
G36*
X252248524Y-74383955D02*
G01*
X252330083Y-74398161D01*
X252361386Y-74439434D01*
X252366477Y-74522202D01*
X252366477Y-74662018D01*
X252646110Y-74662018D01*
X252773339Y-74665866D01*
X252883661Y-74678532D01*
X252926340Y-74696973D01*
X252926185Y-74700297D01*
X252913981Y-74770133D01*
X252886109Y-74901770D01*
X252847910Y-75069817D01*
X252768883Y-75407707D01*
X252567680Y-75407707D01*
X252512692Y-75409487D01*
X252408026Y-75426033D01*
X252366477Y-75454312D01*
X252350751Y-75471100D01*
X252266378Y-75492534D01*
X252133449Y-75500918D01*
X252049533Y-75498083D01*
X251942345Y-75482864D01*
X251900422Y-75458885D01*
X251897490Y-75454734D01*
X251832866Y-75438169D01*
X251696392Y-75422570D01*
X251505114Y-75409526D01*
X251276078Y-75400628D01*
X251162793Y-75397474D01*
X250935887Y-75388502D01*
X250778164Y-75375973D01*
X250672434Y-75357301D01*
X250601507Y-75329903D01*
X250548191Y-75291193D01*
X250469689Y-75205554D01*
X250406499Y-75104771D01*
X250405929Y-75103360D01*
X250379200Y-74980063D01*
X250367263Y-74807884D01*
X250371131Y-74629415D01*
X250391815Y-74487248D01*
X250423430Y-74421600D01*
X250491687Y-74390062D01*
X250624206Y-74382385D01*
X250693743Y-74384204D01*
X250797062Y-74404139D01*
X250828495Y-74449651D01*
X250828822Y-74460044D01*
X250871237Y-74550987D01*
X250988460Y-74613817D01*
X251185669Y-74650255D01*
X251468039Y-74662018D01*
X251900422Y-74662018D01*
X251900422Y-74522202D01*
X251903038Y-74453157D01*
X251926714Y-74404222D01*
X251995503Y-74385440D01*
X252133449Y-74382385D01*
X252248524Y-74383955D01*
G37*
G36*
X250630422Y-76781560D02*
G01*
X250680445Y-76786587D01*
X250854926Y-76799480D01*
X251087990Y-76812658D01*
X251355281Y-76824830D01*
X251632440Y-76834704D01*
X252366477Y-76856928D01*
X252366477Y-77274152D01*
X252366477Y-77691376D01*
X252136200Y-77691376D01*
X252056791Y-77688629D01*
X251936846Y-77671812D01*
X251877119Y-77644771D01*
X251848494Y-77631116D01*
X251740525Y-77613982D01*
X251571784Y-77602412D01*
X251361708Y-77598165D01*
X251234188Y-77598297D01*
X251060511Y-77600738D01*
X250954416Y-77609253D01*
X250899251Y-77627641D01*
X250878363Y-77659704D01*
X250875101Y-77709243D01*
X250875451Y-77724414D01*
X250889119Y-77782289D01*
X250932041Y-77823513D01*
X251017001Y-77850850D01*
X251156781Y-77867061D01*
X251364163Y-77874911D01*
X251651931Y-77877162D01*
X251877005Y-77879621D01*
X252073596Y-77885898D01*
X252219220Y-77895038D01*
X252292757Y-77906087D01*
X252325895Y-77932014D01*
X252350527Y-77999838D01*
X252363011Y-78125077D01*
X252366477Y-78325537D01*
X252366477Y-78716697D01*
X252136200Y-78716697D01*
X252056791Y-78713950D01*
X251936846Y-78697133D01*
X251877119Y-78670092D01*
X251838303Y-78654247D01*
X251719506Y-78638115D01*
X251538817Y-78627383D01*
X251313605Y-78623486D01*
X251044721Y-78617832D01*
X250786039Y-78593630D01*
X250600930Y-78547870D01*
X250479352Y-78477853D01*
X250411264Y-78380878D01*
X250380520Y-78252193D01*
X250366982Y-78062052D01*
X250376027Y-77868504D01*
X250407892Y-77717713D01*
X250429814Y-77635238D01*
X250407892Y-77598165D01*
X250398946Y-77590886D01*
X250379917Y-77514848D01*
X250367122Y-77370184D01*
X250362440Y-77174402D01*
X250362440Y-76750640D01*
X250630422Y-76781560D01*
G37*
G36*
X252359122Y-63722357D02*
G01*
X252529626Y-63744300D01*
X252660031Y-63780521D01*
X252764685Y-63833131D01*
X252857938Y-63904245D01*
X252994604Y-64073881D01*
X253093893Y-64312093D01*
X253143291Y-64585678D01*
X253142964Y-64872235D01*
X253093082Y-65149363D01*
X252993813Y-65394662D01*
X252845324Y-65585731D01*
X252792771Y-65622777D01*
X252612083Y-65688979D01*
X252346244Y-65732616D01*
X251999022Y-65753203D01*
X251574183Y-65750250D01*
X251495205Y-65747039D01*
X251410467Y-65743594D01*
X251105519Y-65718470D01*
X250874316Y-65673769D01*
X250703775Y-65602840D01*
X250580814Y-65499032D01*
X250492349Y-65355694D01*
X250425300Y-65166175D01*
X250405691Y-65082705D01*
X250378908Y-64827452D01*
X250381670Y-64735046D01*
X250921706Y-64735046D01*
X250921714Y-64738649D01*
X250927680Y-64805298D01*
X250953120Y-64853861D01*
X251010312Y-64886800D01*
X251111537Y-64906577D01*
X251269075Y-64915652D01*
X251495205Y-64916487D01*
X251802207Y-64911544D01*
X251963333Y-64907945D01*
X252185803Y-64900240D01*
X252338274Y-64889207D01*
X252435613Y-64872894D01*
X252492684Y-64849345D01*
X252524354Y-64816606D01*
X252550795Y-64753822D01*
X252524354Y-64653486D01*
X252508825Y-64633861D01*
X252464726Y-64606521D01*
X252386881Y-64587275D01*
X252260423Y-64574166D01*
X252070488Y-64565242D01*
X251802207Y-64558548D01*
X251717937Y-64557084D01*
X251475482Y-64555320D01*
X251266076Y-64557282D01*
X251109757Y-64562645D01*
X251026569Y-64571087D01*
X251014346Y-64574400D01*
X250941875Y-64625431D01*
X250921706Y-64735046D01*
X250381670Y-64735046D01*
X250387118Y-64552747D01*
X250427857Y-64294749D01*
X250498659Y-64089620D01*
X250538740Y-64016522D01*
X250615874Y-63911846D01*
X250712800Y-63835775D01*
X250844188Y-63783320D01*
X251024707Y-63749490D01*
X251269028Y-63729294D01*
X251591818Y-63717742D01*
X251840418Y-63712844D01*
X252134169Y-63712576D01*
X252359122Y-63722357D01*
G37*
G36*
X250630422Y-82931920D02*
G01*
X250751811Y-82943719D01*
X250961412Y-82961216D01*
X251207187Y-82979612D01*
X251457669Y-82996451D01*
X251674929Y-83012606D01*
X251873646Y-83032269D01*
X252022743Y-83052357D01*
X252100480Y-83070370D01*
X252108029Y-83074195D01*
X252198514Y-83163034D01*
X252285582Y-83314898D01*
X252356344Y-83502556D01*
X252397909Y-83698774D01*
X252403679Y-83774563D01*
X252389428Y-84040962D01*
X252333374Y-84322388D01*
X252243747Y-84572204D01*
X252203988Y-84648510D01*
X252150923Y-84702946D01*
X252065938Y-84724799D01*
X251918414Y-84728807D01*
X251667394Y-84728807D01*
X251667394Y-84382362D01*
X251667848Y-84253410D01*
X251673600Y-84127951D01*
X251691933Y-84061150D01*
X251730151Y-84032418D01*
X251795559Y-84021169D01*
X251824000Y-84017122D01*
X251903232Y-83979541D01*
X251923724Y-83889908D01*
X251921471Y-83846866D01*
X251887710Y-83787627D01*
X251791179Y-83773395D01*
X251757839Y-83774298D01*
X251698501Y-83789668D01*
X251653079Y-83838701D01*
X251608371Y-83940041D01*
X251551172Y-84112335D01*
X251546822Y-84125959D01*
X251483487Y-84307499D01*
X251419716Y-84465021D01*
X251368691Y-84565769D01*
X251244978Y-84697664D01*
X251064701Y-84785629D01*
X250948623Y-84797515D01*
X250866050Y-84805970D01*
X250671424Y-84760623D01*
X250503221Y-84651524D01*
X250383838Y-84480611D01*
X250331165Y-84317828D01*
X250331386Y-84123341D01*
X250379770Y-83992424D01*
X250882879Y-83992424D01*
X250948623Y-84060863D01*
X251022697Y-84060789D01*
X251110628Y-83989878D01*
X251176175Y-83854954D01*
X251188214Y-83800403D01*
X251164283Y-83759080D01*
X251069650Y-83750092D01*
X250970520Y-83766763D01*
X250903390Y-83823812D01*
X250888380Y-83868837D01*
X250882879Y-83992424D01*
X250379770Y-83992424D01*
X250409046Y-83913211D01*
X250412556Y-83906328D01*
X250473322Y-83785359D01*
X250495285Y-83725552D01*
X250480831Y-83705422D01*
X250432348Y-83703486D01*
X250431969Y-83703485D01*
X250397313Y-83686357D01*
X250376056Y-83624692D01*
X250365373Y-83502309D01*
X250362440Y-83303026D01*
X250362440Y-82902566D01*
X250630422Y-82931920D01*
G37*
G36*
X250630422Y-78923846D02*
G01*
X250751811Y-78935646D01*
X250961412Y-78953142D01*
X251207187Y-78971538D01*
X251457669Y-78988378D01*
X251674929Y-79004533D01*
X251873646Y-79024196D01*
X252022743Y-79044284D01*
X252100480Y-79062297D01*
X252108029Y-79066122D01*
X252198514Y-79154960D01*
X252285582Y-79306825D01*
X252356344Y-79494482D01*
X252397909Y-79690701D01*
X252403679Y-79766490D01*
X252389428Y-80032889D01*
X252333374Y-80314315D01*
X252243747Y-80564131D01*
X252203988Y-80640437D01*
X252150923Y-80694873D01*
X252065938Y-80716725D01*
X251918414Y-80720734D01*
X251667394Y-80720734D01*
X251667394Y-80374288D01*
X251667848Y-80245336D01*
X251673600Y-80119877D01*
X251691933Y-80053076D01*
X251730151Y-80024345D01*
X251795559Y-80013096D01*
X251824000Y-80009049D01*
X251903232Y-79971467D01*
X251923724Y-79881835D01*
X251921471Y-79838792D01*
X251887710Y-79779553D01*
X251791179Y-79765321D01*
X251757839Y-79766225D01*
X251698501Y-79781595D01*
X251653079Y-79830627D01*
X251608371Y-79931967D01*
X251551172Y-80104261D01*
X251546822Y-80117886D01*
X251483487Y-80299426D01*
X251419716Y-80456948D01*
X251368691Y-80557695D01*
X251244978Y-80689591D01*
X251064701Y-80777556D01*
X250948623Y-80789442D01*
X250866050Y-80797897D01*
X250671424Y-80752550D01*
X250503221Y-80643451D01*
X250383838Y-80472538D01*
X250331165Y-80309754D01*
X250331386Y-80115268D01*
X250379770Y-79984351D01*
X250882879Y-79984351D01*
X250948623Y-80052790D01*
X251022697Y-80052715D01*
X251110628Y-79981805D01*
X251176175Y-79846881D01*
X251188214Y-79792330D01*
X251164283Y-79751006D01*
X251069650Y-79742018D01*
X250970520Y-79758690D01*
X250903390Y-79815738D01*
X250888380Y-79860763D01*
X250882879Y-79984351D01*
X250379770Y-79984351D01*
X250409046Y-79905138D01*
X250412556Y-79898254D01*
X250473322Y-79777286D01*
X250495285Y-79717479D01*
X250480831Y-79697349D01*
X250432348Y-79695413D01*
X250431969Y-79695412D01*
X250397313Y-79678284D01*
X250376056Y-79616619D01*
X250365373Y-79494236D01*
X250362440Y-79294953D01*
X250362440Y-78894493D01*
X250630422Y-78923846D01*
G37*
G36*
X250630422Y-72352470D02*
G01*
X250751811Y-72364269D01*
X250961412Y-72381766D01*
X251207187Y-72400162D01*
X251457669Y-72417002D01*
X251674929Y-72433157D01*
X251873646Y-72452820D01*
X252022743Y-72472908D01*
X252100480Y-72490921D01*
X252108029Y-72494745D01*
X252198514Y-72583584D01*
X252285582Y-72735449D01*
X252356344Y-72923106D01*
X252397909Y-73119325D01*
X252403679Y-73195114D01*
X252389428Y-73461512D01*
X252333374Y-73742939D01*
X252243747Y-73992755D01*
X252203988Y-74069061D01*
X252150923Y-74123497D01*
X252065938Y-74145349D01*
X251918414Y-74149358D01*
X251667394Y-74149358D01*
X251667394Y-73802912D01*
X251667848Y-73673960D01*
X251673600Y-73548501D01*
X251691933Y-73481700D01*
X251730151Y-73452969D01*
X251795559Y-73441720D01*
X251824000Y-73437673D01*
X251903232Y-73400091D01*
X251923724Y-73310459D01*
X251921471Y-73267416D01*
X251887710Y-73208177D01*
X251791179Y-73193945D01*
X251757839Y-73194848D01*
X251698501Y-73210219D01*
X251653079Y-73259251D01*
X251608371Y-73360591D01*
X251551172Y-73532885D01*
X251546822Y-73546510D01*
X251483487Y-73728050D01*
X251419716Y-73885572D01*
X251368691Y-73986319D01*
X251244978Y-74118214D01*
X251064701Y-74206180D01*
X250948623Y-74218066D01*
X250866050Y-74226521D01*
X250671424Y-74181173D01*
X250503221Y-74072075D01*
X250383838Y-73901161D01*
X250331165Y-73738378D01*
X250331386Y-73543892D01*
X250379770Y-73412975D01*
X250882879Y-73412975D01*
X250948623Y-73481414D01*
X251022697Y-73481339D01*
X251110628Y-73410429D01*
X251176175Y-73275505D01*
X251188214Y-73220954D01*
X251164283Y-73179630D01*
X251069650Y-73170642D01*
X250970520Y-73187314D01*
X250903390Y-73244362D01*
X250888380Y-73289387D01*
X250882879Y-73412975D01*
X250379770Y-73412975D01*
X250409046Y-73333762D01*
X250412556Y-73326878D01*
X250473322Y-73205910D01*
X250495285Y-73146103D01*
X250480831Y-73125973D01*
X250432348Y-73124037D01*
X250431969Y-73124036D01*
X250397313Y-73106908D01*
X250376056Y-73045243D01*
X250365373Y-72922859D01*
X250362440Y-72723577D01*
X250362440Y-72323117D01*
X250630422Y-72352470D01*
G37*
G04 #@! TO.C,C14*
X140760336Y-113072500D02*
X140544664Y-113072500D01*
X140760336Y-112352500D02*
X140544664Y-112352500D01*
G04 #@! TO.C,R9*
X149099000Y-106540641D02*
X149099000Y-106233359D01*
X149859000Y-106540641D02*
X149859000Y-106233359D01*
G04 #@! TO.C,C13*
X89007836Y-104845820D02*
X88792164Y-104845820D01*
X89007836Y-104125820D02*
X88792164Y-104125820D01*
G04 #@! TO.C,R21*
X146689046Y-119010501D02*
X146996328Y-119010501D01*
X146689046Y-119770501D02*
X146996328Y-119770501D01*
G04 #@! TO.C,C5*
X127148000Y-69957836D02*
X127148000Y-69742164D01*
X127868000Y-69957836D02*
X127868000Y-69742164D01*
G04 #@! TO.C,R20*
X193295000Y-101753641D02*
X193295000Y-101446359D01*
X194055000Y-101753641D02*
X194055000Y-101446359D01*
G04 #@! TO.C,R23*
X142235953Y-119770501D02*
X141928671Y-119770501D01*
X142235953Y-119010501D02*
X141928671Y-119010501D01*
G04 #@! TO.C,R14*
X208928088Y-111914806D02*
X208928088Y-112222088D01*
X208168088Y-111914806D02*
X208168088Y-112222088D01*
G04 #@! TO.C,R6*
X150525359Y-119127000D02*
X150832641Y-119127000D01*
X150525359Y-119887000D02*
X150832641Y-119887000D01*
G04 #@! TO.C,F_USBC1*
X91472936Y-67543000D02*
X92677064Y-67543000D01*
X91472936Y-69363000D02*
X92677064Y-69363000D01*
G04 #@! TO.C,J1*
X85234065Y-69984690D02*
X87734065Y-69984690D01*
X87734065Y-69984690D02*
X87734065Y-68934690D01*
X87734065Y-68934690D02*
X88724065Y-68934690D01*
X83264065Y-68814690D02*
X83264065Y-64934690D01*
X85234065Y-63764690D02*
X87734065Y-63764690D01*
X87734065Y-63764690D02*
X87734065Y-64814690D01*
G04 #@! TO.C,D1*
X84343000Y-62139000D02*
X83043000Y-62139000D01*
X83043000Y-59019000D02*
X85043000Y-59019000D01*
G04 #@! TO.C,R18*
X80900000Y-55999891D02*
X80900000Y-55692609D01*
X81660000Y-55999891D02*
X81660000Y-55692609D01*
G04 #@! TO.C,R3*
X157790000Y-114019359D02*
X157790000Y-114326641D01*
X157030000Y-114019359D02*
X157030000Y-114326641D01*
G04 #@! TO.C,R8*
X150875000Y-106233359D02*
X150875000Y-106540641D01*
X150115000Y-106233359D02*
X150115000Y-106540641D01*
G04 #@! TO.C,R5*
X222503244Y-106784145D02*
X222810526Y-106784145D01*
X222503244Y-107544145D02*
X222810526Y-107544145D01*
G04 #@! TO.C,C1*
X147525000Y-110724836D02*
X147525000Y-110509164D01*
X148245000Y-110724836D02*
X148245000Y-110509164D01*
G04 #@! TO.C,C4*
X95483000Y-68218164D02*
X95483000Y-68433836D01*
X94763000Y-68218164D02*
X94763000Y-68433836D01*
D12*
G04 #@! TO.C,U4*
X96899110Y-105280000D02*
X95068750Y-105280000D01*
X95068750Y-105280000D02*
X95068750Y-110620000D01*
X90669470Y-105280000D02*
X95068750Y-105280000D01*
X96899110Y-105678780D02*
X96899110Y-105280000D01*
D13*
X90669110Y-110434120D02*
X90669110Y-110449360D01*
D12*
X95068750Y-110620000D02*
X90669470Y-110620000D01*
X90669470Y-110620000D02*
X90669470Y-105280000D01*
D11*
G04 #@! TO.C,SW38*
X182305000Y-116895000D02*
X179645000Y-116895000D01*
X182305000Y-114295000D02*
X182305000Y-116895000D01*
X182305000Y-114295000D02*
X179645000Y-114295000D01*
X182305000Y-113025000D02*
X182305000Y-111695000D01*
X182305000Y-111695000D02*
X180975000Y-111695000D01*
X179645000Y-114295000D02*
X179645000Y-116895000D01*
G04 #@! TO.C,C6*
X157770000Y-117875164D02*
X157770000Y-118090836D01*
X157050000Y-117875164D02*
X157050000Y-118090836D01*
G04 #@! TO.C,U2*
X124714000Y-71029000D02*
X125364000Y-71029000D01*
X124714000Y-71029000D02*
X124064000Y-71029000D01*
X124714000Y-67909000D02*
X126389000Y-67909000D01*
X124714000Y-67909000D02*
X124064000Y-67909000D01*
G04 #@! TO.C,JP1*
X144804564Y-121172500D02*
X144295116Y-121172500D01*
X144804564Y-120127500D02*
X144295116Y-120127500D01*
D14*
G04 #@! TO.C,USB1*
X78050000Y-45981250D02*
X78050000Y-47700250D01*
X78050000Y-45981250D02*
X87050000Y-45981250D01*
X78050000Y-50162250D02*
X78050000Y-51481250D01*
X87050000Y-45981250D02*
X87050000Y-47700250D01*
X87050000Y-50162250D02*
X87050000Y-51681250D01*
D11*
G04 #@! TO.C,R19*
X136145000Y-101753641D02*
X136145000Y-101446359D01*
X136905000Y-101753641D02*
X136905000Y-101446359D01*
G04 #@! TO.C,R24*
X84581000Y-55692609D02*
X84581000Y-55999891D01*
X83821000Y-55692609D02*
X83821000Y-55999891D01*
G04 #@! TO.C,C10*
X150407000Y-117912164D02*
X150407000Y-118127836D01*
X149687000Y-117912164D02*
X149687000Y-118127836D01*
G04 #@! TO.C,R17*
X117095000Y-101753641D02*
X117095000Y-101446359D01*
X117855000Y-101753641D02*
X117855000Y-101446359D01*
G04 #@! TD*
%LPC*%
D15*
G04 #@! TO.C,H2*
X120650000Y-57150000D03*
G04 #@! TD*
G04 #@! TO.C,H11*
X153987500Y-95250000D03*
G04 #@! TD*
G04 #@! TO.C,H1*
X63500000Y-57150000D03*
G04 #@! TD*
G04 #@! TO.C,H9*
X70643750Y-95250000D03*
G04 #@! TD*
G04 #@! TO.C,H13*
X232568750Y-95250000D03*
G04 #@! TD*
G04 #@! TO.C,H5*
X87312500Y-76200000D03*
G04 #@! TD*
G04 #@! TO.C,H10*
X115887500Y-95250000D03*
G04 #@! TD*
G04 #@! TO.C,H8*
X220662500Y-76200000D03*
G04 #@! TD*
G04 #@! TO.C,H15*
X123031250Y-114300000D03*
G04 #@! TD*
G04 #@! TO.C,H3*
X177800000Y-57150000D03*
G04 #@! TD*
G04 #@! TO.C,H17*
X206375000Y-114300000D03*
G04 #@! TD*
G04 #@! TO.C,H4*
X234950000Y-57150000D03*
G04 #@! TD*
G04 #@! TO.C,H6*
X125412500Y-76200000D03*
G04 #@! TD*
G04 #@! TO.C,H16*
X175418750Y-114300000D03*
G04 #@! TD*
G04 #@! TO.C,H12*
X192087500Y-95250000D03*
G04 #@! TD*
G04 #@! TO.C,H7*
X182562500Y-76200000D03*
G04 #@! TD*
G04 #@! TO.C,H14*
X92075000Y-114300000D03*
G04 #@! TD*
D16*
G04 #@! TO.C,Y1*
X153416000Y-118745000D03*
X154616000Y-118745000D03*
X155816000Y-118745000D03*
G04 #@! TD*
D17*
G04 #@! TO.C,C7*
X147984000Y-108331000D03*
X147024000Y-108331000D03*
G04 #@! TD*
D18*
G04 #@! TO.C,C12*
X202609436Y-104534305D03*
X203569436Y-104534305D03*
G04 #@! TD*
D19*
G04 #@! TO.C,C15*
X149031000Y-117540000D03*
X149031000Y-118500000D03*
G04 #@! TD*
D20*
G04 #@! TO.C,U5*
X141899097Y-118120501D03*
X141899097Y-116850501D03*
X141899097Y-115580501D03*
X141899097Y-114310501D03*
X146849097Y-114310501D03*
X146849097Y-115580501D03*
X146849097Y-116850501D03*
X146849097Y-118120501D03*
G04 #@! TD*
D21*
G04 #@! TO.C,R7*
X146742000Y-110107000D03*
X146742000Y-111127000D03*
G04 #@! TD*
D22*
G04 #@! TO.C,R11*
X98425000Y-102110000D03*
X98425000Y-101090000D03*
G04 #@! TD*
D21*
G04 #@! TO.C,R2*
X151511000Y-105877000D03*
X151511000Y-106897000D03*
G04 #@! TD*
D18*
G04 #@! TO.C,C9*
X157311000Y-115663994D03*
X158271000Y-115663994D03*
G04 #@! TD*
D23*
G04 #@! TO.C,R4*
X152525000Y-105918000D03*
X153545000Y-105918000D03*
G04 #@! TD*
D24*
G04 #@! TO.C,U1*
X155404000Y-116340500D03*
X154904000Y-116340500D03*
X154404000Y-116340500D03*
X153904000Y-116340500D03*
X153404000Y-116340500D03*
X152904000Y-116340500D03*
X152404000Y-116340500D03*
X151904000Y-116340500D03*
X151404000Y-116340500D03*
X150904000Y-116340500D03*
X150404000Y-116340500D03*
X149904000Y-116340500D03*
D25*
X149216500Y-115653000D03*
X149216500Y-115153000D03*
X149216500Y-114653000D03*
X149216500Y-114153000D03*
X149216500Y-113653000D03*
X149216500Y-113153000D03*
X149216500Y-112653000D03*
X149216500Y-112153000D03*
X149216500Y-111653000D03*
X149216500Y-111153000D03*
X149216500Y-110653000D03*
X149216500Y-110153000D03*
D24*
X149904000Y-109465500D03*
X150404000Y-109465500D03*
X150904000Y-109465500D03*
X151404000Y-109465500D03*
X151904000Y-109465500D03*
X152404000Y-109465500D03*
X152904000Y-109465500D03*
X153404000Y-109465500D03*
X153904000Y-109465500D03*
X154404000Y-109465500D03*
X154904000Y-109465500D03*
X155404000Y-109465500D03*
D25*
X156091500Y-110153000D03*
X156091500Y-110653000D03*
X156091500Y-111153000D03*
X156091500Y-111653000D03*
X156091500Y-112153000D03*
X156091500Y-112653000D03*
X156091500Y-113153000D03*
X156091500Y-113653000D03*
X156091500Y-114153000D03*
X156091500Y-114653000D03*
X156091500Y-115153000D03*
X156091500Y-115653000D03*
D26*
X152654000Y-112903000D03*
G04 #@! TD*
D22*
G04 #@! TO.C,R12*
X157956250Y-102110000D03*
X157956250Y-101090000D03*
G04 #@! TD*
G04 #@! TO.C,R15*
X69088000Y-100522500D03*
X69088000Y-99502500D03*
G04 #@! TD*
D19*
G04 #@! TO.C,C11*
X151063000Y-117540000D03*
X151063000Y-118500000D03*
G04 #@! TD*
D27*
G04 #@! TO.C,R13*
X76305148Y-107156250D03*
X75285148Y-107156250D03*
G04 #@! TD*
D18*
G04 #@! TO.C,C8*
X157311000Y-109474000D03*
X158271000Y-109474000D03*
G04 #@! TD*
D22*
G04 #@! TO.C,R10*
X174625000Y-102110000D03*
X174625000Y-101090000D03*
G04 #@! TD*
D28*
G04 #@! TO.C,U3*
X208555590Y-105676700D03*
X208555590Y-106326940D03*
X208555590Y-106977180D03*
X208555590Y-107627420D03*
X208555590Y-108272580D03*
X208555590Y-108922820D03*
X208555590Y-109573060D03*
X208555590Y-110223300D03*
X202606910Y-110223300D03*
X202606910Y-109573060D03*
X202606910Y-108922820D03*
X202606910Y-108272580D03*
X202606910Y-107627420D03*
X202606910Y-106977180D03*
X202606910Y-106326940D03*
X202606910Y-105676700D03*
G04 #@! TD*
D22*
G04 #@! TO.C,R1*
X148463000Y-106897000D03*
X148463000Y-105877000D03*
G04 #@! TD*
D21*
G04 #@! TO.C,R16*
X234156250Y-99377387D03*
X234156250Y-100397387D03*
G04 #@! TD*
D17*
G04 #@! TO.C,C14*
X141132500Y-112712500D03*
X140172500Y-112712500D03*
G04 #@! TD*
D22*
G04 #@! TO.C,R9*
X149479000Y-106897000D03*
X149479000Y-105877000D03*
G04 #@! TD*
D17*
G04 #@! TO.C,C13*
X89380000Y-104485820D03*
X88420000Y-104485820D03*
G04 #@! TD*
D23*
G04 #@! TO.C,R21*
X146332687Y-119390501D03*
X147352687Y-119390501D03*
G04 #@! TD*
D29*
G04 #@! TO.C,C5*
X127508000Y-70330000D03*
X127508000Y-69370000D03*
G04 #@! TD*
D22*
G04 #@! TO.C,R20*
X193675000Y-102110000D03*
X193675000Y-101090000D03*
G04 #@! TD*
D27*
G04 #@! TO.C,R23*
X142592312Y-119390501D03*
X141572312Y-119390501D03*
G04 #@! TD*
D21*
G04 #@! TO.C,R14*
X208548088Y-111558447D03*
X208548088Y-112578447D03*
G04 #@! TD*
D23*
G04 #@! TO.C,R6*
X150169000Y-119507000D03*
X151189000Y-119507000D03*
G04 #@! TD*
D30*
G04 #@! TO.C,F_USBC1*
X90675000Y-68453000D03*
X93475000Y-68453000D03*
G04 #@! TD*
D31*
G04 #@! TO.C,J1*
X87949065Y-68374690D03*
X87949065Y-67374690D03*
X87949065Y-66374690D03*
X87949065Y-65374690D03*
D32*
X84074065Y-69674690D03*
X84074065Y-64074690D03*
G04 #@! TD*
D33*
G04 #@! TO.C,D1*
X84693000Y-59829000D03*
D34*
X84693000Y-61529000D03*
X82693000Y-61529000D03*
X82693000Y-59629000D03*
G04 #@! TD*
D22*
G04 #@! TO.C,R18*
X81280000Y-56356250D03*
X81280000Y-55336250D03*
G04 #@! TD*
D21*
G04 #@! TO.C,R3*
X157410000Y-113663000D03*
X157410000Y-114683000D03*
G04 #@! TD*
G04 #@! TO.C,R8*
X150495000Y-105877000D03*
X150495000Y-106897000D03*
G04 #@! TD*
D23*
G04 #@! TO.C,R5*
X222146885Y-107164145D03*
X223166885Y-107164145D03*
G04 #@! TD*
D29*
G04 #@! TO.C,C1*
X147885000Y-111097000D03*
X147885000Y-110137000D03*
G04 #@! TD*
D19*
G04 #@! TO.C,C4*
X95123000Y-67846000D03*
X95123000Y-68806000D03*
G04 #@! TD*
D28*
G04 #@! TO.C,U4*
X95843090Y-105676700D03*
X95843090Y-106326940D03*
X95843090Y-106977180D03*
X95843090Y-107627420D03*
X95843090Y-108272580D03*
X95843090Y-108922820D03*
X95843090Y-109573060D03*
X95843090Y-110223300D03*
X89894410Y-110223300D03*
X89894410Y-109573060D03*
X89894410Y-108922820D03*
X89894410Y-108272580D03*
X89894410Y-107627420D03*
X89894410Y-106977180D03*
X89894410Y-106326940D03*
X89894410Y-105676700D03*
G04 #@! TD*
D35*
G04 #@! TO.C,SW38*
X180975000Y-113025000D03*
D36*
X180975000Y-115565000D03*
G04 #@! TD*
D19*
G04 #@! TO.C,C6*
X157410000Y-117503000D03*
X157410000Y-118463000D03*
G04 #@! TD*
D37*
G04 #@! TO.C,U2*
X125651500Y-68519000D03*
X125651500Y-70419000D03*
X123776500Y-69469000D03*
G04 #@! TD*
D38*
G04 #@! TO.C,JP1*
X145462340Y-120650000D03*
X143637340Y-120650000D03*
G04 #@! TD*
D39*
G04 #@! TO.C,USB1*
X79660000Y-52271250D03*
X85440000Y-52271250D03*
D40*
X79350000Y-53631250D03*
X80150000Y-53631250D03*
D41*
X80800000Y-53631250D03*
X81300000Y-53631250D03*
X81800000Y-53631250D03*
X82300000Y-53631250D03*
X82800000Y-53631250D03*
X83300000Y-53631250D03*
X83800000Y-53631250D03*
X84300000Y-53631250D03*
D40*
X84950000Y-53631250D03*
X85750000Y-53631250D03*
D42*
X77430000Y-48871250D03*
X77430000Y-52771250D03*
X87670000Y-48871250D03*
X87670000Y-52771250D03*
G04 #@! TD*
D22*
G04 #@! TO.C,R19*
X136525000Y-102110000D03*
X136525000Y-101090000D03*
G04 #@! TD*
D21*
G04 #@! TO.C,R24*
X84201000Y-55336250D03*
X84201000Y-56356250D03*
G04 #@! TD*
D19*
G04 #@! TO.C,C10*
X150047000Y-117540000D03*
X150047000Y-118500000D03*
G04 #@! TD*
D22*
G04 #@! TO.C,R17*
X117475000Y-102110000D03*
X117475000Y-101090000D03*
G04 #@! TD*
%LPD*%
M02*
