%TF.GenerationSoftware,KiCad,Pcbnew,7.0.11*%
%TF.CreationDate,2025-02-11T16:17:04+07:00*%
%TF.ProjectId,travaulta,74726176-6175-46c7-9461-2e6b69636164,rev?*%
%TF.SameCoordinates,Original*%
%TF.FileFunction,Drillmap*%
%TF.FilePolarity,Positive*%
%FSLAX45Y45*%
G04 Gerber Fmt 4.5, Leading zero omitted, Abs format (unit mm)*
G04 Created by KiCad (PCBNEW 7.0.11) date 2025-02-11 16:17:04*
%MOMM*%
%LPD*%
G01*
G04 APERTURE LIST*
%ADD10C,0.050000*%
%ADD11C,0.200000*%
%ADD12C,0.100000*%
G04 APERTURE END LIST*
D10*
X23970000Y-4747500D02*
G75*
G03*
X23750000Y-4967500I0J-220000D01*
G01*
X8547057Y-4747500D02*
X7964057Y-4747500D01*
X9627396Y-12296910D02*
G75*
G03*
X9025729Y-12296910I-300833J-232162D01*
G01*
X7295000Y-10657500D02*
X7295000Y-12122500D01*
X9801563Y-12382500D02*
X20043438Y-12382500D01*
X25147500Y-4747500D02*
X23970000Y-4747500D01*
X4657500Y-9988400D02*
X4671600Y-9988400D01*
X6825000Y-4747500D02*
G75*
G03*
X6605000Y-4967500I0J-220000D01*
G01*
X20993438Y-12382500D02*
X22290000Y-12382500D01*
X20819271Y-12296910D02*
G75*
G03*
X20217604Y-12296910I-300833J-232162D01*
G01*
X23240000Y-4967500D02*
G75*
G03*
X23020000Y-4747500I-220000J0D01*
G01*
X6095000Y-5007500D02*
G75*
G03*
X6605000Y-5007500I255000J2D01*
G01*
X22550000Y-12122500D02*
X22550000Y-10657500D01*
X24918437Y-10257500D02*
X24918437Y-10243400D01*
X5875000Y-4747500D02*
X4697500Y-4747500D01*
X24698437Y-10477497D02*
G75*
G03*
X24918437Y-10257500I-8J220007D01*
G01*
X7295000Y-10657500D02*
G75*
G03*
X7115000Y-10477500I-180000J0D01*
G01*
X23240000Y-5007500D02*
X23240000Y-4967500D01*
X20043438Y-12382502D02*
G75*
G03*
X20217604Y-12296910I3J219992D01*
G01*
X25407500Y-9768400D02*
X25407500Y-5007500D01*
X6095000Y-5007500D02*
X6095000Y-4967500D01*
X22730000Y-10477500D02*
X24698437Y-10477500D01*
X23020000Y-4747500D02*
X8547057Y-4747500D01*
X22730000Y-10477500D02*
G75*
G03*
X22550000Y-10657500I0J-180000D01*
G01*
X22290000Y-12382500D02*
G75*
G03*
X22550000Y-12122500I0J260000D01*
G01*
X8851563Y-12382502D02*
G75*
G03*
X9025729Y-12296910I-3J220002D01*
G01*
X4926600Y-10243400D02*
G75*
G03*
X4671600Y-9988400I-255000J0D01*
G01*
X7964057Y-4747500D02*
X6825000Y-4747500D01*
X25407500Y-5007500D02*
G75*
G03*
X25147500Y-4747500I-260000J0D01*
G01*
X7555000Y-12382500D02*
X8851563Y-12382500D01*
X4697500Y-4747500D02*
G75*
G03*
X4437500Y-5007500I-5J-259995D01*
G01*
X23240000Y-5007500D02*
G75*
G03*
X23750000Y-5007500I255000J0D01*
G01*
X4437500Y-5007500D02*
X4437500Y-9768400D01*
X20819272Y-12296909D02*
G75*
G03*
X20993438Y-12382500I174148J134369D01*
G01*
X7295000Y-12122500D02*
G75*
G03*
X7555000Y-12382500I260000J0D01*
G01*
X25187500Y-9988400D02*
G75*
G03*
X25407500Y-9768400I0J220000D01*
G01*
X9627394Y-12296911D02*
G75*
G03*
X9801563Y-12382500I174166J134411D01*
G01*
X25173437Y-9988400D02*
X25187500Y-9988400D01*
X4926600Y-10257500D02*
G75*
G03*
X5146600Y-10477500I220000J0D01*
G01*
X6605000Y-4967500D02*
X6605000Y-5007500D01*
X6095000Y-4967500D02*
G75*
G03*
X5875000Y-4747500I-220000J0D01*
G01*
X23750000Y-4967500D02*
X23750000Y-5007500D01*
X4926600Y-10243400D02*
X4926600Y-10257500D01*
X4437500Y-9768400D02*
G75*
G03*
X4657500Y-9988400I220000J0D01*
G01*
X5146600Y-10477500D02*
X7115000Y-10477500D01*
X25173437Y-9988397D02*
G75*
G03*
X24918437Y-10243400I-8J-254993D01*
G01*
D11*
D12*
X4691700Y-7600000D02*
X4731700Y-7640000D01*
X4731700Y-7600000D02*
X4691700Y-7640000D01*
X4717100Y-5060000D02*
X4757100Y-5100000D01*
X4757100Y-5060000D02*
X4717100Y-5100000D01*
X4933000Y-6965000D02*
X4973000Y-7005000D01*
X4973000Y-6965000D02*
X4933000Y-7005000D01*
X5123500Y-9505000D02*
X5163500Y-9545000D01*
X5163500Y-9505000D02*
X5123500Y-9545000D01*
X5275900Y-5695000D02*
X5315900Y-5735000D01*
X5315900Y-5695000D02*
X5275900Y-5735000D01*
X5415600Y-8870000D02*
X5455600Y-8910000D01*
X5455600Y-8870000D02*
X5415600Y-8910000D01*
X5479100Y-5695000D02*
X5519100Y-5735000D01*
X5519100Y-5695000D02*
X5479100Y-5735000D01*
X5517200Y-7600000D02*
X5557200Y-7640000D01*
X5557200Y-7600000D02*
X5517200Y-7640000D01*
X5707700Y-7600000D02*
X5747700Y-7640000D01*
X5747700Y-7600000D02*
X5707700Y-7640000D01*
X5987100Y-9505000D02*
X6027100Y-9545000D01*
X6027100Y-9505000D02*
X5987100Y-9545000D01*
X5987530Y-6397623D02*
X6027530Y-6437623D01*
X6027530Y-6397623D02*
X5987530Y-6437623D01*
X5991678Y-6580815D02*
X6031678Y-6620815D01*
X6031678Y-6580815D02*
X5991678Y-6620815D01*
X6190300Y-9505000D02*
X6230300Y-9545000D01*
X6230300Y-9505000D02*
X6190300Y-9545000D01*
X6190730Y-6397623D02*
X6230730Y-6437623D01*
X6230730Y-6397623D02*
X6190730Y-6437623D01*
X6194878Y-6580815D02*
X6234878Y-6620815D01*
X6234878Y-6580815D02*
X6194878Y-6620815D01*
X6301207Y-8306647D02*
X6341207Y-8346647D01*
X6341207Y-8306647D02*
X6301207Y-8346647D01*
X6302101Y-8487075D02*
X6342101Y-8527075D01*
X6342101Y-8487075D02*
X6302101Y-8527075D01*
X6504407Y-8306647D02*
X6544407Y-8346647D01*
X6544407Y-8306647D02*
X6504407Y-8346647D01*
X6505301Y-8487075D02*
X6545301Y-8527075D01*
X6545301Y-8487075D02*
X6505301Y-8527075D01*
X6545900Y-7600000D02*
X6585900Y-7640000D01*
X6585900Y-7600000D02*
X6545900Y-7640000D01*
X6692053Y-10189094D02*
X6732053Y-10229094D01*
X6732053Y-10189094D02*
X6692053Y-10229094D01*
X6692053Y-10385075D02*
X6732053Y-10425075D01*
X6732053Y-10385075D02*
X6692053Y-10425075D01*
X6825300Y-7600000D02*
X6865300Y-7640000D01*
X6865300Y-7600000D02*
X6825300Y-7640000D01*
X7077016Y-10191427D02*
X7117016Y-10231427D01*
X7117016Y-10191427D02*
X7077016Y-10231427D01*
X7180900Y-5695000D02*
X7220900Y-5735000D01*
X7220900Y-5695000D02*
X7180900Y-5735000D01*
X7384100Y-5695000D02*
X7424100Y-5735000D01*
X7424100Y-5695000D02*
X7384100Y-5735000D01*
X7409500Y-9111300D02*
X7449500Y-9151300D01*
X7449500Y-9111300D02*
X7409500Y-9151300D01*
X7409500Y-9911400D02*
X7449500Y-9951400D01*
X7449500Y-9911400D02*
X7409500Y-9951400D01*
X7424190Y-10404665D02*
X7464190Y-10444665D01*
X7464190Y-10404665D02*
X7424190Y-10444665D01*
X7425745Y-10194685D02*
X7465745Y-10234685D01*
X7465745Y-10194685D02*
X7425745Y-10234685D01*
X7549200Y-4869500D02*
X7589200Y-4909500D01*
X7589200Y-4869500D02*
X7549200Y-4909500D01*
X7561900Y-12057700D02*
X7601900Y-12097700D01*
X7601900Y-12057700D02*
X7561900Y-12097700D01*
X7650800Y-7600000D02*
X7690800Y-7640000D01*
X7690800Y-7600000D02*
X7650800Y-7640000D01*
X7710014Y-10811293D02*
X7750014Y-10851293D01*
X7750014Y-10811293D02*
X7710014Y-10851293D01*
X7723000Y-5089400D02*
X7763000Y-5129400D01*
X7763000Y-5089400D02*
X7723000Y-5129400D01*
X7740036Y-10404518D02*
X7780036Y-10444518D01*
X7780036Y-10404518D02*
X7740036Y-10444518D01*
X7740228Y-10196661D02*
X7780228Y-10236661D01*
X7780228Y-10196661D02*
X7740228Y-10236661D01*
X7765100Y-9505000D02*
X7805100Y-9545000D01*
X7805100Y-9505000D02*
X7765100Y-9545000D01*
X7838125Y-6761800D02*
X7878125Y-6801800D01*
X7878125Y-6761800D02*
X7838125Y-6801800D01*
X7841300Y-6380800D02*
X7881300Y-6420800D01*
X7881300Y-6380800D02*
X7841300Y-6420800D01*
X7841300Y-6576420D02*
X7881300Y-6616420D01*
X7881300Y-6576420D02*
X7841300Y-6616420D01*
X7866700Y-7600000D02*
X7906700Y-7640000D01*
X7906700Y-7600000D02*
X7866700Y-7640000D01*
X7943428Y-10196661D02*
X7983428Y-10236661D01*
X7983428Y-10196661D02*
X7943428Y-10236661D01*
X7945350Y-10404518D02*
X7985350Y-10444518D01*
X7985350Y-10404518D02*
X7945350Y-10444518D01*
X8108000Y-5707700D02*
X8148000Y-5747700D01*
X8148000Y-5707700D02*
X8108000Y-5747700D01*
X8108000Y-5860100D02*
X8148000Y-5900100D01*
X8148000Y-5860100D02*
X8108000Y-5900100D01*
X8135000Y-11410000D02*
X8175000Y-11450000D01*
X8175000Y-11410000D02*
X8135000Y-11450000D01*
X8196900Y-6279200D02*
X8236900Y-6319200D01*
X8236900Y-6279200D02*
X8196900Y-6319200D01*
X8196900Y-6965000D02*
X8236900Y-7005000D01*
X8236900Y-6965000D02*
X8196900Y-7005000D01*
X8235000Y-4979900D02*
X8275000Y-5019900D01*
X8275000Y-4979900D02*
X8235000Y-5019900D01*
X8235898Y-8306844D02*
X8275898Y-8346844D01*
X8275898Y-8306844D02*
X8235898Y-8346844D01*
X8236792Y-8487271D02*
X8276792Y-8527271D01*
X8276792Y-8487271D02*
X8236792Y-8527271D01*
X8335000Y-11410000D02*
X8375000Y-11450000D01*
X8375000Y-11410000D02*
X8335000Y-11450000D01*
X8387400Y-6965000D02*
X8427400Y-7005000D01*
X8427400Y-6965000D02*
X8387400Y-7005000D01*
X8399808Y-5708625D02*
X8439808Y-5748625D01*
X8439808Y-5708625D02*
X8399808Y-5748625D01*
X8425500Y-6279200D02*
X8465500Y-6319200D01*
X8465500Y-6279200D02*
X8425500Y-6319200D01*
X8439098Y-8306844D02*
X8479098Y-8346844D01*
X8479098Y-8306844D02*
X8439098Y-8346844D01*
X8439992Y-8487271D02*
X8479992Y-8527271D01*
X8479992Y-8487271D02*
X8439992Y-8527271D01*
X8476300Y-6584000D02*
X8516300Y-6624000D01*
X8516300Y-6584000D02*
X8476300Y-6624000D01*
X8476300Y-6685600D02*
X8516300Y-6725600D01*
X8516300Y-6685600D02*
X8476300Y-6725600D01*
X8542428Y-6088028D02*
X8582428Y-6128028D01*
X8582428Y-6088028D02*
X8542428Y-6128028D01*
X8603300Y-9505000D02*
X8643300Y-9545000D01*
X8643300Y-9505000D02*
X8603300Y-9545000D01*
X8608888Y-10401456D02*
X8648888Y-10441456D01*
X8648888Y-10401456D02*
X8608888Y-10441456D01*
X8704900Y-7015800D02*
X8744900Y-7055800D01*
X8744900Y-7015800D02*
X8704900Y-7055800D01*
X8704900Y-7244400D02*
X8744900Y-7284400D01*
X8744900Y-7244400D02*
X8704900Y-7284400D01*
X8704900Y-7981000D02*
X8744900Y-8021000D01*
X8744900Y-7981000D02*
X8704900Y-8021000D01*
X8711250Y-10775000D02*
X8751250Y-10815000D01*
X8751250Y-10775000D02*
X8711250Y-10815000D01*
X8717600Y-6317300D02*
X8757600Y-6357300D01*
X8757600Y-6317300D02*
X8717600Y-6357300D01*
X8745304Y-5090131D02*
X8785304Y-5130131D01*
X8785304Y-5090131D02*
X8745304Y-5130131D01*
X8811250Y-9505000D02*
X8851250Y-9545000D01*
X8851250Y-9505000D02*
X8811250Y-9545000D01*
X8920800Y-4869500D02*
X8960800Y-4909500D01*
X8960800Y-4869500D02*
X8920800Y-4909500D01*
X8984300Y-7015800D02*
X9024300Y-7055800D01*
X9024300Y-7015800D02*
X8984300Y-7055800D01*
X8991920Y-6573840D02*
X9031920Y-6613840D01*
X9031920Y-6573840D02*
X8991920Y-6613840D01*
X9028750Y-10457500D02*
X9068750Y-10497500D01*
X9068750Y-10457500D02*
X9028750Y-10497500D01*
X9085900Y-5695000D02*
X9125900Y-5735000D01*
X9125900Y-5695000D02*
X9085900Y-5735000D01*
X9187500Y-6576420D02*
X9227500Y-6616420D01*
X9227500Y-6576420D02*
X9187500Y-6616420D01*
X9187500Y-7015800D02*
X9227500Y-7055800D01*
X9227500Y-7015800D02*
X9187500Y-7055800D01*
X9187500Y-10140000D02*
X9227500Y-10180000D01*
X9227500Y-10140000D02*
X9187500Y-10180000D01*
X9187500Y-10395476D02*
X9227500Y-10435476D01*
X9227500Y-10395476D02*
X9187500Y-10435476D01*
X9187500Y-11727500D02*
X9227500Y-11767500D01*
X9227500Y-11727500D02*
X9187500Y-11767500D01*
X9266875Y-10775000D02*
X9306875Y-10815000D01*
X9306875Y-10775000D02*
X9266875Y-10815000D01*
X9287500Y-5695000D02*
X9327500Y-5735000D01*
X9327500Y-5695000D02*
X9287500Y-5735000D01*
X9505000Y-6576420D02*
X9545000Y-6616420D01*
X9545000Y-6576420D02*
X9505000Y-6616420D01*
X9568500Y-7600000D02*
X9608500Y-7640000D01*
X9608500Y-7600000D02*
X9568500Y-7640000D01*
X9626371Y-10141605D02*
X9666371Y-10181605D01*
X9666371Y-10141605D02*
X9626371Y-10181605D01*
X9657400Y-9505000D02*
X9697400Y-9545000D01*
X9697400Y-9505000D02*
X9657400Y-9545000D01*
X9759000Y-7600000D02*
X9799000Y-7640000D01*
X9799000Y-7600000D02*
X9759000Y-7640000D01*
X9822253Y-6575038D02*
X9862253Y-6615038D01*
X9862253Y-6575038D02*
X9822253Y-6615038D01*
X9822500Y-6825300D02*
X9862500Y-6865300D01*
X9862500Y-6825300D02*
X9822500Y-6865300D01*
X9822500Y-10854375D02*
X9862500Y-10894375D01*
X9862500Y-10854375D02*
X9822500Y-10894375D01*
X9835200Y-12019600D02*
X9875200Y-12059600D01*
X9875200Y-12019600D02*
X9835200Y-12059600D01*
X9860600Y-5060000D02*
X9900600Y-5100000D01*
X9900600Y-5060000D02*
X9860600Y-5100000D01*
X9901244Y-10394994D02*
X9941244Y-10434994D01*
X9941244Y-10394994D02*
X9901244Y-10434994D01*
X9961588Y-6403153D02*
X10001588Y-6443153D01*
X10001588Y-6403153D02*
X9961588Y-6443153D01*
X9966773Y-6575285D02*
X10006773Y-6615285D01*
X10006773Y-6575285D02*
X9966773Y-6615285D01*
X10089200Y-10140000D02*
X10129200Y-10180000D01*
X10129200Y-10140000D02*
X10089200Y-10180000D01*
X10091617Y-8489604D02*
X10131617Y-8529604D01*
X10131617Y-8489604D02*
X10091617Y-8529604D01*
X10092102Y-10395476D02*
X10132102Y-10435476D01*
X10132102Y-10395476D02*
X10092102Y-10435476D01*
X10095550Y-8292599D02*
X10135550Y-8332599D01*
X10135550Y-8292599D02*
X10095550Y-8332599D01*
X10140000Y-5695000D02*
X10180000Y-5735000D01*
X10180000Y-5695000D02*
X10140000Y-5735000D01*
X10164788Y-6403153D02*
X10204788Y-6443153D01*
X10204788Y-6403153D02*
X10164788Y-6443153D01*
X10169973Y-6575285D02*
X10209973Y-6615285D01*
X10209973Y-6575285D02*
X10169973Y-6615285D01*
X10171144Y-6825300D02*
X10211144Y-6865300D01*
X10211144Y-6825300D02*
X10171144Y-6865300D01*
X10278000Y-11410000D02*
X10318000Y-11450000D01*
X10318000Y-11410000D02*
X10278000Y-11450000D01*
X10294817Y-8489604D02*
X10334817Y-8529604D01*
X10334817Y-8489604D02*
X10294817Y-8529604D01*
X10298750Y-8292599D02*
X10338750Y-8332599D01*
X10338750Y-8292599D02*
X10298750Y-8332599D01*
X10452834Y-10396790D02*
X10492834Y-10436790D01*
X10492834Y-10396790D02*
X10452834Y-10436790D01*
X10457500Y-6576000D02*
X10497500Y-6616000D01*
X10497500Y-6576000D02*
X10457500Y-6616000D01*
X10457500Y-6831650D02*
X10497500Y-6871650D01*
X10497500Y-6831650D02*
X10457500Y-6871650D01*
X10478000Y-11410000D02*
X10518000Y-11450000D01*
X10518000Y-11410000D02*
X10478000Y-11450000D01*
X10516250Y-9505000D02*
X10556250Y-9545000D01*
X10556250Y-9505000D02*
X10516250Y-9545000D01*
X10609900Y-7104700D02*
X10649900Y-7144700D01*
X10649900Y-7104700D02*
X10609900Y-7144700D01*
X10622600Y-7600000D02*
X10662600Y-7640000D01*
X10662600Y-7600000D02*
X10622600Y-7640000D01*
X10716250Y-9505000D02*
X10756250Y-9545000D01*
X10756250Y-9505000D02*
X10716250Y-9545000D01*
X10773617Y-6574347D02*
X10813617Y-6614347D01*
X10813617Y-6574347D02*
X10773617Y-6614347D01*
X10775000Y-6831650D02*
X10815000Y-6871650D01*
X10815000Y-6831650D02*
X10775000Y-6871650D01*
X10775000Y-10399123D02*
X10815000Y-10439123D01*
X10815000Y-10399123D02*
X10775000Y-10439123D01*
X10990900Y-5695000D02*
X11030900Y-5735000D01*
X11030900Y-5695000D02*
X10990900Y-5735000D01*
X11092500Y-6576000D02*
X11132500Y-6616000D01*
X11132500Y-6576000D02*
X11092500Y-6616000D01*
X11092500Y-6826855D02*
X11132500Y-6866855D01*
X11132500Y-6826855D02*
X11092500Y-6866855D01*
X11092500Y-10401456D02*
X11132500Y-10441456D01*
X11132500Y-10401456D02*
X11092500Y-10441456D01*
X11092500Y-10775000D02*
X11132500Y-10815000D01*
X11132500Y-10775000D02*
X11092500Y-10815000D01*
X11192500Y-5695000D02*
X11232500Y-5735000D01*
X11232500Y-5695000D02*
X11192500Y-5735000D01*
X11308400Y-11410000D02*
X11348400Y-11450000D01*
X11348400Y-11410000D02*
X11308400Y-11450000D01*
X11395608Y-10775000D02*
X11435608Y-10815000D01*
X11435608Y-10775000D02*
X11395608Y-10815000D01*
X11407235Y-6576420D02*
X11447235Y-6616420D01*
X11447235Y-6576420D02*
X11407235Y-6616420D01*
X11409803Y-10401975D02*
X11449803Y-10441975D01*
X11449803Y-10401975D02*
X11409803Y-10441975D01*
X11410000Y-6826855D02*
X11450000Y-6866855D01*
X11450000Y-6826855D02*
X11410000Y-6866855D01*
X11410049Y-12084761D02*
X11450049Y-12124761D01*
X11450049Y-12084761D02*
X11410049Y-12124761D01*
X11473500Y-7600000D02*
X11513500Y-7640000D01*
X11513500Y-7600000D02*
X11473500Y-7640000D01*
X11540703Y-10153950D02*
X11580703Y-10193950D01*
X11580703Y-10153950D02*
X11540703Y-10193950D01*
X11562400Y-9111300D02*
X11602400Y-9151300D01*
X11602400Y-9111300D02*
X11562400Y-9151300D01*
X11562400Y-9911400D02*
X11602400Y-9951400D01*
X11602400Y-9911400D02*
X11562400Y-9951400D01*
X11629666Y-10397645D02*
X11669666Y-10437645D01*
X11669666Y-10397645D02*
X11629666Y-10437645D01*
X11668750Y-7600000D02*
X11708750Y-7640000D01*
X11708750Y-7600000D02*
X11668750Y-7640000D01*
X11713108Y-10775000D02*
X11753108Y-10815000D01*
X11753108Y-10775000D02*
X11713108Y-10815000D01*
X11724538Y-6577112D02*
X11764538Y-6617112D01*
X11764538Y-6577112D02*
X11724538Y-6617112D01*
X11727500Y-6825300D02*
X11767500Y-6865300D01*
X11767500Y-6825300D02*
X11727500Y-6865300D01*
X11727549Y-12084761D02*
X11767549Y-12124761D01*
X11767549Y-12084761D02*
X11727549Y-12124761D01*
X11817543Y-10400085D02*
X11857543Y-10440085D01*
X11857543Y-10400085D02*
X11817543Y-10440085D01*
X11882710Y-6396932D02*
X11922710Y-6436932D01*
X11922710Y-6396932D02*
X11882710Y-6436932D01*
X11886388Y-6577457D02*
X11926388Y-6617457D01*
X11926388Y-6577457D02*
X11886388Y-6617457D01*
X12001542Y-8306844D02*
X12041542Y-8346844D01*
X12041542Y-8306844D02*
X12001542Y-8346844D01*
X12002436Y-8487271D02*
X12042436Y-8527271D01*
X12042436Y-8487271D02*
X12002436Y-8527271D01*
X12030608Y-10775000D02*
X12070608Y-10815000D01*
X12070608Y-10775000D02*
X12030608Y-10815000D01*
X12045000Y-5301300D02*
X12085000Y-5341300D01*
X12085000Y-5301300D02*
X12045000Y-5341300D01*
X12045000Y-6076000D02*
X12085000Y-6116000D01*
X12085000Y-6076000D02*
X12045000Y-6116000D01*
X12045049Y-12084761D02*
X12085049Y-12124761D01*
X12085049Y-12084761D02*
X12045049Y-12124761D01*
X12068858Y-10402525D02*
X12108858Y-10442525D01*
X12108858Y-10402525D02*
X12068858Y-10442525D01*
X12070400Y-10152700D02*
X12110400Y-10192700D01*
X12110400Y-10152700D02*
X12070400Y-10192700D01*
X12085910Y-6396932D02*
X12125910Y-6436932D01*
X12125910Y-6396932D02*
X12085910Y-6436932D01*
X12089588Y-6577457D02*
X12129588Y-6617457D01*
X12129588Y-6577457D02*
X12089588Y-6617457D01*
X12092633Y-6813362D02*
X12132633Y-6853362D01*
X12132633Y-6813362D02*
X12092633Y-6853362D01*
X12093702Y-6990400D02*
X12133702Y-7030400D01*
X12133702Y-6990400D02*
X12093702Y-7030400D01*
X12203750Y-11806875D02*
X12243750Y-11846875D01*
X12243750Y-11806875D02*
X12203750Y-11846875D01*
X12204742Y-8306844D02*
X12244742Y-8346844D01*
X12244742Y-8306844D02*
X12204742Y-8346844D01*
X12205636Y-8487271D02*
X12245636Y-8527271D01*
X12245636Y-8487271D02*
X12205636Y-8527271D01*
X12278693Y-10404964D02*
X12318693Y-10444964D01*
X12318693Y-10404964D02*
X12278693Y-10444964D01*
X12299000Y-7168200D02*
X12339000Y-7208200D01*
X12339000Y-7168200D02*
X12299000Y-7208200D01*
X12362500Y-6575124D02*
X12402500Y-6615124D01*
X12402500Y-6575124D02*
X12362500Y-6615124D01*
X12421250Y-9505000D02*
X12461250Y-9545000D01*
X12461250Y-9505000D02*
X12421250Y-9545000D01*
X12427483Y-10775000D02*
X12467483Y-10815000D01*
X12467483Y-10775000D02*
X12427483Y-10815000D01*
X12441924Y-12084761D02*
X12481924Y-12124761D01*
X12481924Y-12084761D02*
X12441924Y-12124761D01*
X12514900Y-7981000D02*
X12554900Y-8021000D01*
X12554900Y-7981000D02*
X12514900Y-8021000D01*
X12527600Y-7168200D02*
X12567600Y-7208200D01*
X12567600Y-7168200D02*
X12527600Y-7208200D01*
X12600625Y-10406122D02*
X12640625Y-10446122D01*
X12640625Y-10406122D02*
X12600625Y-10446122D01*
X12621250Y-9505000D02*
X12661250Y-9545000D01*
X12661250Y-9505000D02*
X12621250Y-9545000D01*
X12680000Y-6575124D02*
X12720000Y-6615124D01*
X12720000Y-6575124D02*
X12680000Y-6615124D01*
X12743500Y-7168200D02*
X12783500Y-7208200D01*
X12783500Y-7168200D02*
X12743500Y-7208200D01*
X12895900Y-5695000D02*
X12935900Y-5735000D01*
X12935900Y-5695000D02*
X12895900Y-5735000D01*
X12918125Y-10406122D02*
X12958125Y-10446122D01*
X12958125Y-10406122D02*
X12918125Y-10446122D01*
X12997500Y-6575124D02*
X13037500Y-6615124D01*
X13037500Y-6575124D02*
X12997500Y-6615124D01*
X12998969Y-6990400D02*
X13038969Y-7030400D01*
X13038969Y-6990400D02*
X12998969Y-7030400D01*
X12999378Y-6762479D02*
X13039378Y-6802479D01*
X13039378Y-6762479D02*
X12999378Y-6802479D01*
X13097500Y-5695000D02*
X13137500Y-5735000D01*
X13137500Y-5695000D02*
X13097500Y-5735000D01*
X13124500Y-10165400D02*
X13164500Y-10205400D01*
X13164500Y-10165400D02*
X13124500Y-10205400D01*
X13135500Y-11410000D02*
X13175500Y-11450000D01*
X13175500Y-11410000D02*
X13135500Y-11450000D01*
X13235625Y-10404964D02*
X13275625Y-10444964D01*
X13275625Y-10404964D02*
X13235625Y-10444964D01*
X13316878Y-6762479D02*
X13356878Y-6802479D01*
X13356878Y-6762479D02*
X13316878Y-6802479D01*
X13318383Y-6575383D02*
X13358383Y-6615383D01*
X13358383Y-6575383D02*
X13318383Y-6615383D01*
X13335500Y-11410000D02*
X13375500Y-11450000D01*
X13375500Y-11410000D02*
X13335500Y-11450000D01*
X13378500Y-7600000D02*
X13418500Y-7640000D01*
X13418500Y-7600000D02*
X13378500Y-7640000D01*
X13378500Y-10152700D02*
X13418500Y-10192700D01*
X13418500Y-10152700D02*
X13378500Y-10192700D01*
X13467400Y-9505000D02*
X13507400Y-9545000D01*
X13507400Y-9505000D02*
X13467400Y-9545000D01*
X13539721Y-10406122D02*
X13579721Y-10446122D01*
X13579721Y-10406122D02*
X13539721Y-10446122D01*
X13573750Y-7600000D02*
X13613750Y-7640000D01*
X13613750Y-7600000D02*
X13573750Y-7640000D01*
X13634378Y-6757813D02*
X13674378Y-6797813D01*
X13674378Y-6757813D02*
X13634378Y-6797813D01*
X13635883Y-6575383D02*
X13675883Y-6615383D01*
X13675883Y-6575383D02*
X13635883Y-6615383D01*
X13737784Y-10409844D02*
X13777784Y-10449844D01*
X13777784Y-10409844D02*
X13737784Y-10449844D01*
X13767257Y-6577408D02*
X13807257Y-6617408D01*
X13807257Y-6577408D02*
X13767257Y-6617408D01*
X13770131Y-6403153D02*
X13810131Y-6443153D01*
X13810131Y-6403153D02*
X13770131Y-6443153D01*
X13810300Y-10178100D02*
X13850300Y-10218100D01*
X13850300Y-10178100D02*
X13810300Y-10218100D01*
X13905362Y-8304511D02*
X13945362Y-8344511D01*
X13945362Y-8304511D02*
X13905362Y-8344511D01*
X13906256Y-8484938D02*
X13946256Y-8524938D01*
X13946256Y-8484938D02*
X13906256Y-8524938D01*
X13950000Y-5695000D02*
X13990000Y-5735000D01*
X13990000Y-5695000D02*
X13950000Y-5735000D01*
X13970457Y-6577408D02*
X14010457Y-6617408D01*
X14010457Y-6577408D02*
X13970457Y-6617408D01*
X13973331Y-6403153D02*
X14013331Y-6443153D01*
X14013331Y-6403153D02*
X13973331Y-6443153D01*
X13975400Y-6990400D02*
X14015400Y-7030400D01*
X14015400Y-6990400D02*
X13975400Y-7030400D01*
X13977238Y-6766572D02*
X14017238Y-6806572D01*
X14017238Y-6766572D02*
X13977238Y-6806572D01*
X13996892Y-11152520D02*
X14036892Y-11192520D01*
X14036892Y-11152520D02*
X13996892Y-11192520D01*
X14029375Y-10413381D02*
X14069375Y-10453381D01*
X14069375Y-10413381D02*
X14029375Y-10453381D01*
X14029375Y-10616250D02*
X14069375Y-10656250D01*
X14069375Y-10616250D02*
X14029375Y-10656250D01*
X14108562Y-8304511D02*
X14148562Y-8344511D01*
X14148562Y-8304511D02*
X14108562Y-8344511D01*
X14109456Y-8484938D02*
X14149456Y-8524938D01*
X14149456Y-8484938D02*
X14109456Y-8524938D01*
X14165900Y-7231700D02*
X14205900Y-7271700D01*
X14205900Y-7231700D02*
X14165900Y-7271700D01*
X14165900Y-7981000D02*
X14205900Y-8021000D01*
X14205900Y-7981000D02*
X14165900Y-8021000D01*
X14165900Y-8717600D02*
X14205900Y-8757600D01*
X14205900Y-8717600D02*
X14165900Y-8757600D01*
X14188125Y-10616250D02*
X14228125Y-10656250D01*
X14228125Y-10616250D02*
X14188125Y-10656250D01*
X14188125Y-10775000D02*
X14228125Y-10815000D01*
X14228125Y-10775000D02*
X14188125Y-10815000D01*
X14191300Y-11041700D02*
X14231300Y-11081700D01*
X14231300Y-11041700D02*
X14191300Y-11081700D01*
X14326250Y-9505000D02*
X14366250Y-9545000D01*
X14366250Y-9505000D02*
X14326250Y-9545000D01*
X14346875Y-10414418D02*
X14386875Y-10454418D01*
X14386875Y-10414418D02*
X14346875Y-10454418D01*
X14346875Y-10933750D02*
X14386875Y-10973750D01*
X14386875Y-10933750D02*
X14346875Y-10973750D01*
X14395737Y-10645742D02*
X14435737Y-10685742D01*
X14435737Y-10645742D02*
X14395737Y-10685742D01*
X14417410Y-11601550D02*
X14457410Y-11641550D01*
X14457410Y-11601550D02*
X14417410Y-11641550D01*
X14445228Y-6400616D02*
X14485228Y-6440616D01*
X14485228Y-6400616D02*
X14445228Y-6440616D01*
X14445300Y-6749100D02*
X14485300Y-6789100D01*
X14485300Y-6749100D02*
X14445300Y-6789100D01*
X14445300Y-7231700D02*
X14485300Y-7271700D01*
X14485300Y-7231700D02*
X14445300Y-7271700D01*
X14445300Y-7600000D02*
X14485300Y-7640000D01*
X14485300Y-7600000D02*
X14445300Y-7640000D01*
X14445300Y-7981000D02*
X14485300Y-8021000D01*
X14485300Y-7981000D02*
X14445300Y-8021000D01*
X14448858Y-8301236D02*
X14488858Y-8341236D01*
X14488858Y-8301236D02*
X14448858Y-8341236D01*
X14451610Y-8522760D02*
X14491610Y-8562760D01*
X14491610Y-8522760D02*
X14451610Y-8562760D01*
X14521500Y-10648000D02*
X14561500Y-10688000D01*
X14561500Y-10648000D02*
X14521500Y-10688000D01*
X14526250Y-9505000D02*
X14566250Y-9545000D01*
X14566250Y-9505000D02*
X14526250Y-9545000D01*
X14546900Y-8478700D02*
X14586900Y-8518700D01*
X14586900Y-8478700D02*
X14546900Y-8518700D01*
X14648149Y-6400616D02*
X14688149Y-6440616D01*
X14688149Y-6400616D02*
X14648149Y-6440616D01*
X14648500Y-6749100D02*
X14688500Y-6789100D01*
X14688500Y-6749100D02*
X14648500Y-6789100D01*
X14648500Y-7231700D02*
X14688500Y-7271700D01*
X14688500Y-7231700D02*
X14648500Y-7271700D01*
X14648500Y-7981000D02*
X14688500Y-8021000D01*
X14688500Y-7981000D02*
X14648500Y-8021000D01*
X14659364Y-10412344D02*
X14699364Y-10452344D01*
X14699364Y-10412344D02*
X14659364Y-10452344D01*
X14686600Y-10711500D02*
X14726600Y-10751500D01*
X14726600Y-10711500D02*
X14686600Y-10751500D01*
X14698927Y-8477463D02*
X14738927Y-8517463D01*
X14738927Y-8477463D02*
X14698927Y-8517463D01*
X14769657Y-10907300D02*
X14809657Y-10947300D01*
X14809657Y-10907300D02*
X14769657Y-10947300D01*
X14800900Y-5695000D02*
X14840900Y-5735000D01*
X14840900Y-5695000D02*
X14800900Y-5735000D01*
X14800900Y-10178100D02*
X14840900Y-10218100D01*
X14840900Y-10178100D02*
X14800900Y-10218100D01*
X14823125Y-10457500D02*
X14863125Y-10497500D01*
X14863125Y-10457500D02*
X14823125Y-10497500D01*
X14838641Y-8304156D02*
X14878641Y-8344156D01*
X14878641Y-8304156D02*
X14838641Y-8344156D01*
X14895500Y-10813100D02*
X14935500Y-10853100D01*
X14935500Y-10813100D02*
X14895500Y-10853100D01*
X14895800Y-11632400D02*
X14935800Y-11672400D01*
X14935800Y-11632400D02*
X14895800Y-11672400D01*
X14898958Y-11928909D02*
X14938958Y-11968909D01*
X14938958Y-11928909D02*
X14898958Y-11968909D01*
X14929550Y-10190800D02*
X14969550Y-10230800D01*
X14969550Y-10190800D02*
X14929550Y-10230800D01*
X14940600Y-8831900D02*
X14980600Y-8871900D01*
X14980600Y-8831900D02*
X14940600Y-8871900D01*
X15004100Y-5695000D02*
X15044100Y-5735000D01*
X15044100Y-5695000D02*
X15004100Y-5735000D01*
X15022500Y-11486200D02*
X15062500Y-11526200D01*
X15062500Y-11486200D02*
X15022500Y-11526200D01*
X15029500Y-10190800D02*
X15069500Y-10230800D01*
X15069500Y-10190800D02*
X15029500Y-10230800D01*
X15035010Y-11061596D02*
X15075010Y-11101596D01*
X15075010Y-11061596D02*
X15035010Y-11101596D01*
X15054900Y-8958900D02*
X15094900Y-8998900D01*
X15094900Y-8958900D02*
X15054900Y-8998900D01*
X15080300Y-9911400D02*
X15120300Y-9951400D01*
X15120300Y-9911400D02*
X15080300Y-9951400D01*
X15238400Y-11270300D02*
X15278400Y-11310300D01*
X15278400Y-11270300D02*
X15238400Y-11310300D01*
X15283500Y-7600000D02*
X15323500Y-7640000D01*
X15323500Y-7600000D02*
X15283500Y-7640000D01*
X15308872Y-11060764D02*
X15348872Y-11100764D01*
X15348872Y-11060764D02*
X15308872Y-11100764D01*
X15312134Y-10404207D02*
X15352134Y-10444207D01*
X15352134Y-10404207D02*
X15312134Y-10444207D01*
X15314600Y-11486200D02*
X15354600Y-11526200D01*
X15354600Y-11486200D02*
X15314600Y-11526200D01*
X15334586Y-10678271D02*
X15374586Y-10718271D01*
X15374586Y-10678271D02*
X15334586Y-10718271D01*
X15378750Y-8870000D02*
X15418750Y-8910000D01*
X15418750Y-8870000D02*
X15378750Y-8910000D01*
X15378750Y-9187500D02*
X15418750Y-9227500D01*
X15418750Y-9187500D02*
X15378750Y-9227500D01*
X15378750Y-9901875D02*
X15418750Y-9941875D01*
X15418750Y-9901875D02*
X15378750Y-9941875D01*
X15378800Y-10186836D02*
X15418800Y-10226836D01*
X15418800Y-10186836D02*
X15378800Y-10226836D01*
X15380305Y-8518232D02*
X15420305Y-8558232D01*
X15420305Y-8518232D02*
X15380305Y-8558232D01*
X15458125Y-10533321D02*
X15498125Y-10573321D01*
X15498125Y-10533321D02*
X15458125Y-10573321D01*
X15474000Y-7600000D02*
X15514000Y-7640000D01*
X15514000Y-7600000D02*
X15474000Y-7640000D01*
X15626480Y-6394697D02*
X15666480Y-6434697D01*
X15666480Y-6394697D02*
X15626480Y-6434697D01*
X15627374Y-6575124D02*
X15667374Y-6615124D01*
X15667374Y-6575124D02*
X15627374Y-6615124D01*
X15635600Y-11692900D02*
X15675600Y-11732900D01*
X15675600Y-11692900D02*
X15635600Y-11732900D01*
X15658700Y-10457500D02*
X15698700Y-10497500D01*
X15698700Y-10457500D02*
X15658700Y-10497500D01*
X15658700Y-10616250D02*
X15698700Y-10656250D01*
X15698700Y-10616250D02*
X15658700Y-10656250D01*
X15696250Y-9911400D02*
X15736250Y-9951400D01*
X15736250Y-9911400D02*
X15696250Y-9951400D01*
X15709178Y-10810293D02*
X15749178Y-10850293D01*
X15749178Y-10810293D02*
X15709178Y-10850293D01*
X15714868Y-12116541D02*
X15754868Y-12156541D01*
X15754868Y-12116541D02*
X15714868Y-12156541D01*
X15715300Y-11054400D02*
X15755300Y-11094400D01*
X15755300Y-11054400D02*
X15715300Y-11094400D01*
X15715300Y-11257600D02*
X15755300Y-11297600D01*
X15755300Y-11257600D02*
X15715300Y-11297600D01*
X15715350Y-11914250D02*
X15755350Y-11954250D01*
X15755350Y-11914250D02*
X15715350Y-11954250D01*
X15715730Y-11155570D02*
X15755730Y-11195570D01*
X15755730Y-11155570D02*
X15715730Y-11195570D01*
X15716494Y-12015636D02*
X15756494Y-12055636D01*
X15756494Y-12015636D02*
X15716494Y-12055636D01*
X15775625Y-8870000D02*
X15815625Y-8910000D01*
X15815625Y-8870000D02*
X15775625Y-8910000D01*
X15829680Y-6394697D02*
X15869680Y-6434697D01*
X15869680Y-6394697D02*
X15829680Y-6434697D01*
X15830574Y-6575124D02*
X15870574Y-6615124D01*
X15870574Y-6575124D02*
X15830574Y-6615124D01*
X15839370Y-8305579D02*
X15879370Y-8345579D01*
X15879370Y-8305579D02*
X15839370Y-8345579D01*
X15840264Y-8486006D02*
X15880264Y-8526006D01*
X15880264Y-8486006D02*
X15840264Y-8526006D01*
X15855000Y-5695000D02*
X15895000Y-5735000D01*
X15895000Y-5695000D02*
X15855000Y-5735000D01*
X15855000Y-10775000D02*
X15895000Y-10815000D01*
X15895000Y-10775000D02*
X15855000Y-10815000D01*
X15855307Y-10412099D02*
X15895307Y-10452099D01*
X15895307Y-10412099D02*
X15855307Y-10452099D01*
X15880400Y-11054400D02*
X15920400Y-11094400D01*
X15920400Y-11054400D02*
X15880400Y-11094400D01*
X16042570Y-8305579D02*
X16082570Y-8345579D01*
X16082570Y-8305579D02*
X16042570Y-8345579D01*
X16043464Y-8486006D02*
X16083464Y-8526006D01*
X16083464Y-8486006D02*
X16043464Y-8526006D01*
X16071142Y-10408102D02*
X16111142Y-10448102D01*
X16111142Y-10408102D02*
X16071142Y-10448102D01*
X16071808Y-10209929D02*
X16111808Y-10249929D01*
X16111808Y-10209929D02*
X16071808Y-10249929D01*
X16093125Y-10775000D02*
X16133125Y-10815000D01*
X16133125Y-10775000D02*
X16093125Y-10815000D01*
X16231250Y-9505000D02*
X16271250Y-9545000D01*
X16271250Y-9505000D02*
X16231250Y-9545000D01*
X16337600Y-7600000D02*
X16377600Y-7640000D01*
X16377600Y-7600000D02*
X16337600Y-7640000D01*
X16410625Y-10408969D02*
X16450625Y-10448969D01*
X16450625Y-10408969D02*
X16410625Y-10448969D01*
X16431250Y-9505000D02*
X16471250Y-9545000D01*
X16471250Y-9505000D02*
X16431250Y-9545000D01*
X16464600Y-11410000D02*
X16504600Y-11450000D01*
X16504600Y-11410000D02*
X16464600Y-11450000D01*
X16667800Y-11410000D02*
X16707800Y-11450000D01*
X16707800Y-11410000D02*
X16667800Y-11450000D01*
X16705900Y-5695000D02*
X16745900Y-5735000D01*
X16745900Y-5695000D02*
X16705900Y-5735000D01*
X16728125Y-10408969D02*
X16768125Y-10448969D01*
X16768125Y-10408969D02*
X16728125Y-10448969D01*
X16909100Y-5695000D02*
X16949100Y-5735000D01*
X16949100Y-5695000D02*
X16909100Y-5735000D01*
X16934500Y-10178100D02*
X16974500Y-10218100D01*
X16974500Y-10178100D02*
X16934500Y-10218100D01*
X17047699Y-10410838D02*
X17087699Y-10450838D01*
X17087699Y-10410838D02*
X17047699Y-10450838D01*
X17163100Y-10178100D02*
X17203100Y-10218100D01*
X17203100Y-10178100D02*
X17163100Y-10218100D01*
X17175800Y-7600000D02*
X17215800Y-7640000D01*
X17215800Y-7600000D02*
X17175800Y-7640000D01*
X17221578Y-10733004D02*
X17261578Y-10773004D01*
X17261578Y-10733004D02*
X17221578Y-10773004D01*
X17290100Y-9505000D02*
X17330100Y-9545000D01*
X17330100Y-9505000D02*
X17290100Y-9545000D01*
X17337317Y-10409345D02*
X17377317Y-10449345D01*
X17377317Y-10409345D02*
X17337317Y-10449345D01*
X17379000Y-7600000D02*
X17419000Y-7640000D01*
X17419000Y-7600000D02*
X17379000Y-7640000D01*
X17521875Y-10733004D02*
X17561875Y-10773004D01*
X17561875Y-10733004D02*
X17521875Y-10773004D01*
X17525194Y-10411785D02*
X17565194Y-10451785D01*
X17565194Y-10411785D02*
X17525194Y-10451785D01*
X17560742Y-6399363D02*
X17600742Y-6439363D01*
X17600742Y-6399363D02*
X17560742Y-6439363D01*
X17561636Y-6579790D02*
X17601636Y-6619790D01*
X17601636Y-6579790D02*
X17561636Y-6619790D01*
X17569500Y-10178100D02*
X17609500Y-10218100D01*
X17609500Y-10178100D02*
X17569500Y-10218100D01*
X17696500Y-10965500D02*
X17736500Y-11005500D01*
X17736500Y-10965500D02*
X17696500Y-11005500D01*
X17696500Y-11886250D02*
X17736500Y-11926250D01*
X17736500Y-11886250D02*
X17696500Y-11926250D01*
X17697694Y-8305579D02*
X17737694Y-8345579D01*
X17737694Y-8305579D02*
X17697694Y-8345579D01*
X17698588Y-8486006D02*
X17738588Y-8526006D01*
X17738588Y-8486006D02*
X17698588Y-8526006D01*
X17760000Y-5301300D02*
X17800000Y-5341300D01*
X17800000Y-5301300D02*
X17760000Y-5341300D01*
X17760000Y-6076000D02*
X17800000Y-6116000D01*
X17800000Y-6076000D02*
X17760000Y-6116000D01*
X17763942Y-6399363D02*
X17803942Y-6439363D01*
X17803942Y-6399363D02*
X17763942Y-6439363D01*
X17764836Y-6579790D02*
X17804836Y-6619790D01*
X17804836Y-6579790D02*
X17764836Y-6619790D01*
X17839375Y-10412469D02*
X17879375Y-10452469D01*
X17879375Y-10412469D02*
X17839375Y-10452469D01*
X17839375Y-10733004D02*
X17879375Y-10773004D01*
X17879375Y-10733004D02*
X17839375Y-10773004D01*
X17900894Y-8305579D02*
X17940894Y-8345579D01*
X17940894Y-8305579D02*
X17900894Y-8345579D01*
X17901788Y-8486006D02*
X17941788Y-8526006D01*
X17941788Y-8486006D02*
X17901788Y-8526006D01*
X18136250Y-9505000D02*
X18176250Y-9545000D01*
X18176250Y-9505000D02*
X18136250Y-9545000D01*
X18156875Y-10412469D02*
X18196875Y-10452469D01*
X18196875Y-10412469D02*
X18156875Y-10452469D01*
X18156875Y-10714339D02*
X18196875Y-10754339D01*
X18196875Y-10714339D02*
X18156875Y-10754339D01*
X18229900Y-7219000D02*
X18269900Y-7259000D01*
X18269900Y-7219000D02*
X18229900Y-7259000D01*
X18229900Y-7981000D02*
X18269900Y-8021000D01*
X18269900Y-7981000D02*
X18229900Y-8021000D01*
X18315625Y-10965500D02*
X18355625Y-11005500D01*
X18355625Y-10965500D02*
X18315625Y-11005500D01*
X18315625Y-11886250D02*
X18355625Y-11926250D01*
X18355625Y-11886250D02*
X18315625Y-11926250D01*
X18336250Y-9505000D02*
X18376250Y-9545000D01*
X18376250Y-9505000D02*
X18336250Y-9545000D01*
X18402138Y-10714339D02*
X18442138Y-10754339D01*
X18442138Y-10714339D02*
X18402138Y-10754339D01*
X18473684Y-10411183D02*
X18513684Y-10451183D01*
X18513684Y-10411183D02*
X18473684Y-10451183D01*
X18496600Y-11410000D02*
X18536600Y-11450000D01*
X18536600Y-11410000D02*
X18496600Y-11450000D01*
X18610900Y-5695000D02*
X18650900Y-5735000D01*
X18650900Y-5695000D02*
X18610900Y-5735000D01*
X18701612Y-10712734D02*
X18741612Y-10752734D01*
X18741612Y-10712734D02*
X18701612Y-10752734D01*
X18712500Y-10190800D02*
X18752500Y-10230800D01*
X18752500Y-10190800D02*
X18712500Y-10230800D01*
X18791184Y-10411183D02*
X18831184Y-10451183D01*
X18831184Y-10411183D02*
X18791184Y-10451183D01*
X18812500Y-5695000D02*
X18852500Y-5735000D01*
X18852500Y-5695000D02*
X18812500Y-5735000D01*
X18844142Y-12149434D02*
X18884142Y-12189434D01*
X18884142Y-12149434D02*
X18844142Y-12189434D01*
X18894483Y-10872942D02*
X18934483Y-10912942D01*
X18934483Y-10872942D02*
X18894483Y-10912942D01*
X19003292Y-10409345D02*
X19043292Y-10449345D01*
X19043292Y-10409345D02*
X19003292Y-10449345D01*
X19004077Y-10190341D02*
X19044077Y-10230341D01*
X19044077Y-10190341D02*
X19004077Y-10230341D01*
X19093500Y-7600000D02*
X19133500Y-7640000D01*
X19133500Y-7600000D02*
X19093500Y-7640000D01*
X19182400Y-9111300D02*
X19222400Y-9151300D01*
X19222400Y-9111300D02*
X19182400Y-9151300D01*
X19233995Y-10188834D02*
X19273995Y-10228834D01*
X19273995Y-10188834D02*
X19233995Y-10228834D01*
X19236149Y-10410101D02*
X19276149Y-10450101D01*
X19276149Y-10410101D02*
X19236149Y-10450101D01*
X19284000Y-7600000D02*
X19324000Y-7640000D01*
X19324000Y-7600000D02*
X19284000Y-7640000D01*
X19322100Y-11410000D02*
X19362100Y-11450000D01*
X19362100Y-11410000D02*
X19322100Y-11450000D01*
X19433982Y-10411785D02*
X19473982Y-10451785D01*
X19473982Y-10411785D02*
X19433982Y-10451785D01*
X19480331Y-6399363D02*
X19520331Y-6439363D01*
X19520331Y-6399363D02*
X19480331Y-6439363D01*
X19481225Y-6579790D02*
X19521225Y-6619790D01*
X19521225Y-6579790D02*
X19481225Y-6619790D01*
X19525300Y-11410000D02*
X19565300Y-11450000D01*
X19565300Y-11410000D02*
X19525300Y-11450000D01*
X19612907Y-8489506D02*
X19652907Y-8529506D01*
X19652907Y-8489506D02*
X19612907Y-8529506D01*
X19613837Y-8301981D02*
X19653837Y-8341981D01*
X19653837Y-8301981D02*
X19613837Y-8341981D01*
X19665000Y-5695000D02*
X19705000Y-5735000D01*
X19705000Y-5695000D02*
X19665000Y-5735000D01*
X19683531Y-6399363D02*
X19723531Y-6439363D01*
X19723531Y-6399363D02*
X19683531Y-6439363D01*
X19684425Y-6579790D02*
X19724425Y-6619790D01*
X19724425Y-6579790D02*
X19684425Y-6619790D01*
X19744375Y-10412393D02*
X19784375Y-10452393D01*
X19784375Y-10412393D02*
X19744375Y-10452393D01*
X19816107Y-8489506D02*
X19856107Y-8529506D01*
X19856107Y-8489506D02*
X19816107Y-8529506D01*
X19817037Y-8301981D02*
X19857037Y-8341981D01*
X19857037Y-8301981D02*
X19817037Y-8341981D01*
X19965284Y-12155429D02*
X20005284Y-12195429D01*
X20005284Y-12155429D02*
X19965284Y-12195429D01*
X20041250Y-9505000D02*
X20081250Y-9545000D01*
X20081250Y-9505000D02*
X20041250Y-9545000D01*
X20046841Y-10724042D02*
X20086841Y-10764042D01*
X20086841Y-10724042D02*
X20046841Y-10764042D01*
X20047465Y-10610708D02*
X20087465Y-10650708D01*
X20087465Y-10610708D02*
X20047465Y-10650708D01*
X20139953Y-10437650D02*
X20179953Y-10477650D01*
X20179953Y-10437650D02*
X20139953Y-10477650D01*
X20147600Y-7600000D02*
X20187600Y-7640000D01*
X20187600Y-7600000D02*
X20147600Y-7640000D01*
X20241250Y-9505000D02*
X20281250Y-9545000D01*
X20281250Y-9505000D02*
X20241250Y-9545000D01*
X20363500Y-11410000D02*
X20403500Y-11450000D01*
X20403500Y-11410000D02*
X20363500Y-11450000D01*
X20455597Y-10662357D02*
X20495597Y-10702357D01*
X20495597Y-10662357D02*
X20455597Y-10702357D01*
X20458750Y-10417059D02*
X20498750Y-10457059D01*
X20498750Y-10417059D02*
X20458750Y-10457059D01*
X20458750Y-10762258D02*
X20498750Y-10802258D01*
X20498750Y-10762258D02*
X20458750Y-10802258D01*
X20515900Y-5695000D02*
X20555900Y-5735000D01*
X20555900Y-5695000D02*
X20515900Y-5735000D01*
X20617500Y-11806875D02*
X20657500Y-11846875D01*
X20657500Y-11806875D02*
X20617500Y-11846875D01*
X20630515Y-10725227D02*
X20670515Y-10765227D01*
X20670515Y-10725227D02*
X20630515Y-10765227D01*
X20696875Y-10127300D02*
X20736875Y-10167300D01*
X20736875Y-10127300D02*
X20696875Y-10167300D01*
X20719100Y-5695000D02*
X20759100Y-5735000D01*
X20759100Y-5695000D02*
X20719100Y-5735000D01*
X20776250Y-10416660D02*
X20816250Y-10456660D01*
X20816250Y-10416660D02*
X20776250Y-10456660D01*
X20935000Y-10130879D02*
X20975000Y-10170879D01*
X20975000Y-10130879D02*
X20935000Y-10170879D01*
X20998500Y-7600000D02*
X21038500Y-7640000D01*
X21038500Y-7600000D02*
X20998500Y-7640000D01*
X21014375Y-10879708D02*
X21054375Y-10919708D01*
X21054375Y-10879708D02*
X21014375Y-10919708D01*
X21015263Y-10677621D02*
X21055263Y-10717621D01*
X21055263Y-10677621D02*
X21015263Y-10717621D01*
X21100100Y-9505000D02*
X21140100Y-9545000D01*
X21140100Y-9505000D02*
X21100100Y-9545000D01*
X21148140Y-10417010D02*
X21188140Y-10457010D01*
X21188140Y-10417010D02*
X21148140Y-10457010D01*
X21170546Y-10140000D02*
X21210546Y-10180000D01*
X21210546Y-10140000D02*
X21170546Y-10180000D01*
X21189000Y-7600000D02*
X21229000Y-7640000D01*
X21229000Y-7600000D02*
X21189000Y-7640000D01*
X21354978Y-6399314D02*
X21394978Y-6439314D01*
X21394978Y-6399314D02*
X21354978Y-6439314D01*
X21355872Y-6579741D02*
X21395872Y-6619741D01*
X21395872Y-6579741D02*
X21355872Y-6619741D01*
X21411250Y-10414866D02*
X21451250Y-10454866D01*
X21451250Y-10414866D02*
X21411250Y-10454866D01*
X21422522Y-10189143D02*
X21462522Y-10229143D01*
X21462522Y-10189143D02*
X21422522Y-10229143D01*
X21468400Y-11410000D02*
X21508400Y-11450000D01*
X21508400Y-11410000D02*
X21468400Y-11450000D01*
X21507229Y-8303344D02*
X21547229Y-8343344D01*
X21547229Y-8303344D02*
X21507229Y-8343344D01*
X21508123Y-8483772D02*
X21548123Y-8523772D01*
X21548123Y-8483772D02*
X21508123Y-8523772D01*
X21558178Y-6399314D02*
X21598178Y-6439314D01*
X21598178Y-6399314D02*
X21558178Y-6439314D01*
X21559072Y-6579741D02*
X21599072Y-6619741D01*
X21599072Y-6579741D02*
X21559072Y-6619741D01*
X21570000Y-5695000D02*
X21610000Y-5735000D01*
X21610000Y-5695000D02*
X21570000Y-5735000D01*
X21671600Y-11410000D02*
X21711600Y-11450000D01*
X21711600Y-11410000D02*
X21671600Y-11450000D01*
X21710429Y-8303344D02*
X21750429Y-8343344D01*
X21750429Y-8303344D02*
X21710429Y-8343344D01*
X21711323Y-8483772D02*
X21751323Y-8523772D01*
X21751323Y-8483772D02*
X21711323Y-8523772D01*
X21721701Y-10415406D02*
X21761701Y-10455406D01*
X21761701Y-10415406D02*
X21721701Y-10455406D01*
X21946250Y-9505000D02*
X21986250Y-9545000D01*
X21986250Y-9505000D02*
X21946250Y-9545000D01*
X22046250Y-10415406D02*
X22086250Y-10455406D01*
X22086250Y-10415406D02*
X22046250Y-10455406D01*
X22146250Y-9505000D02*
X22186250Y-9545000D01*
X22186250Y-9505000D02*
X22146250Y-9545000D01*
X22255800Y-12045000D02*
X22295800Y-12085000D01*
X22295800Y-12045000D02*
X22255800Y-12085000D01*
X22284375Y-10854375D02*
X22324375Y-10894375D01*
X22324375Y-10854375D02*
X22284375Y-10894375D01*
X22408200Y-7219000D02*
X22448200Y-7259000D01*
X22448200Y-7219000D02*
X22408200Y-7259000D01*
X22408200Y-7993700D02*
X22448200Y-8033700D01*
X22448200Y-7993700D02*
X22408200Y-8033700D01*
X22420900Y-5695000D02*
X22460900Y-5735000D01*
X22460900Y-5695000D02*
X22420900Y-5735000D01*
X22582807Y-10140000D02*
X22622807Y-10180000D01*
X22622807Y-10140000D02*
X22582807Y-10180000D01*
X22624100Y-5695000D02*
X22664100Y-5735000D01*
X22664100Y-5695000D02*
X22624100Y-5735000D01*
X22776500Y-7600000D02*
X22816500Y-7640000D01*
X22816500Y-7600000D02*
X22776500Y-7640000D01*
X22840000Y-9822500D02*
X22880000Y-9862500D01*
X22880000Y-9822500D02*
X22840000Y-9862500D01*
X22840000Y-10140000D02*
X22880000Y-10180000D01*
X22880000Y-10140000D02*
X22840000Y-10180000D01*
X22903500Y-9505000D02*
X22943500Y-9545000D01*
X22943500Y-9505000D02*
X22903500Y-9545000D01*
X23131222Y-9767213D02*
X23171222Y-9807213D01*
X23171222Y-9767213D02*
X23131222Y-9807213D01*
X23132100Y-9098600D02*
X23172100Y-9138600D01*
X23172100Y-9098600D02*
X23132100Y-9138600D01*
X23133421Y-10137667D02*
X23173421Y-10177667D01*
X23173421Y-10137667D02*
X23133421Y-10177667D01*
X23163583Y-6398635D02*
X23203583Y-6438635D01*
X23203583Y-6398635D02*
X23163583Y-6438635D01*
X23164477Y-6579062D02*
X23204477Y-6619062D01*
X23204477Y-6579062D02*
X23164477Y-6619062D01*
X23191464Y-8490771D02*
X23231464Y-8530771D01*
X23231464Y-8490771D02*
X23191464Y-8530771D01*
X23192277Y-8300327D02*
X23232277Y-8340327D01*
X23232277Y-8300327D02*
X23192277Y-8340327D01*
X23366783Y-6398635D02*
X23406783Y-6438635D01*
X23406783Y-6398635D02*
X23366783Y-6438635D01*
X23367677Y-6579062D02*
X23407677Y-6619062D01*
X23407677Y-6579062D02*
X23367677Y-6619062D01*
X23394664Y-8490771D02*
X23434664Y-8530771D01*
X23434664Y-8490771D02*
X23394664Y-8530771D01*
X23395477Y-8300327D02*
X23435477Y-8340327D01*
X23435477Y-8300327D02*
X23395477Y-8340327D01*
X23475000Y-5314000D02*
X23515000Y-5354000D01*
X23515000Y-5314000D02*
X23475000Y-5354000D01*
X23475000Y-6088700D02*
X23515000Y-6128700D01*
X23515000Y-6088700D02*
X23475000Y-6128700D01*
X23614700Y-7600000D02*
X23654700Y-7640000D01*
X23654700Y-7600000D02*
X23614700Y-7640000D01*
X23633750Y-10140000D02*
X23673750Y-10180000D01*
X23673750Y-10140000D02*
X23633750Y-10180000D01*
X23805200Y-7600000D02*
X23845200Y-7640000D01*
X23845200Y-7600000D02*
X23805200Y-7640000D01*
X24089500Y-9505000D02*
X24129500Y-9545000D01*
X24129500Y-9505000D02*
X24089500Y-9545000D01*
X24287800Y-9505000D02*
X24327800Y-9545000D01*
X24327800Y-9505000D02*
X24287800Y-9545000D01*
X24325900Y-5695000D02*
X24365900Y-5735000D01*
X24365900Y-5695000D02*
X24325900Y-5735000D01*
X24376700Y-8552500D02*
X24416700Y-8592500D01*
X24416700Y-8552500D02*
X24376700Y-8592500D01*
X24389400Y-6952300D02*
X24429400Y-6992300D01*
X24429400Y-6952300D02*
X24389400Y-6992300D01*
X24529100Y-5695000D02*
X24569100Y-5735000D01*
X24569100Y-5695000D02*
X24529100Y-5735000D01*
X24586250Y-7600000D02*
X24626250Y-7640000D01*
X24626250Y-7600000D02*
X24586250Y-7640000D01*
X24627357Y-10146691D02*
X24667357Y-10186691D01*
X24667357Y-10146691D02*
X24627357Y-10186691D01*
X24681500Y-8882700D02*
X24721500Y-8922700D01*
X24721500Y-8882700D02*
X24681500Y-8922700D01*
X24840250Y-10120950D02*
X24880250Y-10160950D01*
X24880250Y-10120950D02*
X24840250Y-10160950D01*
X25087900Y-5060000D02*
X25127900Y-5100000D01*
X25127900Y-5060000D02*
X25087900Y-5100000D01*
X25087900Y-9492300D02*
X25127900Y-9532300D01*
X25127900Y-9492300D02*
X25087900Y-9532300D01*
X25100600Y-6330000D02*
X25140600Y-6370000D01*
X25140600Y-6330000D02*
X25100600Y-6370000D01*
X18147500Y-11302500D02*
G75*
G03*
X18047500Y-11302500I-50000J0D01*
G01*
X18047500Y-11302500D02*
G75*
G03*
X18147500Y-11302500I50000J0D01*
G01*
X18147500Y-11556500D02*
G75*
G03*
X18047500Y-11556500I-50000J0D01*
G01*
X18047500Y-11556500D02*
G75*
G03*
X18147500Y-11556500I50000J0D01*
G01*
D11*
X4695777Y-12696486D02*
X4695777Y-12496486D01*
X4695777Y-12496486D02*
X4743396Y-12496486D01*
X4743396Y-12496486D02*
X4771967Y-12506009D01*
X4771967Y-12506009D02*
X4791015Y-12525057D01*
X4791015Y-12525057D02*
X4800539Y-12544105D01*
X4800539Y-12544105D02*
X4810063Y-12582200D01*
X4810063Y-12582200D02*
X4810063Y-12610771D01*
X4810063Y-12610771D02*
X4800539Y-12648866D01*
X4800539Y-12648866D02*
X4791015Y-12667914D01*
X4791015Y-12667914D02*
X4771967Y-12686962D01*
X4771967Y-12686962D02*
X4743396Y-12696486D01*
X4743396Y-12696486D02*
X4695777Y-12696486D01*
X4895777Y-12696486D02*
X4895777Y-12563152D01*
X4895777Y-12601247D02*
X4905301Y-12582200D01*
X4905301Y-12582200D02*
X4914824Y-12572676D01*
X4914824Y-12572676D02*
X4933872Y-12563152D01*
X4933872Y-12563152D02*
X4952920Y-12563152D01*
X5019586Y-12696486D02*
X5019586Y-12563152D01*
X5019586Y-12496486D02*
X5010063Y-12506009D01*
X5010063Y-12506009D02*
X5019586Y-12515533D01*
X5019586Y-12515533D02*
X5029110Y-12506009D01*
X5029110Y-12506009D02*
X5019586Y-12496486D01*
X5019586Y-12496486D02*
X5019586Y-12515533D01*
X5143396Y-12696486D02*
X5124348Y-12686962D01*
X5124348Y-12686962D02*
X5114824Y-12667914D01*
X5114824Y-12667914D02*
X5114824Y-12496486D01*
X5248158Y-12696486D02*
X5229110Y-12686962D01*
X5229110Y-12686962D02*
X5219586Y-12667914D01*
X5219586Y-12667914D02*
X5219586Y-12496486D01*
X5476729Y-12696486D02*
X5476729Y-12496486D01*
X5476729Y-12496486D02*
X5543396Y-12639343D01*
X5543396Y-12639343D02*
X5610062Y-12496486D01*
X5610062Y-12496486D02*
X5610062Y-12696486D01*
X5791015Y-12696486D02*
X5791015Y-12591724D01*
X5791015Y-12591724D02*
X5781491Y-12572676D01*
X5781491Y-12572676D02*
X5762443Y-12563152D01*
X5762443Y-12563152D02*
X5724348Y-12563152D01*
X5724348Y-12563152D02*
X5705301Y-12572676D01*
X5791015Y-12686962D02*
X5771967Y-12696486D01*
X5771967Y-12696486D02*
X5724348Y-12696486D01*
X5724348Y-12696486D02*
X5705301Y-12686962D01*
X5705301Y-12686962D02*
X5695777Y-12667914D01*
X5695777Y-12667914D02*
X5695777Y-12648866D01*
X5695777Y-12648866D02*
X5705301Y-12629819D01*
X5705301Y-12629819D02*
X5724348Y-12620295D01*
X5724348Y-12620295D02*
X5771967Y-12620295D01*
X5771967Y-12620295D02*
X5791015Y-12610771D01*
X5886253Y-12563152D02*
X5886253Y-12763152D01*
X5886253Y-12572676D02*
X5905301Y-12563152D01*
X5905301Y-12563152D02*
X5943396Y-12563152D01*
X5943396Y-12563152D02*
X5962443Y-12572676D01*
X5962443Y-12572676D02*
X5971967Y-12582200D01*
X5971967Y-12582200D02*
X5981491Y-12601247D01*
X5981491Y-12601247D02*
X5981491Y-12658390D01*
X5981491Y-12658390D02*
X5971967Y-12677438D01*
X5971967Y-12677438D02*
X5962443Y-12686962D01*
X5962443Y-12686962D02*
X5943396Y-12696486D01*
X5943396Y-12696486D02*
X5905301Y-12696486D01*
X5905301Y-12696486D02*
X5886253Y-12686962D01*
X6067205Y-12677438D02*
X6076729Y-12686962D01*
X6076729Y-12686962D02*
X6067205Y-12696486D01*
X6067205Y-12696486D02*
X6057682Y-12686962D01*
X6057682Y-12686962D02*
X6067205Y-12677438D01*
X6067205Y-12677438D02*
X6067205Y-12696486D01*
X6067205Y-12572676D02*
X6076729Y-12582200D01*
X6076729Y-12582200D02*
X6067205Y-12591724D01*
X6067205Y-12591724D02*
X6057682Y-12582200D01*
X6057682Y-12582200D02*
X6067205Y-12572676D01*
X6067205Y-12572676D02*
X6067205Y-12591724D01*
D12*
X4395000Y-13005002D02*
X4435000Y-13045002D01*
X4435000Y-13005002D02*
X4395000Y-13045002D01*
D11*
X4733872Y-12916486D02*
X4752920Y-12916486D01*
X4752920Y-12916486D02*
X4771967Y-12926009D01*
X4771967Y-12926009D02*
X4781491Y-12935533D01*
X4781491Y-12935533D02*
X4791015Y-12954581D01*
X4791015Y-12954581D02*
X4800539Y-12992676D01*
X4800539Y-12992676D02*
X4800539Y-13040295D01*
X4800539Y-13040295D02*
X4791015Y-13078390D01*
X4791015Y-13078390D02*
X4781491Y-13097438D01*
X4781491Y-13097438D02*
X4771967Y-13106962D01*
X4771967Y-13106962D02*
X4752920Y-13116486D01*
X4752920Y-13116486D02*
X4733872Y-13116486D01*
X4733872Y-13116486D02*
X4714824Y-13106962D01*
X4714824Y-13106962D02*
X4705301Y-13097438D01*
X4705301Y-13097438D02*
X4695777Y-13078390D01*
X4695777Y-13078390D02*
X4686253Y-13040295D01*
X4686253Y-13040295D02*
X4686253Y-12992676D01*
X4686253Y-12992676D02*
X4695777Y-12954581D01*
X4695777Y-12954581D02*
X4705301Y-12935533D01*
X4705301Y-12935533D02*
X4714824Y-12926009D01*
X4714824Y-12926009D02*
X4733872Y-12916486D01*
X4886253Y-13097438D02*
X4895777Y-13106962D01*
X4895777Y-13106962D02*
X4886253Y-13116486D01*
X4886253Y-13116486D02*
X4876729Y-13106962D01*
X4876729Y-13106962D02*
X4886253Y-13097438D01*
X4886253Y-13097438D02*
X4886253Y-13116486D01*
X5067205Y-12983152D02*
X5067205Y-13116486D01*
X5019586Y-12906962D02*
X4971967Y-13049819D01*
X4971967Y-13049819D02*
X5095777Y-13049819D01*
X5210063Y-12916486D02*
X5229110Y-12916486D01*
X5229110Y-12916486D02*
X5248158Y-12926009D01*
X5248158Y-12926009D02*
X5257682Y-12935533D01*
X5257682Y-12935533D02*
X5267205Y-12954581D01*
X5267205Y-12954581D02*
X5276729Y-12992676D01*
X5276729Y-12992676D02*
X5276729Y-13040295D01*
X5276729Y-13040295D02*
X5267205Y-13078390D01*
X5267205Y-13078390D02*
X5257682Y-13097438D01*
X5257682Y-13097438D02*
X5248158Y-13106962D01*
X5248158Y-13106962D02*
X5229110Y-13116486D01*
X5229110Y-13116486D02*
X5210063Y-13116486D01*
X5210063Y-13116486D02*
X5191015Y-13106962D01*
X5191015Y-13106962D02*
X5181491Y-13097438D01*
X5181491Y-13097438D02*
X5171967Y-13078390D01*
X5171967Y-13078390D02*
X5162444Y-13040295D01*
X5162444Y-13040295D02*
X5162444Y-12992676D01*
X5162444Y-12992676D02*
X5171967Y-12954581D01*
X5171967Y-12954581D02*
X5181491Y-12935533D01*
X5181491Y-12935533D02*
X5191015Y-12926009D01*
X5191015Y-12926009D02*
X5210063Y-12916486D01*
X5400539Y-12916486D02*
X5419586Y-12916486D01*
X5419586Y-12916486D02*
X5438634Y-12926009D01*
X5438634Y-12926009D02*
X5448158Y-12935533D01*
X5448158Y-12935533D02*
X5457682Y-12954581D01*
X5457682Y-12954581D02*
X5467205Y-12992676D01*
X5467205Y-12992676D02*
X5467205Y-13040295D01*
X5467205Y-13040295D02*
X5457682Y-13078390D01*
X5457682Y-13078390D02*
X5448158Y-13097438D01*
X5448158Y-13097438D02*
X5438634Y-13106962D01*
X5438634Y-13106962D02*
X5419586Y-13116486D01*
X5419586Y-13116486D02*
X5400539Y-13116486D01*
X5400539Y-13116486D02*
X5381491Y-13106962D01*
X5381491Y-13106962D02*
X5371967Y-13097438D01*
X5371967Y-13097438D02*
X5362444Y-13078390D01*
X5362444Y-13078390D02*
X5352920Y-13040295D01*
X5352920Y-13040295D02*
X5352920Y-12992676D01*
X5352920Y-12992676D02*
X5362444Y-12954581D01*
X5362444Y-12954581D02*
X5371967Y-12935533D01*
X5371967Y-12935533D02*
X5381491Y-12926009D01*
X5381491Y-12926009D02*
X5400539Y-12916486D01*
X5552920Y-13116486D02*
X5552920Y-12983152D01*
X5552920Y-13002200D02*
X5562444Y-12992676D01*
X5562444Y-12992676D02*
X5581491Y-12983152D01*
X5581491Y-12983152D02*
X5610063Y-12983152D01*
X5610063Y-12983152D02*
X5629110Y-12992676D01*
X5629110Y-12992676D02*
X5638634Y-13011724D01*
X5638634Y-13011724D02*
X5638634Y-13116486D01*
X5638634Y-13011724D02*
X5648158Y-12992676D01*
X5648158Y-12992676D02*
X5667205Y-12983152D01*
X5667205Y-12983152D02*
X5695777Y-12983152D01*
X5695777Y-12983152D02*
X5714824Y-12992676D01*
X5714824Y-12992676D02*
X5724348Y-13011724D01*
X5724348Y-13011724D02*
X5724348Y-13116486D01*
X5819586Y-13116486D02*
X5819586Y-12983152D01*
X5819586Y-13002200D02*
X5829110Y-12992676D01*
X5829110Y-12992676D02*
X5848158Y-12983152D01*
X5848158Y-12983152D02*
X5876729Y-12983152D01*
X5876729Y-12983152D02*
X5895777Y-12992676D01*
X5895777Y-12992676D02*
X5905301Y-13011724D01*
X5905301Y-13011724D02*
X5905301Y-13116486D01*
X5905301Y-13011724D02*
X5914824Y-12992676D01*
X5914824Y-12992676D02*
X5933872Y-12983152D01*
X5933872Y-12983152D02*
X5962443Y-12983152D01*
X5962443Y-12983152D02*
X5981491Y-12992676D01*
X5981491Y-12992676D02*
X5991015Y-13011724D01*
X5991015Y-13011724D02*
X5991015Y-13116486D01*
X6381491Y-12906962D02*
X6210063Y-13164105D01*
X6638634Y-12916486D02*
X6657682Y-12916486D01*
X6657682Y-12916486D02*
X6676729Y-12926009D01*
X6676729Y-12926009D02*
X6686253Y-12935533D01*
X6686253Y-12935533D02*
X6695777Y-12954581D01*
X6695777Y-12954581D02*
X6705301Y-12992676D01*
X6705301Y-12992676D02*
X6705301Y-13040295D01*
X6705301Y-13040295D02*
X6695777Y-13078390D01*
X6695777Y-13078390D02*
X6686253Y-13097438D01*
X6686253Y-13097438D02*
X6676729Y-13106962D01*
X6676729Y-13106962D02*
X6657682Y-13116486D01*
X6657682Y-13116486D02*
X6638634Y-13116486D01*
X6638634Y-13116486D02*
X6619586Y-13106962D01*
X6619586Y-13106962D02*
X6610063Y-13097438D01*
X6610063Y-13097438D02*
X6600539Y-13078390D01*
X6600539Y-13078390D02*
X6591015Y-13040295D01*
X6591015Y-13040295D02*
X6591015Y-12992676D01*
X6591015Y-12992676D02*
X6600539Y-12954581D01*
X6600539Y-12954581D02*
X6610063Y-12935533D01*
X6610063Y-12935533D02*
X6619586Y-12926009D01*
X6619586Y-12926009D02*
X6638634Y-12916486D01*
X6791015Y-13097438D02*
X6800539Y-13106962D01*
X6800539Y-13106962D02*
X6791015Y-13116486D01*
X6791015Y-13116486D02*
X6781491Y-13106962D01*
X6781491Y-13106962D02*
X6791015Y-13097438D01*
X6791015Y-13097438D02*
X6791015Y-13116486D01*
X6924348Y-12916486D02*
X6943396Y-12916486D01*
X6943396Y-12916486D02*
X6962444Y-12926009D01*
X6962444Y-12926009D02*
X6971967Y-12935533D01*
X6971967Y-12935533D02*
X6981491Y-12954581D01*
X6981491Y-12954581D02*
X6991015Y-12992676D01*
X6991015Y-12992676D02*
X6991015Y-13040295D01*
X6991015Y-13040295D02*
X6981491Y-13078390D01*
X6981491Y-13078390D02*
X6971967Y-13097438D01*
X6971967Y-13097438D02*
X6962444Y-13106962D01*
X6962444Y-13106962D02*
X6943396Y-13116486D01*
X6943396Y-13116486D02*
X6924348Y-13116486D01*
X6924348Y-13116486D02*
X6905301Y-13106962D01*
X6905301Y-13106962D02*
X6895777Y-13097438D01*
X6895777Y-13097438D02*
X6886253Y-13078390D01*
X6886253Y-13078390D02*
X6876729Y-13040295D01*
X6876729Y-13040295D02*
X6876729Y-12992676D01*
X6876729Y-12992676D02*
X6886253Y-12954581D01*
X6886253Y-12954581D02*
X6895777Y-12935533D01*
X6895777Y-12935533D02*
X6905301Y-12926009D01*
X6905301Y-12926009D02*
X6924348Y-12916486D01*
X7181491Y-13116486D02*
X7067206Y-13116486D01*
X7124348Y-13116486D02*
X7124348Y-12916486D01*
X7124348Y-12916486D02*
X7105301Y-12945057D01*
X7105301Y-12945057D02*
X7086253Y-12964105D01*
X7086253Y-12964105D02*
X7067206Y-12973628D01*
X7362444Y-12916486D02*
X7267206Y-12916486D01*
X7267206Y-12916486D02*
X7257682Y-13011724D01*
X7257682Y-13011724D02*
X7267206Y-13002200D01*
X7267206Y-13002200D02*
X7286253Y-12992676D01*
X7286253Y-12992676D02*
X7333872Y-12992676D01*
X7333872Y-12992676D02*
X7352920Y-13002200D01*
X7352920Y-13002200D02*
X7362444Y-13011724D01*
X7362444Y-13011724D02*
X7371967Y-13030771D01*
X7371967Y-13030771D02*
X7371967Y-13078390D01*
X7371967Y-13078390D02*
X7362444Y-13097438D01*
X7362444Y-13097438D02*
X7352920Y-13106962D01*
X7352920Y-13106962D02*
X7333872Y-13116486D01*
X7333872Y-13116486D02*
X7286253Y-13116486D01*
X7286253Y-13116486D02*
X7267206Y-13106962D01*
X7267206Y-13106962D02*
X7257682Y-13097438D01*
X7438634Y-12916486D02*
X7571967Y-12916486D01*
X7571967Y-12916486D02*
X7486253Y-13116486D01*
X7638634Y-12916486D02*
X7638634Y-12954581D01*
X7714825Y-12916486D02*
X7714825Y-12954581D01*
X8010063Y-13192676D02*
X8000539Y-13183152D01*
X8000539Y-13183152D02*
X7981491Y-13154581D01*
X7981491Y-13154581D02*
X7971968Y-13135533D01*
X7971968Y-13135533D02*
X7962444Y-13106962D01*
X7962444Y-13106962D02*
X7952920Y-13059343D01*
X7952920Y-13059343D02*
X7952920Y-13021247D01*
X7952920Y-13021247D02*
X7962444Y-12973628D01*
X7962444Y-12973628D02*
X7971968Y-12945057D01*
X7971968Y-12945057D02*
X7981491Y-12926009D01*
X7981491Y-12926009D02*
X8000539Y-12897438D01*
X8000539Y-12897438D02*
X8010063Y-12887914D01*
X8171968Y-12983152D02*
X8171968Y-13116486D01*
X8124348Y-12906962D02*
X8076729Y-13049819D01*
X8076729Y-13049819D02*
X8200539Y-13049819D01*
X8362444Y-12983152D02*
X8362444Y-13116486D01*
X8314825Y-12906962D02*
X8267206Y-13049819D01*
X8267206Y-13049819D02*
X8391015Y-13049819D01*
X8457682Y-12935533D02*
X8467206Y-12926009D01*
X8467206Y-12926009D02*
X8486253Y-12916486D01*
X8486253Y-12916486D02*
X8533872Y-12916486D01*
X8533872Y-12916486D02*
X8552920Y-12926009D01*
X8552920Y-12926009D02*
X8562444Y-12935533D01*
X8562444Y-12935533D02*
X8571968Y-12954581D01*
X8571968Y-12954581D02*
X8571968Y-12973628D01*
X8571968Y-12973628D02*
X8562444Y-13002200D01*
X8562444Y-13002200D02*
X8448158Y-13116486D01*
X8448158Y-13116486D02*
X8571968Y-13116486D01*
X8810063Y-13116486D02*
X8810063Y-12916486D01*
X8895777Y-13116486D02*
X8895777Y-13011724D01*
X8895777Y-13011724D02*
X8886253Y-12992676D01*
X8886253Y-12992676D02*
X8867206Y-12983152D01*
X8867206Y-12983152D02*
X8838634Y-12983152D01*
X8838634Y-12983152D02*
X8819587Y-12992676D01*
X8819587Y-12992676D02*
X8810063Y-13002200D01*
X9019587Y-13116486D02*
X9000539Y-13106962D01*
X9000539Y-13106962D02*
X8991015Y-13097438D01*
X8991015Y-13097438D02*
X8981492Y-13078390D01*
X8981492Y-13078390D02*
X8981492Y-13021247D01*
X8981492Y-13021247D02*
X8991015Y-13002200D01*
X8991015Y-13002200D02*
X9000539Y-12992676D01*
X9000539Y-12992676D02*
X9019587Y-12983152D01*
X9019587Y-12983152D02*
X9048158Y-12983152D01*
X9048158Y-12983152D02*
X9067206Y-12992676D01*
X9067206Y-12992676D02*
X9076730Y-13002200D01*
X9076730Y-13002200D02*
X9086253Y-13021247D01*
X9086253Y-13021247D02*
X9086253Y-13078390D01*
X9086253Y-13078390D02*
X9076730Y-13097438D01*
X9076730Y-13097438D02*
X9067206Y-13106962D01*
X9067206Y-13106962D02*
X9048158Y-13116486D01*
X9048158Y-13116486D02*
X9019587Y-13116486D01*
X9200539Y-13116486D02*
X9181492Y-13106962D01*
X9181492Y-13106962D02*
X9171968Y-13087914D01*
X9171968Y-13087914D02*
X9171968Y-12916486D01*
X9352920Y-13106962D02*
X9333873Y-13116486D01*
X9333873Y-13116486D02*
X9295777Y-13116486D01*
X9295777Y-13116486D02*
X9276730Y-13106962D01*
X9276730Y-13106962D02*
X9267206Y-13087914D01*
X9267206Y-13087914D02*
X9267206Y-13011724D01*
X9267206Y-13011724D02*
X9276730Y-12992676D01*
X9276730Y-12992676D02*
X9295777Y-12983152D01*
X9295777Y-12983152D02*
X9333873Y-12983152D01*
X9333873Y-12983152D02*
X9352920Y-12992676D01*
X9352920Y-12992676D02*
X9362444Y-13011724D01*
X9362444Y-13011724D02*
X9362444Y-13030771D01*
X9362444Y-13030771D02*
X9267206Y-13049819D01*
X9438634Y-13106962D02*
X9457682Y-13116486D01*
X9457682Y-13116486D02*
X9495777Y-13116486D01*
X9495777Y-13116486D02*
X9514825Y-13106962D01*
X9514825Y-13106962D02*
X9524349Y-13087914D01*
X9524349Y-13087914D02*
X9524349Y-13078390D01*
X9524349Y-13078390D02*
X9514825Y-13059343D01*
X9514825Y-13059343D02*
X9495777Y-13049819D01*
X9495777Y-13049819D02*
X9467206Y-13049819D01*
X9467206Y-13049819D02*
X9448158Y-13040295D01*
X9448158Y-13040295D02*
X9438634Y-13021247D01*
X9438634Y-13021247D02*
X9438634Y-13011724D01*
X9438634Y-13011724D02*
X9448158Y-12992676D01*
X9448158Y-12992676D02*
X9467206Y-12983152D01*
X9467206Y-12983152D02*
X9495777Y-12983152D01*
X9495777Y-12983152D02*
X9514825Y-12992676D01*
X9591015Y-13192676D02*
X9600539Y-13183152D01*
X9600539Y-13183152D02*
X9619587Y-13154581D01*
X9619587Y-13154581D02*
X9629111Y-13135533D01*
X9629111Y-13135533D02*
X9638634Y-13106962D01*
X9638634Y-13106962D02*
X9648158Y-13059343D01*
X9648158Y-13059343D02*
X9648158Y-13021247D01*
X9648158Y-13021247D02*
X9638634Y-12973628D01*
X9638634Y-12973628D02*
X9629111Y-12945057D01*
X9629111Y-12945057D02*
X9619587Y-12926009D01*
X9619587Y-12926009D02*
X9600539Y-12897438D01*
X9600539Y-12897438D02*
X9591015Y-12887914D01*
D12*
X4435000Y-13289002D02*
G75*
G03*
X4335000Y-13289002I-50000J0D01*
G01*
X4335000Y-13289002D02*
G75*
G03*
X4435000Y-13289002I50000J0D01*
G01*
D11*
X4800539Y-13380486D02*
X4686253Y-13380486D01*
X4743396Y-13380486D02*
X4743396Y-13180486D01*
X4743396Y-13180486D02*
X4724348Y-13209057D01*
X4724348Y-13209057D02*
X4705301Y-13228105D01*
X4705301Y-13228105D02*
X4686253Y-13237628D01*
X4886253Y-13361438D02*
X4895777Y-13370962D01*
X4895777Y-13370962D02*
X4886253Y-13380486D01*
X4886253Y-13380486D02*
X4876729Y-13370962D01*
X4876729Y-13370962D02*
X4886253Y-13361438D01*
X4886253Y-13361438D02*
X4886253Y-13380486D01*
X5019586Y-13180486D02*
X5038634Y-13180486D01*
X5038634Y-13180486D02*
X5057682Y-13190009D01*
X5057682Y-13190009D02*
X5067205Y-13199533D01*
X5067205Y-13199533D02*
X5076729Y-13218581D01*
X5076729Y-13218581D02*
X5086253Y-13256676D01*
X5086253Y-13256676D02*
X5086253Y-13304295D01*
X5086253Y-13304295D02*
X5076729Y-13342390D01*
X5076729Y-13342390D02*
X5067205Y-13361438D01*
X5067205Y-13361438D02*
X5057682Y-13370962D01*
X5057682Y-13370962D02*
X5038634Y-13380486D01*
X5038634Y-13380486D02*
X5019586Y-13380486D01*
X5019586Y-13380486D02*
X5000539Y-13370962D01*
X5000539Y-13370962D02*
X4991015Y-13361438D01*
X4991015Y-13361438D02*
X4981491Y-13342390D01*
X4981491Y-13342390D02*
X4971967Y-13304295D01*
X4971967Y-13304295D02*
X4971967Y-13256676D01*
X4971967Y-13256676D02*
X4981491Y-13218581D01*
X4981491Y-13218581D02*
X4991015Y-13199533D01*
X4991015Y-13199533D02*
X5000539Y-13190009D01*
X5000539Y-13190009D02*
X5019586Y-13180486D01*
X5210063Y-13180486D02*
X5229110Y-13180486D01*
X5229110Y-13180486D02*
X5248158Y-13190009D01*
X5248158Y-13190009D02*
X5257682Y-13199533D01*
X5257682Y-13199533D02*
X5267205Y-13218581D01*
X5267205Y-13218581D02*
X5276729Y-13256676D01*
X5276729Y-13256676D02*
X5276729Y-13304295D01*
X5276729Y-13304295D02*
X5267205Y-13342390D01*
X5267205Y-13342390D02*
X5257682Y-13361438D01*
X5257682Y-13361438D02*
X5248158Y-13370962D01*
X5248158Y-13370962D02*
X5229110Y-13380486D01*
X5229110Y-13380486D02*
X5210063Y-13380486D01*
X5210063Y-13380486D02*
X5191015Y-13370962D01*
X5191015Y-13370962D02*
X5181491Y-13361438D01*
X5181491Y-13361438D02*
X5171967Y-13342390D01*
X5171967Y-13342390D02*
X5162444Y-13304295D01*
X5162444Y-13304295D02*
X5162444Y-13256676D01*
X5162444Y-13256676D02*
X5171967Y-13218581D01*
X5171967Y-13218581D02*
X5181491Y-13199533D01*
X5181491Y-13199533D02*
X5191015Y-13190009D01*
X5191015Y-13190009D02*
X5210063Y-13180486D01*
X5400539Y-13180486D02*
X5419586Y-13180486D01*
X5419586Y-13180486D02*
X5438634Y-13190009D01*
X5438634Y-13190009D02*
X5448158Y-13199533D01*
X5448158Y-13199533D02*
X5457682Y-13218581D01*
X5457682Y-13218581D02*
X5467205Y-13256676D01*
X5467205Y-13256676D02*
X5467205Y-13304295D01*
X5467205Y-13304295D02*
X5457682Y-13342390D01*
X5457682Y-13342390D02*
X5448158Y-13361438D01*
X5448158Y-13361438D02*
X5438634Y-13370962D01*
X5438634Y-13370962D02*
X5419586Y-13380486D01*
X5419586Y-13380486D02*
X5400539Y-13380486D01*
X5400539Y-13380486D02*
X5381491Y-13370962D01*
X5381491Y-13370962D02*
X5371967Y-13361438D01*
X5371967Y-13361438D02*
X5362444Y-13342390D01*
X5362444Y-13342390D02*
X5352920Y-13304295D01*
X5352920Y-13304295D02*
X5352920Y-13256676D01*
X5352920Y-13256676D02*
X5362444Y-13218581D01*
X5362444Y-13218581D02*
X5371967Y-13199533D01*
X5371967Y-13199533D02*
X5381491Y-13190009D01*
X5381491Y-13190009D02*
X5400539Y-13180486D01*
X5552920Y-13380486D02*
X5552920Y-13247152D01*
X5552920Y-13266200D02*
X5562444Y-13256676D01*
X5562444Y-13256676D02*
X5581491Y-13247152D01*
X5581491Y-13247152D02*
X5610063Y-13247152D01*
X5610063Y-13247152D02*
X5629110Y-13256676D01*
X5629110Y-13256676D02*
X5638634Y-13275724D01*
X5638634Y-13275724D02*
X5638634Y-13380486D01*
X5638634Y-13275724D02*
X5648158Y-13256676D01*
X5648158Y-13256676D02*
X5667205Y-13247152D01*
X5667205Y-13247152D02*
X5695777Y-13247152D01*
X5695777Y-13247152D02*
X5714824Y-13256676D01*
X5714824Y-13256676D02*
X5724348Y-13275724D01*
X5724348Y-13275724D02*
X5724348Y-13380486D01*
X5819586Y-13380486D02*
X5819586Y-13247152D01*
X5819586Y-13266200D02*
X5829110Y-13256676D01*
X5829110Y-13256676D02*
X5848158Y-13247152D01*
X5848158Y-13247152D02*
X5876729Y-13247152D01*
X5876729Y-13247152D02*
X5895777Y-13256676D01*
X5895777Y-13256676D02*
X5905301Y-13275724D01*
X5905301Y-13275724D02*
X5905301Y-13380486D01*
X5905301Y-13275724D02*
X5914824Y-13256676D01*
X5914824Y-13256676D02*
X5933872Y-13247152D01*
X5933872Y-13247152D02*
X5962443Y-13247152D01*
X5962443Y-13247152D02*
X5981491Y-13256676D01*
X5981491Y-13256676D02*
X5991015Y-13275724D01*
X5991015Y-13275724D02*
X5991015Y-13380486D01*
X6381491Y-13170962D02*
X6210063Y-13428105D01*
X6638634Y-13180486D02*
X6657682Y-13180486D01*
X6657682Y-13180486D02*
X6676729Y-13190009D01*
X6676729Y-13190009D02*
X6686253Y-13199533D01*
X6686253Y-13199533D02*
X6695777Y-13218581D01*
X6695777Y-13218581D02*
X6705301Y-13256676D01*
X6705301Y-13256676D02*
X6705301Y-13304295D01*
X6705301Y-13304295D02*
X6695777Y-13342390D01*
X6695777Y-13342390D02*
X6686253Y-13361438D01*
X6686253Y-13361438D02*
X6676729Y-13370962D01*
X6676729Y-13370962D02*
X6657682Y-13380486D01*
X6657682Y-13380486D02*
X6638634Y-13380486D01*
X6638634Y-13380486D02*
X6619586Y-13370962D01*
X6619586Y-13370962D02*
X6610063Y-13361438D01*
X6610063Y-13361438D02*
X6600539Y-13342390D01*
X6600539Y-13342390D02*
X6591015Y-13304295D01*
X6591015Y-13304295D02*
X6591015Y-13256676D01*
X6591015Y-13256676D02*
X6600539Y-13218581D01*
X6600539Y-13218581D02*
X6610063Y-13199533D01*
X6610063Y-13199533D02*
X6619586Y-13190009D01*
X6619586Y-13190009D02*
X6638634Y-13180486D01*
X6791015Y-13361438D02*
X6800539Y-13370962D01*
X6800539Y-13370962D02*
X6791015Y-13380486D01*
X6791015Y-13380486D02*
X6781491Y-13370962D01*
X6781491Y-13370962D02*
X6791015Y-13361438D01*
X6791015Y-13361438D02*
X6791015Y-13380486D01*
X6924348Y-13180486D02*
X6943396Y-13180486D01*
X6943396Y-13180486D02*
X6962444Y-13190009D01*
X6962444Y-13190009D02*
X6971967Y-13199533D01*
X6971967Y-13199533D02*
X6981491Y-13218581D01*
X6981491Y-13218581D02*
X6991015Y-13256676D01*
X6991015Y-13256676D02*
X6991015Y-13304295D01*
X6991015Y-13304295D02*
X6981491Y-13342390D01*
X6981491Y-13342390D02*
X6971967Y-13361438D01*
X6971967Y-13361438D02*
X6962444Y-13370962D01*
X6962444Y-13370962D02*
X6943396Y-13380486D01*
X6943396Y-13380486D02*
X6924348Y-13380486D01*
X6924348Y-13380486D02*
X6905301Y-13370962D01*
X6905301Y-13370962D02*
X6895777Y-13361438D01*
X6895777Y-13361438D02*
X6886253Y-13342390D01*
X6886253Y-13342390D02*
X6876729Y-13304295D01*
X6876729Y-13304295D02*
X6876729Y-13256676D01*
X6876729Y-13256676D02*
X6886253Y-13218581D01*
X6886253Y-13218581D02*
X6895777Y-13199533D01*
X6895777Y-13199533D02*
X6905301Y-13190009D01*
X6905301Y-13190009D02*
X6924348Y-13180486D01*
X7057682Y-13180486D02*
X7181491Y-13180486D01*
X7181491Y-13180486D02*
X7114825Y-13256676D01*
X7114825Y-13256676D02*
X7143396Y-13256676D01*
X7143396Y-13256676D02*
X7162444Y-13266200D01*
X7162444Y-13266200D02*
X7171967Y-13275724D01*
X7171967Y-13275724D02*
X7181491Y-13294771D01*
X7181491Y-13294771D02*
X7181491Y-13342390D01*
X7181491Y-13342390D02*
X7171967Y-13361438D01*
X7171967Y-13361438D02*
X7162444Y-13370962D01*
X7162444Y-13370962D02*
X7143396Y-13380486D01*
X7143396Y-13380486D02*
X7086253Y-13380486D01*
X7086253Y-13380486D02*
X7067206Y-13370962D01*
X7067206Y-13370962D02*
X7057682Y-13361438D01*
X7276729Y-13380486D02*
X7314825Y-13380486D01*
X7314825Y-13380486D02*
X7333872Y-13370962D01*
X7333872Y-13370962D02*
X7343396Y-13361438D01*
X7343396Y-13361438D02*
X7362444Y-13332866D01*
X7362444Y-13332866D02*
X7371967Y-13294771D01*
X7371967Y-13294771D02*
X7371967Y-13218581D01*
X7371967Y-13218581D02*
X7362444Y-13199533D01*
X7362444Y-13199533D02*
X7352920Y-13190009D01*
X7352920Y-13190009D02*
X7333872Y-13180486D01*
X7333872Y-13180486D02*
X7295777Y-13180486D01*
X7295777Y-13180486D02*
X7276729Y-13190009D01*
X7276729Y-13190009D02*
X7267206Y-13199533D01*
X7267206Y-13199533D02*
X7257682Y-13218581D01*
X7257682Y-13218581D02*
X7257682Y-13266200D01*
X7257682Y-13266200D02*
X7267206Y-13285247D01*
X7267206Y-13285247D02*
X7276729Y-13294771D01*
X7276729Y-13294771D02*
X7295777Y-13304295D01*
X7295777Y-13304295D02*
X7333872Y-13304295D01*
X7333872Y-13304295D02*
X7352920Y-13294771D01*
X7352920Y-13294771D02*
X7362444Y-13285247D01*
X7362444Y-13285247D02*
X7371967Y-13266200D01*
X7543396Y-13247152D02*
X7543396Y-13380486D01*
X7495777Y-13170962D02*
X7448158Y-13313819D01*
X7448158Y-13313819D02*
X7571967Y-13313819D01*
X7638634Y-13180486D02*
X7638634Y-13218581D01*
X7714825Y-13180486D02*
X7714825Y-13218581D01*
X8010063Y-13456676D02*
X8000539Y-13447152D01*
X8000539Y-13447152D02*
X7981491Y-13418581D01*
X7981491Y-13418581D02*
X7971968Y-13399533D01*
X7971968Y-13399533D02*
X7962444Y-13370962D01*
X7962444Y-13370962D02*
X7952920Y-13323343D01*
X7952920Y-13323343D02*
X7952920Y-13285247D01*
X7952920Y-13285247D02*
X7962444Y-13237628D01*
X7962444Y-13237628D02*
X7971968Y-13209057D01*
X7971968Y-13209057D02*
X7981491Y-13190009D01*
X7981491Y-13190009D02*
X8000539Y-13161438D01*
X8000539Y-13161438D02*
X8010063Y-13151914D01*
X8076729Y-13199533D02*
X8086253Y-13190009D01*
X8086253Y-13190009D02*
X8105301Y-13180486D01*
X8105301Y-13180486D02*
X8152920Y-13180486D01*
X8152920Y-13180486D02*
X8171968Y-13190009D01*
X8171968Y-13190009D02*
X8181491Y-13199533D01*
X8181491Y-13199533D02*
X8191015Y-13218581D01*
X8191015Y-13218581D02*
X8191015Y-13237628D01*
X8191015Y-13237628D02*
X8181491Y-13266200D01*
X8181491Y-13266200D02*
X8067206Y-13380486D01*
X8067206Y-13380486D02*
X8191015Y-13380486D01*
X8429111Y-13380486D02*
X8429111Y-13180486D01*
X8514825Y-13380486D02*
X8514825Y-13275724D01*
X8514825Y-13275724D02*
X8505301Y-13256676D01*
X8505301Y-13256676D02*
X8486253Y-13247152D01*
X8486253Y-13247152D02*
X8457682Y-13247152D01*
X8457682Y-13247152D02*
X8438634Y-13256676D01*
X8438634Y-13256676D02*
X8429111Y-13266200D01*
X8638634Y-13380486D02*
X8619587Y-13370962D01*
X8619587Y-13370962D02*
X8610063Y-13361438D01*
X8610063Y-13361438D02*
X8600539Y-13342390D01*
X8600539Y-13342390D02*
X8600539Y-13285247D01*
X8600539Y-13285247D02*
X8610063Y-13266200D01*
X8610063Y-13266200D02*
X8619587Y-13256676D01*
X8619587Y-13256676D02*
X8638634Y-13247152D01*
X8638634Y-13247152D02*
X8667206Y-13247152D01*
X8667206Y-13247152D02*
X8686253Y-13256676D01*
X8686253Y-13256676D02*
X8695777Y-13266200D01*
X8695777Y-13266200D02*
X8705301Y-13285247D01*
X8705301Y-13285247D02*
X8705301Y-13342390D01*
X8705301Y-13342390D02*
X8695777Y-13361438D01*
X8695777Y-13361438D02*
X8686253Y-13370962D01*
X8686253Y-13370962D02*
X8667206Y-13380486D01*
X8667206Y-13380486D02*
X8638634Y-13380486D01*
X8819587Y-13380486D02*
X8800539Y-13370962D01*
X8800539Y-13370962D02*
X8791015Y-13351914D01*
X8791015Y-13351914D02*
X8791015Y-13180486D01*
X8971968Y-13370962D02*
X8952920Y-13380486D01*
X8952920Y-13380486D02*
X8914825Y-13380486D01*
X8914825Y-13380486D02*
X8895777Y-13370962D01*
X8895777Y-13370962D02*
X8886253Y-13351914D01*
X8886253Y-13351914D02*
X8886253Y-13275724D01*
X8886253Y-13275724D02*
X8895777Y-13256676D01*
X8895777Y-13256676D02*
X8914825Y-13247152D01*
X8914825Y-13247152D02*
X8952920Y-13247152D01*
X8952920Y-13247152D02*
X8971968Y-13256676D01*
X8971968Y-13256676D02*
X8981492Y-13275724D01*
X8981492Y-13275724D02*
X8981492Y-13294771D01*
X8981492Y-13294771D02*
X8886253Y-13313819D01*
X9057682Y-13370962D02*
X9076730Y-13380486D01*
X9076730Y-13380486D02*
X9114825Y-13380486D01*
X9114825Y-13380486D02*
X9133873Y-13370962D01*
X9133873Y-13370962D02*
X9143396Y-13351914D01*
X9143396Y-13351914D02*
X9143396Y-13342390D01*
X9143396Y-13342390D02*
X9133873Y-13323343D01*
X9133873Y-13323343D02*
X9114825Y-13313819D01*
X9114825Y-13313819D02*
X9086253Y-13313819D01*
X9086253Y-13313819D02*
X9067206Y-13304295D01*
X9067206Y-13304295D02*
X9057682Y-13285247D01*
X9057682Y-13285247D02*
X9057682Y-13275724D01*
X9057682Y-13275724D02*
X9067206Y-13256676D01*
X9067206Y-13256676D02*
X9086253Y-13247152D01*
X9086253Y-13247152D02*
X9114825Y-13247152D01*
X9114825Y-13247152D02*
X9133873Y-13256676D01*
X9210063Y-13456676D02*
X9219587Y-13447152D01*
X9219587Y-13447152D02*
X9238634Y-13418581D01*
X9238634Y-13418581D02*
X9248158Y-13399533D01*
X9248158Y-13399533D02*
X9257682Y-13370962D01*
X9257682Y-13370962D02*
X9267206Y-13323343D01*
X9267206Y-13323343D02*
X9267206Y-13285247D01*
X9267206Y-13285247D02*
X9257682Y-13237628D01*
X9257682Y-13237628D02*
X9248158Y-13209057D01*
X9248158Y-13209057D02*
X9238634Y-13190009D01*
X9238634Y-13190009D02*
X9219587Y-13161438D01*
X9219587Y-13161438D02*
X9210063Y-13151914D01*
M02*
