M48
; DRILL file {KiCad 7.0.11} date Tue Feb 11 16:17:04 2025
; FORMAT={-:-/ absolute / metric / decimal}
; #@! TF.CreationDate,2025-02-11T16:17:04+07:00
; #@! TF.GenerationSoftware,Kicad,Pcbnew,7.0.11
; #@! TF.FileFunction,Plated,1,4,PTH
FMAT,2
METRIC
; #@! TA.AperFunction,Plated,PTH,ViaDrill
T1C0.400
; #@! TA.AperFunction,Plated,PTH,ComponentDrill
T2C1.000
%
G90
G05
T1
X47.117Y-76.2
X47.371Y-50.8
X49.53Y-69.85
X51.435Y-95.25
X52.959Y-57.15
X54.356Y-88.9
X54.991Y-57.15
X55.372Y-76.2
X57.277Y-76.2
X60.071Y-95.25
X60.075Y-64.176
X60.117Y-66.008
X62.103Y-95.25
X62.107Y-64.176
X62.149Y-66.008
X63.212Y-83.266
X63.221Y-85.071
X65.244Y-83.266
X65.253Y-85.071
X65.659Y-76.2
X67.121Y-102.091
X67.121Y-104.051
X68.453Y-76.2
X70.97Y-102.114
X72.009Y-57.15
X74.041Y-57.15
X74.295Y-91.313
X74.295Y-99.314
X74.442Y-104.247
X74.457Y-102.147
X75.692Y-48.895
X75.819Y-120.777
X76.708Y-76.2
X77.3Y-108.313
X77.43Y-51.094
X77.6Y-104.245
X77.602Y-102.167
X77.851Y-95.25
X78.581Y-67.818
X78.613Y-64.008
X78.613Y-65.964
X78.867Y-76.2
X79.634Y-102.167
X79.653Y-104.245
X81.28Y-57.277
X81.28Y-58.801
X81.55Y-114.3
X82.169Y-62.992
X82.169Y-69.85
X82.55Y-49.999
X82.559Y-83.268
X82.568Y-85.073
X83.55Y-114.3
X84.074Y-69.85
X84.198Y-57.286
X84.455Y-62.992
X84.591Y-83.268
X84.6Y-85.073
X84.963Y-66.04
X84.963Y-67.056
X85.624Y-61.08
X86.233Y-95.25
X86.289Y-104.215
X87.249Y-70.358
X87.249Y-72.644
X87.249Y-80.01
X87.312Y-107.95
X87.376Y-63.373
X87.653Y-51.101
X88.312Y-95.25
X89.408Y-48.895
X90.043Y-70.358
X90.119Y-65.938
X90.487Y-104.775
X91.059Y-57.15
X92.075Y-65.964
X92.075Y-70.358
X92.075Y-101.6
X92.075Y-104.155
X92.075Y-117.475
X92.869Y-107.95
X93.075Y-57.15
X95.25Y-65.964
X95.885Y-76.2
X96.464Y-101.616
X96.774Y-95.25
X97.79Y-76.2
X98.423Y-65.95
X98.425Y-68.453
X98.425Y-108.744
X98.552Y-120.396
X98.806Y-50.8
X99.212Y-104.15
X99.816Y-64.232
X99.868Y-65.953
X101.092Y-101.6
X101.116Y-85.096
X101.121Y-104.155
X101.155Y-83.126
X101.6Y-57.15
X101.848Y-64.232
X101.9Y-65.953
X101.911Y-68.453
X102.98Y-114.3
X103.148Y-85.096
X103.188Y-83.126
X104.728Y-104.168
X104.775Y-65.96
X104.775Y-68.516
X104.98Y-114.3
X105.362Y-95.25
X106.299Y-71.247
X106.426Y-76.2
X107.362Y-95.25
X107.936Y-65.943
X107.95Y-68.516
X107.95Y-104.191
X110.109Y-57.15
X111.125Y-65.96
X111.125Y-68.469
X111.125Y-104.215
X111.125Y-107.95
X112.125Y-57.15
X113.284Y-114.3
X114.156Y-107.95
X114.272Y-65.964
X114.298Y-104.22
X114.3Y-68.469
X114.3Y-121.048
X114.935Y-76.2
X115.607Y-101.739
X115.824Y-91.313
X115.824Y-99.314
X116.497Y-104.176
X116.887Y-76.2
X117.331Y-107.95
X117.445Y-65.971
X117.475Y-68.453
X117.475Y-121.048
X118.375Y-104.201
X119.027Y-64.169
X119.064Y-65.975
X120.215Y-83.268
X120.224Y-85.073
X120.506Y-107.95
X120.65Y-53.213
X120.65Y-60.96
X120.65Y-121.048
X120.889Y-104.225
X120.904Y-101.727
X121.059Y-64.169
X121.096Y-65.975
X121.126Y-68.334
X121.137Y-70.104
X122.237Y-118.269
X122.247Y-83.268
X122.256Y-85.073
X122.987Y-104.25
X123.19Y-71.882
X123.825Y-65.951
X124.412Y-95.25
X124.475Y-107.95
X124.619Y-121.048
X125.349Y-80.01
X125.476Y-71.882
X126.206Y-104.261
X126.412Y-95.25
X127.0Y-65.951
X127.635Y-71.882
X129.159Y-57.15
X129.381Y-104.261
X130.175Y-65.951
X130.19Y-70.104
X130.194Y-67.825
X131.175Y-57.15
X131.445Y-101.854
X131.555Y-114.3
X132.556Y-104.25
X133.369Y-67.825
X133.384Y-65.954
X133.555Y-114.3
X133.985Y-76.2
X133.985Y-101.727
X134.874Y-95.25
X135.597Y-104.261
X135.938Y-76.2
X136.544Y-67.778
X136.559Y-65.954
X137.578Y-104.298
X137.873Y-65.974
X137.901Y-64.232
X138.303Y-101.981
X139.254Y-83.245
X139.263Y-85.049
X139.7Y-57.15
X139.905Y-65.974
X139.933Y-64.232
X139.954Y-70.104
X139.972Y-67.866
X140.169Y-111.725
X140.494Y-104.334
X140.494Y-106.362
X141.286Y-83.245
X141.295Y-85.049
X141.859Y-72.517
X141.859Y-80.01
X141.859Y-87.376
X142.081Y-106.362
X142.081Y-107.95
X142.113Y-110.617
X143.463Y-95.25
X143.669Y-104.344
X143.669Y-109.537
X144.157Y-106.657
X144.374Y-116.216
X144.652Y-64.206
X144.653Y-67.691
X144.653Y-72.517
X144.653Y-76.2
X144.653Y-80.01
X144.689Y-83.212
X144.716Y-85.428
X145.415Y-106.68
X145.463Y-95.25
X145.669Y-84.987
X146.681Y-64.206
X146.685Y-67.691
X146.685Y-72.517
X146.685Y-80.01
X146.794Y-104.323
X147.066Y-107.315
X147.189Y-84.975
X147.897Y-109.273
X148.209Y-57.15
X148.209Y-101.981
X148.431Y-104.775
X148.586Y-83.242
X149.155Y-108.331
X149.158Y-116.524
X149.19Y-119.489
X149.495Y-102.108
X149.606Y-88.519
X150.241Y-57.15
X150.425Y-115.062
X150.495Y-102.108
X150.55Y-110.816
X150.749Y-89.789
X151.003Y-99.314
X152.584Y-112.903
X153.035Y-76.2
X153.289Y-110.808
X153.321Y-104.242
X153.346Y-115.062
X153.546Y-106.983
X153.987Y-88.9
X153.987Y-92.075
X153.987Y-99.219
X153.988Y-102.068
X154.003Y-85.382
X154.781Y-105.533
X154.94Y-76.2
X156.465Y-64.147
X156.474Y-65.951
X156.556Y-117.129
X156.787Y-104.775
X156.787Y-106.362
X157.162Y-99.314
X157.292Y-108.303
X157.349Y-121.365
X157.353Y-110.744
X157.353Y-112.776
X157.353Y-119.343
X157.357Y-111.756
X157.365Y-120.356
X157.956Y-88.9
X158.497Y-64.147
X158.506Y-65.951
X158.594Y-83.256
X158.603Y-85.06
X158.75Y-57.15
X158.75Y-107.95
X158.753Y-104.321
X159.004Y-110.744
X160.626Y-83.256
X160.635Y-85.06
X160.911Y-104.281
X160.918Y-102.299
X161.131Y-107.95
X162.512Y-95.25
X163.576Y-76.2
X164.306Y-104.29
X164.512Y-95.25
X164.846Y-114.3
X166.878Y-114.3
X167.259Y-57.15
X167.481Y-104.29
X169.291Y-57.15
X169.545Y-101.981
X170.677Y-104.308
X171.831Y-101.981
X171.958Y-76.2
X172.416Y-107.53
X173.101Y-95.25
X173.573Y-104.293
X173.99Y-76.2
X175.419Y-107.53
X175.452Y-104.318
X175.807Y-64.194
X175.816Y-65.998
X175.895Y-101.981
X177.165Y-109.855
X177.165Y-119.062
X177.177Y-83.256
X177.186Y-85.06
X177.8Y-53.213
X177.8Y-60.96
X177.839Y-64.194
X177.848Y-65.998
X178.594Y-104.325
X178.594Y-107.53
X179.209Y-83.256
X179.218Y-85.06
X181.562Y-95.25
X181.769Y-104.325
X181.769Y-107.343
X182.499Y-72.39
X182.499Y-80.01
X183.356Y-109.855
X183.356Y-119.062
X183.562Y-95.25
X184.221Y-107.343
X184.937Y-104.312
X185.166Y-114.3
X186.309Y-57.15
X187.216Y-107.327
X187.325Y-102.108
X188.112Y-104.312
X188.325Y-57.15
X188.641Y-121.694
X189.145Y-108.929
X190.233Y-104.293
X190.241Y-102.103
X191.135Y-76.2
X192.024Y-91.313
X192.54Y-102.088
X192.561Y-104.301
X193.04Y-76.2
X193.421Y-114.3
X194.54Y-104.318
X195.003Y-64.194
X195.012Y-65.998
X195.453Y-114.3
X196.329Y-85.095
X196.338Y-83.22
X196.85Y-57.15
X197.035Y-64.194
X197.044Y-65.998
X197.644Y-104.324
X198.361Y-85.095
X198.37Y-83.22
X199.853Y-121.754
X200.612Y-95.25
X200.668Y-107.44
X200.675Y-106.307
X201.6Y-104.577
X201.676Y-76.2
X202.612Y-95.25
X203.835Y-114.3
X204.756Y-106.824
X204.787Y-104.371
X204.787Y-107.823
X205.359Y-57.15
X206.375Y-118.269
X206.505Y-107.452
X207.169Y-101.473
X207.391Y-57.15
X207.962Y-104.367
X209.55Y-101.509
X210.185Y-76.2
X210.344Y-108.997
X210.353Y-106.976
X211.201Y-95.25
X211.681Y-104.37
X211.905Y-101.6
X212.09Y-76.2
X213.75Y-64.193
X213.759Y-65.997
X214.312Y-104.349
X214.425Y-102.091
X214.884Y-114.3
X215.272Y-83.233
X215.281Y-85.038
X215.782Y-64.193
X215.791Y-65.997
X215.9Y-57.15
X216.916Y-114.3
X217.304Y-83.233
X217.313Y-85.038
X217.417Y-104.354
X219.662Y-95.25
X220.662Y-104.354
X221.662Y-95.25
X222.758Y-120.65
X223.044Y-108.744
X224.282Y-72.39
X224.282Y-80.137
X224.409Y-57.15
X226.028Y-101.6
X226.441Y-57.15
X227.965Y-76.2
X228.6Y-98.425
X228.6Y-101.6
X229.235Y-95.25
X231.512Y-97.872
X231.521Y-91.186
X231.534Y-101.577
X231.836Y-64.186
X231.845Y-65.991
X232.115Y-85.108
X232.123Y-83.203
X233.868Y-64.186
X233.877Y-65.991
X234.147Y-85.108
X234.155Y-83.203
X234.95Y-53.34
X234.95Y-61.087
X236.347Y-76.2
X236.537Y-101.6
X238.252Y-76.2
X241.095Y-95.25
X243.078Y-95.25
X243.459Y-57.15
X243.967Y-85.725
X244.094Y-69.723
X245.491Y-57.15
X246.062Y-76.2
X246.474Y-101.667
X247.015Y-89.027
X248.602Y-101.409
X251.079Y-50.8
X251.079Y-95.123
X251.206Y-63.5
T2
X180.975Y-113.025
X180.975Y-115.565
M30
