%TF.GenerationSoftware,KiCad,Pcbnew,7.0.11*%
%TF.CreationDate,2025-02-11T16:17:04+07:00*%
%TF.ProjectId,travaulta,74726176-6175-46c7-9461-2e6b69636164,rev?*%
%TF.SameCoordinates,Original*%
%TF.FileFunction,Drillmap*%
%TF.FilePolarity,Positive*%
%FSLAX45Y45*%
G04 Gerber Fmt 4.5, Leading zero omitted, Abs format (unit mm)*
G04 Created by KiCad (PCBNEW 7.0.11) date 2025-02-11 16:17:04*
%MOMM*%
%LPD*%
G01*
G04 APERTURE LIST*
%ADD10C,0.050000*%
%ADD11C,0.200000*%
%ADD12C,0.100000*%
%ADD13C,0.220000*%
G04 APERTURE END LIST*
D10*
X23970000Y-4747500D02*
G75*
G03*
X23750000Y-4967500I0J-220000D01*
G01*
X8547057Y-4747500D02*
X7964057Y-4747500D01*
X9627396Y-12296910D02*
G75*
G03*
X9025729Y-12296910I-300833J-232162D01*
G01*
X7295000Y-10657500D02*
X7295000Y-12122500D01*
X9801563Y-12382500D02*
X20043438Y-12382500D01*
X25147500Y-4747500D02*
X23970000Y-4747500D01*
X4657500Y-9988400D02*
X4671600Y-9988400D01*
X6825000Y-4747500D02*
G75*
G03*
X6605000Y-4967500I0J-220000D01*
G01*
X20993438Y-12382500D02*
X22290000Y-12382500D01*
X20819271Y-12296910D02*
G75*
G03*
X20217604Y-12296910I-300833J-232162D01*
G01*
X23240000Y-4967500D02*
G75*
G03*
X23020000Y-4747500I-220000J0D01*
G01*
X6095000Y-5007500D02*
G75*
G03*
X6605000Y-5007500I255000J2D01*
G01*
X22550000Y-12122500D02*
X22550000Y-10657500D01*
X24918437Y-10257500D02*
X24918437Y-10243400D01*
X5875000Y-4747500D02*
X4697500Y-4747500D01*
X24698437Y-10477497D02*
G75*
G03*
X24918437Y-10257500I-8J220007D01*
G01*
X7295000Y-10657500D02*
G75*
G03*
X7115000Y-10477500I-180000J0D01*
G01*
X23240000Y-5007500D02*
X23240000Y-4967500D01*
X20043438Y-12382502D02*
G75*
G03*
X20217604Y-12296910I3J219992D01*
G01*
X25407500Y-9768400D02*
X25407500Y-5007500D01*
X6095000Y-5007500D02*
X6095000Y-4967500D01*
X22730000Y-10477500D02*
X24698437Y-10477500D01*
X23020000Y-4747500D02*
X8547057Y-4747500D01*
X22730000Y-10477500D02*
G75*
G03*
X22550000Y-10657500I0J-180000D01*
G01*
X22290000Y-12382500D02*
G75*
G03*
X22550000Y-12122500I0J260000D01*
G01*
X8851563Y-12382502D02*
G75*
G03*
X9025729Y-12296910I-3J220002D01*
G01*
X4926600Y-10243400D02*
G75*
G03*
X4671600Y-9988400I-255000J0D01*
G01*
X7964057Y-4747500D02*
X6825000Y-4747500D01*
X25407500Y-5007500D02*
G75*
G03*
X25147500Y-4747500I-260000J0D01*
G01*
X7555000Y-12382500D02*
X8851563Y-12382500D01*
X4697500Y-4747500D02*
G75*
G03*
X4437500Y-5007500I-5J-259995D01*
G01*
X23240000Y-5007500D02*
G75*
G03*
X23750000Y-5007500I255000J0D01*
G01*
X4437500Y-5007500D02*
X4437500Y-9768400D01*
X20819272Y-12296909D02*
G75*
G03*
X20993438Y-12382500I174148J134369D01*
G01*
X7295000Y-12122500D02*
G75*
G03*
X7555000Y-12382500I260000J0D01*
G01*
X25187500Y-9988400D02*
G75*
G03*
X25407500Y-9768400I0J220000D01*
G01*
X9627394Y-12296911D02*
G75*
G03*
X9801563Y-12382500I174166J134411D01*
G01*
X25173437Y-9988400D02*
X25187500Y-9988400D01*
X4926600Y-10257500D02*
G75*
G03*
X5146600Y-10477500I220000J0D01*
G01*
X6605000Y-4967500D02*
X6605000Y-5007500D01*
X6095000Y-4967500D02*
G75*
G03*
X5875000Y-4747500I-220000J0D01*
G01*
X23750000Y-4967500D02*
X23750000Y-5007500D01*
X4926600Y-10243400D02*
X4926600Y-10257500D01*
X4437500Y-9768400D02*
G75*
G03*
X4657500Y-9988400I220000J0D01*
G01*
X5146600Y-10477500D02*
X7115000Y-10477500D01*
X25173437Y-9988397D02*
G75*
G03*
X24918437Y-10243400I-8J-254993D01*
G01*
D11*
D12*
X7926000Y-5187125D02*
X8006000Y-5267125D01*
X8006000Y-5187125D02*
X7926000Y-5267125D01*
X8504000Y-5187125D02*
X8584000Y-5267125D01*
X8584000Y-5187125D02*
X8504000Y-5267125D01*
D13*
X6460000Y-5715000D02*
G75*
G03*
X6240000Y-5715000I-110000J0D01*
G01*
X6240000Y-5715000D02*
G75*
G03*
X6460000Y-5715000I110000J0D01*
G01*
X7174375Y-9525000D02*
G75*
G03*
X6954375Y-9525000I-110000J0D01*
G01*
X6954375Y-9525000D02*
G75*
G03*
X7174375Y-9525000I110000J0D01*
G01*
X8841250Y-7620000D02*
G75*
G03*
X8621250Y-7620000I-110000J0D01*
G01*
X8621250Y-7620000D02*
G75*
G03*
X8841250Y-7620000I110000J0D01*
G01*
X9317500Y-11430000D02*
G75*
G03*
X9097500Y-11430000I-110000J0D01*
G01*
X9097500Y-11430000D02*
G75*
G03*
X9317500Y-11430000I110000J0D01*
G01*
X11698750Y-9525000D02*
G75*
G03*
X11478750Y-9525000I-110000J0D01*
G01*
X11478750Y-9525000D02*
G75*
G03*
X11698750Y-9525000I110000J0D01*
G01*
X12175000Y-5715000D02*
G75*
G03*
X11955000Y-5715000I-110000J0D01*
G01*
X11955000Y-5715000D02*
G75*
G03*
X12175000Y-5715000I110000J0D01*
G01*
X12413125Y-11430000D02*
G75*
G03*
X12193125Y-11430000I-110000J0D01*
G01*
X12193125Y-11430000D02*
G75*
G03*
X12413125Y-11430000I110000J0D01*
G01*
X12651250Y-7620000D02*
G75*
G03*
X12431250Y-7620000I-110000J0D01*
G01*
X12431250Y-7620000D02*
G75*
G03*
X12651250Y-7620000I110000J0D01*
G01*
X15508750Y-9525000D02*
G75*
G03*
X15288750Y-9525000I-110000J0D01*
G01*
X15288750Y-9525000D02*
G75*
G03*
X15508750Y-9525000I110000J0D01*
G01*
X17651875Y-11430000D02*
G75*
G03*
X17431875Y-11430000I-110000J0D01*
G01*
X17431875Y-11430000D02*
G75*
G03*
X17651875Y-11430000I110000J0D01*
G01*
X17890000Y-5715000D02*
G75*
G03*
X17670000Y-5715000I-110000J0D01*
G01*
X17670000Y-5715000D02*
G75*
G03*
X17890000Y-5715000I110000J0D01*
G01*
X18366250Y-7620000D02*
G75*
G03*
X18146250Y-7620000I-110000J0D01*
G01*
X18146250Y-7620000D02*
G75*
G03*
X18366250Y-7620000I110000J0D01*
G01*
X19318750Y-9525000D02*
G75*
G03*
X19098750Y-9525000I-110000J0D01*
G01*
X19098750Y-9525000D02*
G75*
G03*
X19318750Y-9525000I110000J0D01*
G01*
X20747500Y-11430000D02*
G75*
G03*
X20527500Y-11430000I-110000J0D01*
G01*
X20527500Y-11430000D02*
G75*
G03*
X20747500Y-11430000I110000J0D01*
G01*
X22176250Y-7620000D02*
G75*
G03*
X21956250Y-7620000I-110000J0D01*
G01*
X21956250Y-7620000D02*
G75*
G03*
X22176250Y-7620000I110000J0D01*
G01*
X23366875Y-9525000D02*
G75*
G03*
X23146875Y-9525000I-110000J0D01*
G01*
X23146875Y-9525000D02*
G75*
G03*
X23366875Y-9525000I110000J0D01*
G01*
X23605000Y-5715000D02*
G75*
G03*
X23385000Y-5715000I-110000J0D01*
G01*
X23385000Y-5715000D02*
G75*
G03*
X23605000Y-5715000I110000J0D01*
G01*
D11*
X4695777Y-12696486D02*
X4695777Y-12496486D01*
X4695777Y-12496486D02*
X4743396Y-12496486D01*
X4743396Y-12496486D02*
X4771967Y-12506009D01*
X4771967Y-12506009D02*
X4791015Y-12525057D01*
X4791015Y-12525057D02*
X4800539Y-12544105D01*
X4800539Y-12544105D02*
X4810063Y-12582200D01*
X4810063Y-12582200D02*
X4810063Y-12610771D01*
X4810063Y-12610771D02*
X4800539Y-12648866D01*
X4800539Y-12648866D02*
X4791015Y-12667914D01*
X4791015Y-12667914D02*
X4771967Y-12686962D01*
X4771967Y-12686962D02*
X4743396Y-12696486D01*
X4743396Y-12696486D02*
X4695777Y-12696486D01*
X4895777Y-12696486D02*
X4895777Y-12563152D01*
X4895777Y-12601247D02*
X4905301Y-12582200D01*
X4905301Y-12582200D02*
X4914824Y-12572676D01*
X4914824Y-12572676D02*
X4933872Y-12563152D01*
X4933872Y-12563152D02*
X4952920Y-12563152D01*
X5019586Y-12696486D02*
X5019586Y-12563152D01*
X5019586Y-12496486D02*
X5010063Y-12506009D01*
X5010063Y-12506009D02*
X5019586Y-12515533D01*
X5019586Y-12515533D02*
X5029110Y-12506009D01*
X5029110Y-12506009D02*
X5019586Y-12496486D01*
X5019586Y-12496486D02*
X5019586Y-12515533D01*
X5143396Y-12696486D02*
X5124348Y-12686962D01*
X5124348Y-12686962D02*
X5114824Y-12667914D01*
X5114824Y-12667914D02*
X5114824Y-12496486D01*
X5248158Y-12696486D02*
X5229110Y-12686962D01*
X5229110Y-12686962D02*
X5219586Y-12667914D01*
X5219586Y-12667914D02*
X5219586Y-12496486D01*
X5476729Y-12696486D02*
X5476729Y-12496486D01*
X5476729Y-12496486D02*
X5543396Y-12639343D01*
X5543396Y-12639343D02*
X5610062Y-12496486D01*
X5610062Y-12496486D02*
X5610062Y-12696486D01*
X5791015Y-12696486D02*
X5791015Y-12591724D01*
X5791015Y-12591724D02*
X5781491Y-12572676D01*
X5781491Y-12572676D02*
X5762443Y-12563152D01*
X5762443Y-12563152D02*
X5724348Y-12563152D01*
X5724348Y-12563152D02*
X5705301Y-12572676D01*
X5791015Y-12686962D02*
X5771967Y-12696486D01*
X5771967Y-12696486D02*
X5724348Y-12696486D01*
X5724348Y-12696486D02*
X5705301Y-12686962D01*
X5705301Y-12686962D02*
X5695777Y-12667914D01*
X5695777Y-12667914D02*
X5695777Y-12648866D01*
X5695777Y-12648866D02*
X5705301Y-12629819D01*
X5705301Y-12629819D02*
X5724348Y-12620295D01*
X5724348Y-12620295D02*
X5771967Y-12620295D01*
X5771967Y-12620295D02*
X5791015Y-12610771D01*
X5886253Y-12563152D02*
X5886253Y-12763152D01*
X5886253Y-12572676D02*
X5905301Y-12563152D01*
X5905301Y-12563152D02*
X5943396Y-12563152D01*
X5943396Y-12563152D02*
X5962443Y-12572676D01*
X5962443Y-12572676D02*
X5971967Y-12582200D01*
X5971967Y-12582200D02*
X5981491Y-12601247D01*
X5981491Y-12601247D02*
X5981491Y-12658390D01*
X5981491Y-12658390D02*
X5971967Y-12677438D01*
X5971967Y-12677438D02*
X5962443Y-12686962D01*
X5962443Y-12686962D02*
X5943396Y-12696486D01*
X5943396Y-12696486D02*
X5905301Y-12696486D01*
X5905301Y-12696486D02*
X5886253Y-12686962D01*
X6067205Y-12677438D02*
X6076729Y-12686962D01*
X6076729Y-12686962D02*
X6067205Y-12696486D01*
X6067205Y-12696486D02*
X6057682Y-12686962D01*
X6057682Y-12686962D02*
X6067205Y-12677438D01*
X6067205Y-12677438D02*
X6067205Y-12696486D01*
X6067205Y-12572676D02*
X6076729Y-12582200D01*
X6076729Y-12582200D02*
X6067205Y-12591724D01*
X6067205Y-12591724D02*
X6057682Y-12582200D01*
X6057682Y-12582200D02*
X6067205Y-12572676D01*
X6067205Y-12572676D02*
X6067205Y-12591724D01*
D12*
X4355000Y-12985002D02*
X4435000Y-13065002D01*
X4435000Y-12985002D02*
X4355000Y-13065002D01*
D11*
X4733872Y-12916486D02*
X4752920Y-12916486D01*
X4752920Y-12916486D02*
X4771967Y-12926009D01*
X4771967Y-12926009D02*
X4781491Y-12935533D01*
X4781491Y-12935533D02*
X4791015Y-12954581D01*
X4791015Y-12954581D02*
X4800539Y-12992676D01*
X4800539Y-12992676D02*
X4800539Y-13040295D01*
X4800539Y-13040295D02*
X4791015Y-13078390D01*
X4791015Y-13078390D02*
X4781491Y-13097438D01*
X4781491Y-13097438D02*
X4771967Y-13106962D01*
X4771967Y-13106962D02*
X4752920Y-13116486D01*
X4752920Y-13116486D02*
X4733872Y-13116486D01*
X4733872Y-13116486D02*
X4714824Y-13106962D01*
X4714824Y-13106962D02*
X4705301Y-13097438D01*
X4705301Y-13097438D02*
X4695777Y-13078390D01*
X4695777Y-13078390D02*
X4686253Y-13040295D01*
X4686253Y-13040295D02*
X4686253Y-12992676D01*
X4686253Y-12992676D02*
X4695777Y-12954581D01*
X4695777Y-12954581D02*
X4705301Y-12935533D01*
X4705301Y-12935533D02*
X4714824Y-12926009D01*
X4714824Y-12926009D02*
X4733872Y-12916486D01*
X4886253Y-13097438D02*
X4895777Y-13106962D01*
X4895777Y-13106962D02*
X4886253Y-13116486D01*
X4886253Y-13116486D02*
X4876729Y-13106962D01*
X4876729Y-13106962D02*
X4886253Y-13097438D01*
X4886253Y-13097438D02*
X4886253Y-13116486D01*
X5010063Y-13002200D02*
X4991015Y-12992676D01*
X4991015Y-12992676D02*
X4981491Y-12983152D01*
X4981491Y-12983152D02*
X4971967Y-12964105D01*
X4971967Y-12964105D02*
X4971967Y-12954581D01*
X4971967Y-12954581D02*
X4981491Y-12935533D01*
X4981491Y-12935533D02*
X4991015Y-12926009D01*
X4991015Y-12926009D02*
X5010063Y-12916486D01*
X5010063Y-12916486D02*
X5048158Y-12916486D01*
X5048158Y-12916486D02*
X5067205Y-12926009D01*
X5067205Y-12926009D02*
X5076729Y-12935533D01*
X5076729Y-12935533D02*
X5086253Y-12954581D01*
X5086253Y-12954581D02*
X5086253Y-12964105D01*
X5086253Y-12964105D02*
X5076729Y-12983152D01*
X5076729Y-12983152D02*
X5067205Y-12992676D01*
X5067205Y-12992676D02*
X5048158Y-13002200D01*
X5048158Y-13002200D02*
X5010063Y-13002200D01*
X5010063Y-13002200D02*
X4991015Y-13011724D01*
X4991015Y-13011724D02*
X4981491Y-13021247D01*
X4981491Y-13021247D02*
X4971967Y-13040295D01*
X4971967Y-13040295D02*
X4971967Y-13078390D01*
X4971967Y-13078390D02*
X4981491Y-13097438D01*
X4981491Y-13097438D02*
X4991015Y-13106962D01*
X4991015Y-13106962D02*
X5010063Y-13116486D01*
X5010063Y-13116486D02*
X5048158Y-13116486D01*
X5048158Y-13116486D02*
X5067205Y-13106962D01*
X5067205Y-13106962D02*
X5076729Y-13097438D01*
X5076729Y-13097438D02*
X5086253Y-13078390D01*
X5086253Y-13078390D02*
X5086253Y-13040295D01*
X5086253Y-13040295D02*
X5076729Y-13021247D01*
X5076729Y-13021247D02*
X5067205Y-13011724D01*
X5067205Y-13011724D02*
X5048158Y-13002200D01*
X5210063Y-12916486D02*
X5229110Y-12916486D01*
X5229110Y-12916486D02*
X5248158Y-12926009D01*
X5248158Y-12926009D02*
X5257682Y-12935533D01*
X5257682Y-12935533D02*
X5267205Y-12954581D01*
X5267205Y-12954581D02*
X5276729Y-12992676D01*
X5276729Y-12992676D02*
X5276729Y-13040295D01*
X5276729Y-13040295D02*
X5267205Y-13078390D01*
X5267205Y-13078390D02*
X5257682Y-13097438D01*
X5257682Y-13097438D02*
X5248158Y-13106962D01*
X5248158Y-13106962D02*
X5229110Y-13116486D01*
X5229110Y-13116486D02*
X5210063Y-13116486D01*
X5210063Y-13116486D02*
X5191015Y-13106962D01*
X5191015Y-13106962D02*
X5181491Y-13097438D01*
X5181491Y-13097438D02*
X5171967Y-13078390D01*
X5171967Y-13078390D02*
X5162444Y-13040295D01*
X5162444Y-13040295D02*
X5162444Y-12992676D01*
X5162444Y-12992676D02*
X5171967Y-12954581D01*
X5171967Y-12954581D02*
X5181491Y-12935533D01*
X5181491Y-12935533D02*
X5191015Y-12926009D01*
X5191015Y-12926009D02*
X5210063Y-12916486D01*
X5400539Y-12916486D02*
X5419586Y-12916486D01*
X5419586Y-12916486D02*
X5438634Y-12926009D01*
X5438634Y-12926009D02*
X5448158Y-12935533D01*
X5448158Y-12935533D02*
X5457682Y-12954581D01*
X5457682Y-12954581D02*
X5467205Y-12992676D01*
X5467205Y-12992676D02*
X5467205Y-13040295D01*
X5467205Y-13040295D02*
X5457682Y-13078390D01*
X5457682Y-13078390D02*
X5448158Y-13097438D01*
X5448158Y-13097438D02*
X5438634Y-13106962D01*
X5438634Y-13106962D02*
X5419586Y-13116486D01*
X5419586Y-13116486D02*
X5400539Y-13116486D01*
X5400539Y-13116486D02*
X5381491Y-13106962D01*
X5381491Y-13106962D02*
X5371967Y-13097438D01*
X5371967Y-13097438D02*
X5362444Y-13078390D01*
X5362444Y-13078390D02*
X5352920Y-13040295D01*
X5352920Y-13040295D02*
X5352920Y-12992676D01*
X5352920Y-12992676D02*
X5362444Y-12954581D01*
X5362444Y-12954581D02*
X5371967Y-12935533D01*
X5371967Y-12935533D02*
X5381491Y-12926009D01*
X5381491Y-12926009D02*
X5400539Y-12916486D01*
X5552920Y-13116486D02*
X5552920Y-12983152D01*
X5552920Y-13002200D02*
X5562444Y-12992676D01*
X5562444Y-12992676D02*
X5581491Y-12983152D01*
X5581491Y-12983152D02*
X5610063Y-12983152D01*
X5610063Y-12983152D02*
X5629110Y-12992676D01*
X5629110Y-12992676D02*
X5638634Y-13011724D01*
X5638634Y-13011724D02*
X5638634Y-13116486D01*
X5638634Y-13011724D02*
X5648158Y-12992676D01*
X5648158Y-12992676D02*
X5667205Y-12983152D01*
X5667205Y-12983152D02*
X5695777Y-12983152D01*
X5695777Y-12983152D02*
X5714824Y-12992676D01*
X5714824Y-12992676D02*
X5724348Y-13011724D01*
X5724348Y-13011724D02*
X5724348Y-13116486D01*
X5819586Y-13116486D02*
X5819586Y-12983152D01*
X5819586Y-13002200D02*
X5829110Y-12992676D01*
X5829110Y-12992676D02*
X5848158Y-12983152D01*
X5848158Y-12983152D02*
X5876729Y-12983152D01*
X5876729Y-12983152D02*
X5895777Y-12992676D01*
X5895777Y-12992676D02*
X5905301Y-13011724D01*
X5905301Y-13011724D02*
X5905301Y-13116486D01*
X5905301Y-13011724D02*
X5914824Y-12992676D01*
X5914824Y-12992676D02*
X5933872Y-12983152D01*
X5933872Y-12983152D02*
X5962443Y-12983152D01*
X5962443Y-12983152D02*
X5981491Y-12992676D01*
X5981491Y-12992676D02*
X5991015Y-13011724D01*
X5991015Y-13011724D02*
X5991015Y-13116486D01*
X6381491Y-12906962D02*
X6210063Y-13164105D01*
X6638634Y-12916486D02*
X6657682Y-12916486D01*
X6657682Y-12916486D02*
X6676729Y-12926009D01*
X6676729Y-12926009D02*
X6686253Y-12935533D01*
X6686253Y-12935533D02*
X6695777Y-12954581D01*
X6695777Y-12954581D02*
X6705301Y-12992676D01*
X6705301Y-12992676D02*
X6705301Y-13040295D01*
X6705301Y-13040295D02*
X6695777Y-13078390D01*
X6695777Y-13078390D02*
X6686253Y-13097438D01*
X6686253Y-13097438D02*
X6676729Y-13106962D01*
X6676729Y-13106962D02*
X6657682Y-13116486D01*
X6657682Y-13116486D02*
X6638634Y-13116486D01*
X6638634Y-13116486D02*
X6619586Y-13106962D01*
X6619586Y-13106962D02*
X6610063Y-13097438D01*
X6610063Y-13097438D02*
X6600539Y-13078390D01*
X6600539Y-13078390D02*
X6591015Y-13040295D01*
X6591015Y-13040295D02*
X6591015Y-12992676D01*
X6591015Y-12992676D02*
X6600539Y-12954581D01*
X6600539Y-12954581D02*
X6610063Y-12935533D01*
X6610063Y-12935533D02*
X6619586Y-12926009D01*
X6619586Y-12926009D02*
X6638634Y-12916486D01*
X6791015Y-13097438D02*
X6800539Y-13106962D01*
X6800539Y-13106962D02*
X6791015Y-13116486D01*
X6791015Y-13116486D02*
X6781491Y-13106962D01*
X6781491Y-13106962D02*
X6791015Y-13097438D01*
X6791015Y-13097438D02*
X6791015Y-13116486D01*
X6924348Y-12916486D02*
X6943396Y-12916486D01*
X6943396Y-12916486D02*
X6962444Y-12926009D01*
X6962444Y-12926009D02*
X6971967Y-12935533D01*
X6971967Y-12935533D02*
X6981491Y-12954581D01*
X6981491Y-12954581D02*
X6991015Y-12992676D01*
X6991015Y-12992676D02*
X6991015Y-13040295D01*
X6991015Y-13040295D02*
X6981491Y-13078390D01*
X6981491Y-13078390D02*
X6971967Y-13097438D01*
X6971967Y-13097438D02*
X6962444Y-13106962D01*
X6962444Y-13106962D02*
X6943396Y-13116486D01*
X6943396Y-13116486D02*
X6924348Y-13116486D01*
X6924348Y-13116486D02*
X6905301Y-13106962D01*
X6905301Y-13106962D02*
X6895777Y-13097438D01*
X6895777Y-13097438D02*
X6886253Y-13078390D01*
X6886253Y-13078390D02*
X6876729Y-13040295D01*
X6876729Y-13040295D02*
X6876729Y-12992676D01*
X6876729Y-12992676D02*
X6886253Y-12954581D01*
X6886253Y-12954581D02*
X6895777Y-12935533D01*
X6895777Y-12935533D02*
X6905301Y-12926009D01*
X6905301Y-12926009D02*
X6924348Y-12916486D01*
X7057682Y-12916486D02*
X7181491Y-12916486D01*
X7181491Y-12916486D02*
X7114825Y-12992676D01*
X7114825Y-12992676D02*
X7143396Y-12992676D01*
X7143396Y-12992676D02*
X7162444Y-13002200D01*
X7162444Y-13002200D02*
X7171967Y-13011724D01*
X7171967Y-13011724D02*
X7181491Y-13030771D01*
X7181491Y-13030771D02*
X7181491Y-13078390D01*
X7181491Y-13078390D02*
X7171967Y-13097438D01*
X7171967Y-13097438D02*
X7162444Y-13106962D01*
X7162444Y-13106962D02*
X7143396Y-13116486D01*
X7143396Y-13116486D02*
X7086253Y-13116486D01*
X7086253Y-13116486D02*
X7067206Y-13106962D01*
X7067206Y-13106962D02*
X7057682Y-13097438D01*
X7371967Y-13116486D02*
X7257682Y-13116486D01*
X7314825Y-13116486D02*
X7314825Y-12916486D01*
X7314825Y-12916486D02*
X7295777Y-12945057D01*
X7295777Y-12945057D02*
X7276729Y-12964105D01*
X7276729Y-12964105D02*
X7257682Y-12973628D01*
X7552920Y-12916486D02*
X7457682Y-12916486D01*
X7457682Y-12916486D02*
X7448158Y-13011724D01*
X7448158Y-13011724D02*
X7457682Y-13002200D01*
X7457682Y-13002200D02*
X7476729Y-12992676D01*
X7476729Y-12992676D02*
X7524348Y-12992676D01*
X7524348Y-12992676D02*
X7543396Y-13002200D01*
X7543396Y-13002200D02*
X7552920Y-13011724D01*
X7552920Y-13011724D02*
X7562444Y-13030771D01*
X7562444Y-13030771D02*
X7562444Y-13078390D01*
X7562444Y-13078390D02*
X7552920Y-13097438D01*
X7552920Y-13097438D02*
X7543396Y-13106962D01*
X7543396Y-13106962D02*
X7524348Y-13116486D01*
X7524348Y-13116486D02*
X7476729Y-13116486D01*
X7476729Y-13116486D02*
X7457682Y-13106962D01*
X7457682Y-13106962D02*
X7448158Y-13097438D01*
X7638634Y-12916486D02*
X7638634Y-12954581D01*
X7714825Y-12916486D02*
X7714825Y-12954581D01*
X8010063Y-13192676D02*
X8000539Y-13183152D01*
X8000539Y-13183152D02*
X7981491Y-13154581D01*
X7981491Y-13154581D02*
X7971968Y-13135533D01*
X7971968Y-13135533D02*
X7962444Y-13106962D01*
X7962444Y-13106962D02*
X7952920Y-13059343D01*
X7952920Y-13059343D02*
X7952920Y-13021247D01*
X7952920Y-13021247D02*
X7962444Y-12973628D01*
X7962444Y-12973628D02*
X7971968Y-12945057D01*
X7971968Y-12945057D02*
X7981491Y-12926009D01*
X7981491Y-12926009D02*
X8000539Y-12897438D01*
X8000539Y-12897438D02*
X8010063Y-12887914D01*
X8076729Y-12935533D02*
X8086253Y-12926009D01*
X8086253Y-12926009D02*
X8105301Y-12916486D01*
X8105301Y-12916486D02*
X8152920Y-12916486D01*
X8152920Y-12916486D02*
X8171968Y-12926009D01*
X8171968Y-12926009D02*
X8181491Y-12935533D01*
X8181491Y-12935533D02*
X8191015Y-12954581D01*
X8191015Y-12954581D02*
X8191015Y-12973628D01*
X8191015Y-12973628D02*
X8181491Y-13002200D01*
X8181491Y-13002200D02*
X8067206Y-13116486D01*
X8067206Y-13116486D02*
X8191015Y-13116486D01*
X8429111Y-13116486D02*
X8429111Y-12916486D01*
X8514825Y-13116486D02*
X8514825Y-13011724D01*
X8514825Y-13011724D02*
X8505301Y-12992676D01*
X8505301Y-12992676D02*
X8486253Y-12983152D01*
X8486253Y-12983152D02*
X8457682Y-12983152D01*
X8457682Y-12983152D02*
X8438634Y-12992676D01*
X8438634Y-12992676D02*
X8429111Y-13002200D01*
X8638634Y-13116486D02*
X8619587Y-13106962D01*
X8619587Y-13106962D02*
X8610063Y-13097438D01*
X8610063Y-13097438D02*
X8600539Y-13078390D01*
X8600539Y-13078390D02*
X8600539Y-13021247D01*
X8600539Y-13021247D02*
X8610063Y-13002200D01*
X8610063Y-13002200D02*
X8619587Y-12992676D01*
X8619587Y-12992676D02*
X8638634Y-12983152D01*
X8638634Y-12983152D02*
X8667206Y-12983152D01*
X8667206Y-12983152D02*
X8686253Y-12992676D01*
X8686253Y-12992676D02*
X8695777Y-13002200D01*
X8695777Y-13002200D02*
X8705301Y-13021247D01*
X8705301Y-13021247D02*
X8705301Y-13078390D01*
X8705301Y-13078390D02*
X8695777Y-13097438D01*
X8695777Y-13097438D02*
X8686253Y-13106962D01*
X8686253Y-13106962D02*
X8667206Y-13116486D01*
X8667206Y-13116486D02*
X8638634Y-13116486D01*
X8819587Y-13116486D02*
X8800539Y-13106962D01*
X8800539Y-13106962D02*
X8791015Y-13087914D01*
X8791015Y-13087914D02*
X8791015Y-12916486D01*
X8971968Y-13106962D02*
X8952920Y-13116486D01*
X8952920Y-13116486D02*
X8914825Y-13116486D01*
X8914825Y-13116486D02*
X8895777Y-13106962D01*
X8895777Y-13106962D02*
X8886253Y-13087914D01*
X8886253Y-13087914D02*
X8886253Y-13011724D01*
X8886253Y-13011724D02*
X8895777Y-12992676D01*
X8895777Y-12992676D02*
X8914825Y-12983152D01*
X8914825Y-12983152D02*
X8952920Y-12983152D01*
X8952920Y-12983152D02*
X8971968Y-12992676D01*
X8971968Y-12992676D02*
X8981492Y-13011724D01*
X8981492Y-13011724D02*
X8981492Y-13030771D01*
X8981492Y-13030771D02*
X8886253Y-13049819D01*
X9057682Y-13106962D02*
X9076730Y-13116486D01*
X9076730Y-13116486D02*
X9114825Y-13116486D01*
X9114825Y-13116486D02*
X9133873Y-13106962D01*
X9133873Y-13106962D02*
X9143396Y-13087914D01*
X9143396Y-13087914D02*
X9143396Y-13078390D01*
X9143396Y-13078390D02*
X9133873Y-13059343D01*
X9133873Y-13059343D02*
X9114825Y-13049819D01*
X9114825Y-13049819D02*
X9086253Y-13049819D01*
X9086253Y-13049819D02*
X9067206Y-13040295D01*
X9067206Y-13040295D02*
X9057682Y-13021247D01*
X9057682Y-13021247D02*
X9057682Y-13011724D01*
X9057682Y-13011724D02*
X9067206Y-12992676D01*
X9067206Y-12992676D02*
X9086253Y-12983152D01*
X9086253Y-12983152D02*
X9114825Y-12983152D01*
X9114825Y-12983152D02*
X9133873Y-12992676D01*
X9210063Y-13192676D02*
X9219587Y-13183152D01*
X9219587Y-13183152D02*
X9238634Y-13154581D01*
X9238634Y-13154581D02*
X9248158Y-13135533D01*
X9248158Y-13135533D02*
X9257682Y-13106962D01*
X9257682Y-13106962D02*
X9267206Y-13059343D01*
X9267206Y-13059343D02*
X9267206Y-13021247D01*
X9267206Y-13021247D02*
X9257682Y-12973628D01*
X9257682Y-12973628D02*
X9248158Y-12945057D01*
X9248158Y-12945057D02*
X9238634Y-12926009D01*
X9238634Y-12926009D02*
X9219587Y-12897438D01*
X9219587Y-12897438D02*
X9210063Y-12887914D01*
X9571968Y-13192676D02*
X9562444Y-13183152D01*
X9562444Y-13183152D02*
X9543396Y-13154581D01*
X9543396Y-13154581D02*
X9533873Y-13135533D01*
X9533873Y-13135533D02*
X9524349Y-13106962D01*
X9524349Y-13106962D02*
X9514825Y-13059343D01*
X9514825Y-13059343D02*
X9514825Y-13021247D01*
X9514825Y-13021247D02*
X9524349Y-12973628D01*
X9524349Y-12973628D02*
X9533873Y-12945057D01*
X9533873Y-12945057D02*
X9543396Y-12926009D01*
X9543396Y-12926009D02*
X9562444Y-12897438D01*
X9562444Y-12897438D02*
X9571968Y-12887914D01*
X9648158Y-12983152D02*
X9648158Y-13116486D01*
X9648158Y-13002200D02*
X9657682Y-12992676D01*
X9657682Y-12992676D02*
X9676730Y-12983152D01*
X9676730Y-12983152D02*
X9705301Y-12983152D01*
X9705301Y-12983152D02*
X9724349Y-12992676D01*
X9724349Y-12992676D02*
X9733873Y-13011724D01*
X9733873Y-13011724D02*
X9733873Y-13116486D01*
X9857682Y-13116486D02*
X9838634Y-13106962D01*
X9838634Y-13106962D02*
X9829111Y-13097438D01*
X9829111Y-13097438D02*
X9819587Y-13078390D01*
X9819587Y-13078390D02*
X9819587Y-13021247D01*
X9819587Y-13021247D02*
X9829111Y-13002200D01*
X9829111Y-13002200D02*
X9838634Y-12992676D01*
X9838634Y-12992676D02*
X9857682Y-12983152D01*
X9857682Y-12983152D02*
X9886254Y-12983152D01*
X9886254Y-12983152D02*
X9905301Y-12992676D01*
X9905301Y-12992676D02*
X9914825Y-13002200D01*
X9914825Y-13002200D02*
X9924349Y-13021247D01*
X9924349Y-13021247D02*
X9924349Y-13078390D01*
X9924349Y-13078390D02*
X9914825Y-13097438D01*
X9914825Y-13097438D02*
X9905301Y-13106962D01*
X9905301Y-13106962D02*
X9886254Y-13116486D01*
X9886254Y-13116486D02*
X9857682Y-13116486D01*
X9981492Y-12983152D02*
X10057682Y-12983152D01*
X10010063Y-12916486D02*
X10010063Y-13087914D01*
X10010063Y-13087914D02*
X10019587Y-13106962D01*
X10019587Y-13106962D02*
X10038634Y-13116486D01*
X10038634Y-13116486D02*
X10057682Y-13116486D01*
X10276730Y-12983152D02*
X10276730Y-13183152D01*
X10276730Y-12992676D02*
X10295777Y-12983152D01*
X10295777Y-12983152D02*
X10333873Y-12983152D01*
X10333873Y-12983152D02*
X10352920Y-12992676D01*
X10352920Y-12992676D02*
X10362444Y-13002200D01*
X10362444Y-13002200D02*
X10371968Y-13021247D01*
X10371968Y-13021247D02*
X10371968Y-13078390D01*
X10371968Y-13078390D02*
X10362444Y-13097438D01*
X10362444Y-13097438D02*
X10352920Y-13106962D01*
X10352920Y-13106962D02*
X10333873Y-13116486D01*
X10333873Y-13116486D02*
X10295777Y-13116486D01*
X10295777Y-13116486D02*
X10276730Y-13106962D01*
X10486254Y-13116486D02*
X10467206Y-13106962D01*
X10467206Y-13106962D02*
X10457682Y-13087914D01*
X10457682Y-13087914D02*
X10457682Y-12916486D01*
X10648158Y-13116486D02*
X10648158Y-13011724D01*
X10648158Y-13011724D02*
X10638635Y-12992676D01*
X10638635Y-12992676D02*
X10619587Y-12983152D01*
X10619587Y-12983152D02*
X10581492Y-12983152D01*
X10581492Y-12983152D02*
X10562444Y-12992676D01*
X10648158Y-13106962D02*
X10629111Y-13116486D01*
X10629111Y-13116486D02*
X10581492Y-13116486D01*
X10581492Y-13116486D02*
X10562444Y-13106962D01*
X10562444Y-13106962D02*
X10552920Y-13087914D01*
X10552920Y-13087914D02*
X10552920Y-13068866D01*
X10552920Y-13068866D02*
X10562444Y-13049819D01*
X10562444Y-13049819D02*
X10581492Y-13040295D01*
X10581492Y-13040295D02*
X10629111Y-13040295D01*
X10629111Y-13040295D02*
X10648158Y-13030771D01*
X10714825Y-12983152D02*
X10791015Y-12983152D01*
X10743396Y-12916486D02*
X10743396Y-13087914D01*
X10743396Y-13087914D02*
X10752920Y-13106962D01*
X10752920Y-13106962D02*
X10771968Y-13116486D01*
X10771968Y-13116486D02*
X10791015Y-13116486D01*
X10933873Y-13106962D02*
X10914825Y-13116486D01*
X10914825Y-13116486D02*
X10876730Y-13116486D01*
X10876730Y-13116486D02*
X10857682Y-13106962D01*
X10857682Y-13106962D02*
X10848158Y-13087914D01*
X10848158Y-13087914D02*
X10848158Y-13011724D01*
X10848158Y-13011724D02*
X10857682Y-12992676D01*
X10857682Y-12992676D02*
X10876730Y-12983152D01*
X10876730Y-12983152D02*
X10914825Y-12983152D01*
X10914825Y-12983152D02*
X10933873Y-12992676D01*
X10933873Y-12992676D02*
X10943396Y-13011724D01*
X10943396Y-13011724D02*
X10943396Y-13030771D01*
X10943396Y-13030771D02*
X10848158Y-13049819D01*
X11114825Y-13116486D02*
X11114825Y-12916486D01*
X11114825Y-13106962D02*
X11095777Y-13116486D01*
X11095777Y-13116486D02*
X11057682Y-13116486D01*
X11057682Y-13116486D02*
X11038635Y-13106962D01*
X11038635Y-13106962D02*
X11029111Y-13097438D01*
X11029111Y-13097438D02*
X11019587Y-13078390D01*
X11019587Y-13078390D02*
X11019587Y-13021247D01*
X11019587Y-13021247D02*
X11029111Y-13002200D01*
X11029111Y-13002200D02*
X11038635Y-12992676D01*
X11038635Y-12992676D02*
X11057682Y-12983152D01*
X11057682Y-12983152D02*
X11095777Y-12983152D01*
X11095777Y-12983152D02*
X11114825Y-12992676D01*
X11191015Y-13192676D02*
X11200539Y-13183152D01*
X11200539Y-13183152D02*
X11219587Y-13154581D01*
X11219587Y-13154581D02*
X11229111Y-13135533D01*
X11229111Y-13135533D02*
X11238634Y-13106962D01*
X11238634Y-13106962D02*
X11248158Y-13059343D01*
X11248158Y-13059343D02*
X11248158Y-13021247D01*
X11248158Y-13021247D02*
X11238634Y-12973628D01*
X11238634Y-12973628D02*
X11229111Y-12945057D01*
X11229111Y-12945057D02*
X11219587Y-12926009D01*
X11219587Y-12926009D02*
X11200539Y-12897438D01*
X11200539Y-12897438D02*
X11191015Y-12887914D01*
X4435000Y-13289002D02*
G75*
G03*
X4235000Y-13289002I-100000J0D01*
G01*
X4235000Y-13289002D02*
G75*
G03*
X4435000Y-13289002I100000J0D01*
G01*
X4686253Y-13199533D02*
X4695777Y-13190009D01*
X4695777Y-13190009D02*
X4714824Y-13180486D01*
X4714824Y-13180486D02*
X4762444Y-13180486D01*
X4762444Y-13180486D02*
X4781491Y-13190009D01*
X4781491Y-13190009D02*
X4791015Y-13199533D01*
X4791015Y-13199533D02*
X4800539Y-13218581D01*
X4800539Y-13218581D02*
X4800539Y-13237628D01*
X4800539Y-13237628D02*
X4791015Y-13266200D01*
X4791015Y-13266200D02*
X4676729Y-13380486D01*
X4676729Y-13380486D02*
X4800539Y-13380486D01*
X4886253Y-13361438D02*
X4895777Y-13370962D01*
X4895777Y-13370962D02*
X4886253Y-13380486D01*
X4886253Y-13380486D02*
X4876729Y-13370962D01*
X4876729Y-13370962D02*
X4886253Y-13361438D01*
X4886253Y-13361438D02*
X4886253Y-13380486D01*
X4971967Y-13199533D02*
X4981491Y-13190009D01*
X4981491Y-13190009D02*
X5000539Y-13180486D01*
X5000539Y-13180486D02*
X5048158Y-13180486D01*
X5048158Y-13180486D02*
X5067205Y-13190009D01*
X5067205Y-13190009D02*
X5076729Y-13199533D01*
X5076729Y-13199533D02*
X5086253Y-13218581D01*
X5086253Y-13218581D02*
X5086253Y-13237628D01*
X5086253Y-13237628D02*
X5076729Y-13266200D01*
X5076729Y-13266200D02*
X4962444Y-13380486D01*
X4962444Y-13380486D02*
X5086253Y-13380486D01*
X5210063Y-13180486D02*
X5229110Y-13180486D01*
X5229110Y-13180486D02*
X5248158Y-13190009D01*
X5248158Y-13190009D02*
X5257682Y-13199533D01*
X5257682Y-13199533D02*
X5267205Y-13218581D01*
X5267205Y-13218581D02*
X5276729Y-13256676D01*
X5276729Y-13256676D02*
X5276729Y-13304295D01*
X5276729Y-13304295D02*
X5267205Y-13342390D01*
X5267205Y-13342390D02*
X5257682Y-13361438D01*
X5257682Y-13361438D02*
X5248158Y-13370962D01*
X5248158Y-13370962D02*
X5229110Y-13380486D01*
X5229110Y-13380486D02*
X5210063Y-13380486D01*
X5210063Y-13380486D02*
X5191015Y-13370962D01*
X5191015Y-13370962D02*
X5181491Y-13361438D01*
X5181491Y-13361438D02*
X5171967Y-13342390D01*
X5171967Y-13342390D02*
X5162444Y-13304295D01*
X5162444Y-13304295D02*
X5162444Y-13256676D01*
X5162444Y-13256676D02*
X5171967Y-13218581D01*
X5171967Y-13218581D02*
X5181491Y-13199533D01*
X5181491Y-13199533D02*
X5191015Y-13190009D01*
X5191015Y-13190009D02*
X5210063Y-13180486D01*
X5400539Y-13180486D02*
X5419586Y-13180486D01*
X5419586Y-13180486D02*
X5438634Y-13190009D01*
X5438634Y-13190009D02*
X5448158Y-13199533D01*
X5448158Y-13199533D02*
X5457682Y-13218581D01*
X5457682Y-13218581D02*
X5467205Y-13256676D01*
X5467205Y-13256676D02*
X5467205Y-13304295D01*
X5467205Y-13304295D02*
X5457682Y-13342390D01*
X5457682Y-13342390D02*
X5448158Y-13361438D01*
X5448158Y-13361438D02*
X5438634Y-13370962D01*
X5438634Y-13370962D02*
X5419586Y-13380486D01*
X5419586Y-13380486D02*
X5400539Y-13380486D01*
X5400539Y-13380486D02*
X5381491Y-13370962D01*
X5381491Y-13370962D02*
X5371967Y-13361438D01*
X5371967Y-13361438D02*
X5362444Y-13342390D01*
X5362444Y-13342390D02*
X5352920Y-13304295D01*
X5352920Y-13304295D02*
X5352920Y-13256676D01*
X5352920Y-13256676D02*
X5362444Y-13218581D01*
X5362444Y-13218581D02*
X5371967Y-13199533D01*
X5371967Y-13199533D02*
X5381491Y-13190009D01*
X5381491Y-13190009D02*
X5400539Y-13180486D01*
X5552920Y-13380486D02*
X5552920Y-13247152D01*
X5552920Y-13266200D02*
X5562444Y-13256676D01*
X5562444Y-13256676D02*
X5581491Y-13247152D01*
X5581491Y-13247152D02*
X5610063Y-13247152D01*
X5610063Y-13247152D02*
X5629110Y-13256676D01*
X5629110Y-13256676D02*
X5638634Y-13275724D01*
X5638634Y-13275724D02*
X5638634Y-13380486D01*
X5638634Y-13275724D02*
X5648158Y-13256676D01*
X5648158Y-13256676D02*
X5667205Y-13247152D01*
X5667205Y-13247152D02*
X5695777Y-13247152D01*
X5695777Y-13247152D02*
X5714824Y-13256676D01*
X5714824Y-13256676D02*
X5724348Y-13275724D01*
X5724348Y-13275724D02*
X5724348Y-13380486D01*
X5819586Y-13380486D02*
X5819586Y-13247152D01*
X5819586Y-13266200D02*
X5829110Y-13256676D01*
X5829110Y-13256676D02*
X5848158Y-13247152D01*
X5848158Y-13247152D02*
X5876729Y-13247152D01*
X5876729Y-13247152D02*
X5895777Y-13256676D01*
X5895777Y-13256676D02*
X5905301Y-13275724D01*
X5905301Y-13275724D02*
X5905301Y-13380486D01*
X5905301Y-13275724D02*
X5914824Y-13256676D01*
X5914824Y-13256676D02*
X5933872Y-13247152D01*
X5933872Y-13247152D02*
X5962443Y-13247152D01*
X5962443Y-13247152D02*
X5981491Y-13256676D01*
X5981491Y-13256676D02*
X5991015Y-13275724D01*
X5991015Y-13275724D02*
X5991015Y-13380486D01*
X6381491Y-13170962D02*
X6210063Y-13428105D01*
X6638634Y-13180486D02*
X6657682Y-13180486D01*
X6657682Y-13180486D02*
X6676729Y-13190009D01*
X6676729Y-13190009D02*
X6686253Y-13199533D01*
X6686253Y-13199533D02*
X6695777Y-13218581D01*
X6695777Y-13218581D02*
X6705301Y-13256676D01*
X6705301Y-13256676D02*
X6705301Y-13304295D01*
X6705301Y-13304295D02*
X6695777Y-13342390D01*
X6695777Y-13342390D02*
X6686253Y-13361438D01*
X6686253Y-13361438D02*
X6676729Y-13370962D01*
X6676729Y-13370962D02*
X6657682Y-13380486D01*
X6657682Y-13380486D02*
X6638634Y-13380486D01*
X6638634Y-13380486D02*
X6619586Y-13370962D01*
X6619586Y-13370962D02*
X6610063Y-13361438D01*
X6610063Y-13361438D02*
X6600539Y-13342390D01*
X6600539Y-13342390D02*
X6591015Y-13304295D01*
X6591015Y-13304295D02*
X6591015Y-13256676D01*
X6591015Y-13256676D02*
X6600539Y-13218581D01*
X6600539Y-13218581D02*
X6610063Y-13199533D01*
X6610063Y-13199533D02*
X6619586Y-13190009D01*
X6619586Y-13190009D02*
X6638634Y-13180486D01*
X6791015Y-13361438D02*
X6800539Y-13370962D01*
X6800539Y-13370962D02*
X6791015Y-13380486D01*
X6791015Y-13380486D02*
X6781491Y-13370962D01*
X6781491Y-13370962D02*
X6791015Y-13361438D01*
X6791015Y-13361438D02*
X6791015Y-13380486D01*
X6924348Y-13180486D02*
X6943396Y-13180486D01*
X6943396Y-13180486D02*
X6962444Y-13190009D01*
X6962444Y-13190009D02*
X6971967Y-13199533D01*
X6971967Y-13199533D02*
X6981491Y-13218581D01*
X6981491Y-13218581D02*
X6991015Y-13256676D01*
X6991015Y-13256676D02*
X6991015Y-13304295D01*
X6991015Y-13304295D02*
X6981491Y-13342390D01*
X6981491Y-13342390D02*
X6971967Y-13361438D01*
X6971967Y-13361438D02*
X6962444Y-13370962D01*
X6962444Y-13370962D02*
X6943396Y-13380486D01*
X6943396Y-13380486D02*
X6924348Y-13380486D01*
X6924348Y-13380486D02*
X6905301Y-13370962D01*
X6905301Y-13370962D02*
X6895777Y-13361438D01*
X6895777Y-13361438D02*
X6886253Y-13342390D01*
X6886253Y-13342390D02*
X6876729Y-13304295D01*
X6876729Y-13304295D02*
X6876729Y-13256676D01*
X6876729Y-13256676D02*
X6886253Y-13218581D01*
X6886253Y-13218581D02*
X6895777Y-13199533D01*
X6895777Y-13199533D02*
X6905301Y-13190009D01*
X6905301Y-13190009D02*
X6924348Y-13180486D01*
X7105301Y-13266200D02*
X7086253Y-13256676D01*
X7086253Y-13256676D02*
X7076729Y-13247152D01*
X7076729Y-13247152D02*
X7067206Y-13228105D01*
X7067206Y-13228105D02*
X7067206Y-13218581D01*
X7067206Y-13218581D02*
X7076729Y-13199533D01*
X7076729Y-13199533D02*
X7086253Y-13190009D01*
X7086253Y-13190009D02*
X7105301Y-13180486D01*
X7105301Y-13180486D02*
X7143396Y-13180486D01*
X7143396Y-13180486D02*
X7162444Y-13190009D01*
X7162444Y-13190009D02*
X7171967Y-13199533D01*
X7171967Y-13199533D02*
X7181491Y-13218581D01*
X7181491Y-13218581D02*
X7181491Y-13228105D01*
X7181491Y-13228105D02*
X7171967Y-13247152D01*
X7171967Y-13247152D02*
X7162444Y-13256676D01*
X7162444Y-13256676D02*
X7143396Y-13266200D01*
X7143396Y-13266200D02*
X7105301Y-13266200D01*
X7105301Y-13266200D02*
X7086253Y-13275724D01*
X7086253Y-13275724D02*
X7076729Y-13285247D01*
X7076729Y-13285247D02*
X7067206Y-13304295D01*
X7067206Y-13304295D02*
X7067206Y-13342390D01*
X7067206Y-13342390D02*
X7076729Y-13361438D01*
X7076729Y-13361438D02*
X7086253Y-13370962D01*
X7086253Y-13370962D02*
X7105301Y-13380486D01*
X7105301Y-13380486D02*
X7143396Y-13380486D01*
X7143396Y-13380486D02*
X7162444Y-13370962D01*
X7162444Y-13370962D02*
X7171967Y-13361438D01*
X7171967Y-13361438D02*
X7181491Y-13342390D01*
X7181491Y-13342390D02*
X7181491Y-13304295D01*
X7181491Y-13304295D02*
X7171967Y-13285247D01*
X7171967Y-13285247D02*
X7162444Y-13275724D01*
X7162444Y-13275724D02*
X7143396Y-13266200D01*
X7352920Y-13180486D02*
X7314825Y-13180486D01*
X7314825Y-13180486D02*
X7295777Y-13190009D01*
X7295777Y-13190009D02*
X7286253Y-13199533D01*
X7286253Y-13199533D02*
X7267206Y-13228105D01*
X7267206Y-13228105D02*
X7257682Y-13266200D01*
X7257682Y-13266200D02*
X7257682Y-13342390D01*
X7257682Y-13342390D02*
X7267206Y-13361438D01*
X7267206Y-13361438D02*
X7276729Y-13370962D01*
X7276729Y-13370962D02*
X7295777Y-13380486D01*
X7295777Y-13380486D02*
X7333872Y-13380486D01*
X7333872Y-13380486D02*
X7352920Y-13370962D01*
X7352920Y-13370962D02*
X7362444Y-13361438D01*
X7362444Y-13361438D02*
X7371967Y-13342390D01*
X7371967Y-13342390D02*
X7371967Y-13294771D01*
X7371967Y-13294771D02*
X7362444Y-13275724D01*
X7362444Y-13275724D02*
X7352920Y-13266200D01*
X7352920Y-13266200D02*
X7333872Y-13256676D01*
X7333872Y-13256676D02*
X7295777Y-13256676D01*
X7295777Y-13256676D02*
X7276729Y-13266200D01*
X7276729Y-13266200D02*
X7267206Y-13275724D01*
X7267206Y-13275724D02*
X7257682Y-13294771D01*
X7543396Y-13180486D02*
X7505301Y-13180486D01*
X7505301Y-13180486D02*
X7486253Y-13190009D01*
X7486253Y-13190009D02*
X7476729Y-13199533D01*
X7476729Y-13199533D02*
X7457682Y-13228105D01*
X7457682Y-13228105D02*
X7448158Y-13266200D01*
X7448158Y-13266200D02*
X7448158Y-13342390D01*
X7448158Y-13342390D02*
X7457682Y-13361438D01*
X7457682Y-13361438D02*
X7467206Y-13370962D01*
X7467206Y-13370962D02*
X7486253Y-13380486D01*
X7486253Y-13380486D02*
X7524348Y-13380486D01*
X7524348Y-13380486D02*
X7543396Y-13370962D01*
X7543396Y-13370962D02*
X7552920Y-13361438D01*
X7552920Y-13361438D02*
X7562444Y-13342390D01*
X7562444Y-13342390D02*
X7562444Y-13294771D01*
X7562444Y-13294771D02*
X7552920Y-13275724D01*
X7552920Y-13275724D02*
X7543396Y-13266200D01*
X7543396Y-13266200D02*
X7524348Y-13256676D01*
X7524348Y-13256676D02*
X7486253Y-13256676D01*
X7486253Y-13256676D02*
X7467206Y-13266200D01*
X7467206Y-13266200D02*
X7457682Y-13275724D01*
X7457682Y-13275724D02*
X7448158Y-13294771D01*
X7638634Y-13180486D02*
X7638634Y-13218581D01*
X7714825Y-13180486D02*
X7714825Y-13218581D01*
X8010063Y-13456676D02*
X8000539Y-13447152D01*
X8000539Y-13447152D02*
X7981491Y-13418581D01*
X7981491Y-13418581D02*
X7971968Y-13399533D01*
X7971968Y-13399533D02*
X7962444Y-13370962D01*
X7962444Y-13370962D02*
X7952920Y-13323343D01*
X7952920Y-13323343D02*
X7952920Y-13285247D01*
X7952920Y-13285247D02*
X7962444Y-13237628D01*
X7962444Y-13237628D02*
X7971968Y-13209057D01*
X7971968Y-13209057D02*
X7981491Y-13190009D01*
X7981491Y-13190009D02*
X8000539Y-13161438D01*
X8000539Y-13161438D02*
X8010063Y-13151914D01*
X8191015Y-13380486D02*
X8076729Y-13380486D01*
X8133872Y-13380486D02*
X8133872Y-13180486D01*
X8133872Y-13180486D02*
X8114825Y-13209057D01*
X8114825Y-13209057D02*
X8095777Y-13228105D01*
X8095777Y-13228105D02*
X8076729Y-13237628D01*
X8257682Y-13180486D02*
X8391015Y-13180486D01*
X8391015Y-13180486D02*
X8305301Y-13380486D01*
X8619587Y-13380486D02*
X8619587Y-13180486D01*
X8705301Y-13380486D02*
X8705301Y-13275724D01*
X8705301Y-13275724D02*
X8695777Y-13256676D01*
X8695777Y-13256676D02*
X8676730Y-13247152D01*
X8676730Y-13247152D02*
X8648158Y-13247152D01*
X8648158Y-13247152D02*
X8629111Y-13256676D01*
X8629111Y-13256676D02*
X8619587Y-13266200D01*
X8829111Y-13380486D02*
X8810063Y-13370962D01*
X8810063Y-13370962D02*
X8800539Y-13361438D01*
X8800539Y-13361438D02*
X8791015Y-13342390D01*
X8791015Y-13342390D02*
X8791015Y-13285247D01*
X8791015Y-13285247D02*
X8800539Y-13266200D01*
X8800539Y-13266200D02*
X8810063Y-13256676D01*
X8810063Y-13256676D02*
X8829111Y-13247152D01*
X8829111Y-13247152D02*
X8857682Y-13247152D01*
X8857682Y-13247152D02*
X8876730Y-13256676D01*
X8876730Y-13256676D02*
X8886253Y-13266200D01*
X8886253Y-13266200D02*
X8895777Y-13285247D01*
X8895777Y-13285247D02*
X8895777Y-13342390D01*
X8895777Y-13342390D02*
X8886253Y-13361438D01*
X8886253Y-13361438D02*
X8876730Y-13370962D01*
X8876730Y-13370962D02*
X8857682Y-13380486D01*
X8857682Y-13380486D02*
X8829111Y-13380486D01*
X9010063Y-13380486D02*
X8991015Y-13370962D01*
X8991015Y-13370962D02*
X8981492Y-13351914D01*
X8981492Y-13351914D02*
X8981492Y-13180486D01*
X9162444Y-13370962D02*
X9143396Y-13380486D01*
X9143396Y-13380486D02*
X9105301Y-13380486D01*
X9105301Y-13380486D02*
X9086253Y-13370962D01*
X9086253Y-13370962D02*
X9076730Y-13351914D01*
X9076730Y-13351914D02*
X9076730Y-13275724D01*
X9076730Y-13275724D02*
X9086253Y-13256676D01*
X9086253Y-13256676D02*
X9105301Y-13247152D01*
X9105301Y-13247152D02*
X9143396Y-13247152D01*
X9143396Y-13247152D02*
X9162444Y-13256676D01*
X9162444Y-13256676D02*
X9171968Y-13275724D01*
X9171968Y-13275724D02*
X9171968Y-13294771D01*
X9171968Y-13294771D02*
X9076730Y-13313819D01*
X9248158Y-13370962D02*
X9267206Y-13380486D01*
X9267206Y-13380486D02*
X9305301Y-13380486D01*
X9305301Y-13380486D02*
X9324349Y-13370962D01*
X9324349Y-13370962D02*
X9333873Y-13351914D01*
X9333873Y-13351914D02*
X9333873Y-13342390D01*
X9333873Y-13342390D02*
X9324349Y-13323343D01*
X9324349Y-13323343D02*
X9305301Y-13313819D01*
X9305301Y-13313819D02*
X9276730Y-13313819D01*
X9276730Y-13313819D02*
X9257682Y-13304295D01*
X9257682Y-13304295D02*
X9248158Y-13285247D01*
X9248158Y-13285247D02*
X9248158Y-13275724D01*
X9248158Y-13275724D02*
X9257682Y-13256676D01*
X9257682Y-13256676D02*
X9276730Y-13247152D01*
X9276730Y-13247152D02*
X9305301Y-13247152D01*
X9305301Y-13247152D02*
X9324349Y-13256676D01*
X9400539Y-13456676D02*
X9410063Y-13447152D01*
X9410063Y-13447152D02*
X9429111Y-13418581D01*
X9429111Y-13418581D02*
X9438634Y-13399533D01*
X9438634Y-13399533D02*
X9448158Y-13370962D01*
X9448158Y-13370962D02*
X9457682Y-13323343D01*
X9457682Y-13323343D02*
X9457682Y-13285247D01*
X9457682Y-13285247D02*
X9448158Y-13237628D01*
X9448158Y-13237628D02*
X9438634Y-13209057D01*
X9438634Y-13209057D02*
X9429111Y-13190009D01*
X9429111Y-13190009D02*
X9410063Y-13161438D01*
X9410063Y-13161438D02*
X9400539Y-13151914D01*
X9762444Y-13456676D02*
X9752920Y-13447152D01*
X9752920Y-13447152D02*
X9733873Y-13418581D01*
X9733873Y-13418581D02*
X9724349Y-13399533D01*
X9724349Y-13399533D02*
X9714825Y-13370962D01*
X9714825Y-13370962D02*
X9705301Y-13323343D01*
X9705301Y-13323343D02*
X9705301Y-13285247D01*
X9705301Y-13285247D02*
X9714825Y-13237628D01*
X9714825Y-13237628D02*
X9724349Y-13209057D01*
X9724349Y-13209057D02*
X9733873Y-13190009D01*
X9733873Y-13190009D02*
X9752920Y-13161438D01*
X9752920Y-13161438D02*
X9762444Y-13151914D01*
X9838634Y-13247152D02*
X9838634Y-13380486D01*
X9838634Y-13266200D02*
X9848158Y-13256676D01*
X9848158Y-13256676D02*
X9867206Y-13247152D01*
X9867206Y-13247152D02*
X9895777Y-13247152D01*
X9895777Y-13247152D02*
X9914825Y-13256676D01*
X9914825Y-13256676D02*
X9924349Y-13275724D01*
X9924349Y-13275724D02*
X9924349Y-13380486D01*
X10048158Y-13380486D02*
X10029111Y-13370962D01*
X10029111Y-13370962D02*
X10019587Y-13361438D01*
X10019587Y-13361438D02*
X10010063Y-13342390D01*
X10010063Y-13342390D02*
X10010063Y-13285247D01*
X10010063Y-13285247D02*
X10019587Y-13266200D01*
X10019587Y-13266200D02*
X10029111Y-13256676D01*
X10029111Y-13256676D02*
X10048158Y-13247152D01*
X10048158Y-13247152D02*
X10076730Y-13247152D01*
X10076730Y-13247152D02*
X10095777Y-13256676D01*
X10095777Y-13256676D02*
X10105301Y-13266200D01*
X10105301Y-13266200D02*
X10114825Y-13285247D01*
X10114825Y-13285247D02*
X10114825Y-13342390D01*
X10114825Y-13342390D02*
X10105301Y-13361438D01*
X10105301Y-13361438D02*
X10095777Y-13370962D01*
X10095777Y-13370962D02*
X10076730Y-13380486D01*
X10076730Y-13380486D02*
X10048158Y-13380486D01*
X10171968Y-13247152D02*
X10248158Y-13247152D01*
X10200539Y-13180486D02*
X10200539Y-13351914D01*
X10200539Y-13351914D02*
X10210063Y-13370962D01*
X10210063Y-13370962D02*
X10229111Y-13380486D01*
X10229111Y-13380486D02*
X10248158Y-13380486D01*
X10467206Y-13247152D02*
X10467206Y-13447152D01*
X10467206Y-13256676D02*
X10486254Y-13247152D01*
X10486254Y-13247152D02*
X10524349Y-13247152D01*
X10524349Y-13247152D02*
X10543396Y-13256676D01*
X10543396Y-13256676D02*
X10552920Y-13266200D01*
X10552920Y-13266200D02*
X10562444Y-13285247D01*
X10562444Y-13285247D02*
X10562444Y-13342390D01*
X10562444Y-13342390D02*
X10552920Y-13361438D01*
X10552920Y-13361438D02*
X10543396Y-13370962D01*
X10543396Y-13370962D02*
X10524349Y-13380486D01*
X10524349Y-13380486D02*
X10486254Y-13380486D01*
X10486254Y-13380486D02*
X10467206Y-13370962D01*
X10676730Y-13380486D02*
X10657682Y-13370962D01*
X10657682Y-13370962D02*
X10648158Y-13351914D01*
X10648158Y-13351914D02*
X10648158Y-13180486D01*
X10838635Y-13380486D02*
X10838635Y-13275724D01*
X10838635Y-13275724D02*
X10829111Y-13256676D01*
X10829111Y-13256676D02*
X10810063Y-13247152D01*
X10810063Y-13247152D02*
X10771968Y-13247152D01*
X10771968Y-13247152D02*
X10752920Y-13256676D01*
X10838635Y-13370962D02*
X10819587Y-13380486D01*
X10819587Y-13380486D02*
X10771968Y-13380486D01*
X10771968Y-13380486D02*
X10752920Y-13370962D01*
X10752920Y-13370962D02*
X10743396Y-13351914D01*
X10743396Y-13351914D02*
X10743396Y-13332866D01*
X10743396Y-13332866D02*
X10752920Y-13313819D01*
X10752920Y-13313819D02*
X10771968Y-13304295D01*
X10771968Y-13304295D02*
X10819587Y-13304295D01*
X10819587Y-13304295D02*
X10838635Y-13294771D01*
X10905301Y-13247152D02*
X10981492Y-13247152D01*
X10933873Y-13180486D02*
X10933873Y-13351914D01*
X10933873Y-13351914D02*
X10943396Y-13370962D01*
X10943396Y-13370962D02*
X10962444Y-13380486D01*
X10962444Y-13380486D02*
X10981492Y-13380486D01*
X11124349Y-13370962D02*
X11105301Y-13380486D01*
X11105301Y-13380486D02*
X11067206Y-13380486D01*
X11067206Y-13380486D02*
X11048158Y-13370962D01*
X11048158Y-13370962D02*
X11038635Y-13351914D01*
X11038635Y-13351914D02*
X11038635Y-13275724D01*
X11038635Y-13275724D02*
X11048158Y-13256676D01*
X11048158Y-13256676D02*
X11067206Y-13247152D01*
X11067206Y-13247152D02*
X11105301Y-13247152D01*
X11105301Y-13247152D02*
X11124349Y-13256676D01*
X11124349Y-13256676D02*
X11133873Y-13275724D01*
X11133873Y-13275724D02*
X11133873Y-13294771D01*
X11133873Y-13294771D02*
X11038635Y-13313819D01*
X11305301Y-13380486D02*
X11305301Y-13180486D01*
X11305301Y-13370962D02*
X11286254Y-13380486D01*
X11286254Y-13380486D02*
X11248158Y-13380486D01*
X11248158Y-13380486D02*
X11229111Y-13370962D01*
X11229111Y-13370962D02*
X11219587Y-13361438D01*
X11219587Y-13361438D02*
X11210063Y-13342390D01*
X11210063Y-13342390D02*
X11210063Y-13285247D01*
X11210063Y-13285247D02*
X11219587Y-13266200D01*
X11219587Y-13266200D02*
X11229111Y-13256676D01*
X11229111Y-13256676D02*
X11248158Y-13247152D01*
X11248158Y-13247152D02*
X11286254Y-13247152D01*
X11286254Y-13247152D02*
X11305301Y-13256676D01*
X11381492Y-13456676D02*
X11391015Y-13447152D01*
X11391015Y-13447152D02*
X11410063Y-13418581D01*
X11410063Y-13418581D02*
X11419587Y-13399533D01*
X11419587Y-13399533D02*
X11429111Y-13370962D01*
X11429111Y-13370962D02*
X11438634Y-13323343D01*
X11438634Y-13323343D02*
X11438634Y-13285247D01*
X11438634Y-13285247D02*
X11429111Y-13237628D01*
X11429111Y-13237628D02*
X11419587Y-13209057D01*
X11419587Y-13209057D02*
X11410063Y-13190009D01*
X11410063Y-13190009D02*
X11391015Y-13161438D01*
X11391015Y-13161438D02*
X11381492Y-13151914D01*
M02*
